SplineFontDB: 3.0
FontName: MergeOne-Regular
FullName: Merge One
FamilyName: Merge One
Weight: Book
Copyright: Copyright (c) 2012, Kosal Sen, Philatype (holla@philatype.com), with Reserved Font Name 'Merge'
Version: 1.001
ItalicAngle: 0
UnderlinePosition: -50
UnderlineWidth: 50
Ascent: 800
Descent: 200
sfntRevision: 0x00010042
LayerCount: 2
Layer: 0 1 "Back"  1
Layer: 1 1 "Fore"  0
XUID: [1021 876 298035795 6134550]
FSType: 0
OS2Version: 3
OS2_WeightWidthSlopeOnly: 0
OS2_UseTypoMetrics: 1
CreationTime: 1295868960
ModificationTime: 1349496249
PfmFamily: 81
TTFWeight: 400
TTFWidth: 5
LineGap: 0
VLineGap: 0
Panose: 0 0 0 0 0 0 0 0 0 0
OS2TypoAscent: 910
OS2TypoAOffset: 0
OS2TypoDescent: -267
OS2TypoDOffset: 0
OS2TypoLinegap: 0
OS2WinAscent: 910
OS2WinAOffset: 0
OS2WinDescent: 267
OS2WinDOffset: 0
HheadAscent: 910
HheadAOffset: 0
HheadDescent: -267
HheadDOffset: 0
OS2SubXSize: 650
OS2SubYSize: 600
OS2SubXOff: 0
OS2SubYOff: 75
OS2SupXSize: 650
OS2SupYSize: 600
OS2SupXOff: 0
OS2SupYOff: 350
OS2StrikeYSize: 50
OS2StrikeYPos: 295
OS2Vendor: 'pyrs'
OS2CodePages: 20000093.00000000
OS2UnicodeRanges: a000002f.0000004a.00000000.00000000
Lookup: 258 0 0 "'kern' Horizontal Kerning in Latin lookup 0"  {"'kern' Horizontal Kerning in Latin lookup 0 subtable"  } ['kern' ('latn' <'dflt' > ) ]
DEI: 91125
TtTable: prep
PUSHW_1
 511
SCANCTRL
PUSHB_1
 4
SCANTYPE
EndTTInstrs
ShortTable: maxp 16
  1
  0
  342
  83
  7
  0
  0
  2
  0
  1
  1
  0
  64
  0
  0
  0
EndShort
LangName: 1033 "" "" "" "Philatype: Merge One: 2012" "" "Version 1.001" "" "Merge is a trademark of Kosal Sen, Philatype." "Philatype" "Kosal Sen" "" "http://www.philatype.com" "http://www.philatype.com" "This Font Software is licensed under the SIL Open Font License, Version 1.1. This license is available with a FAQ at: http://scripts.sil.org/OFL" "http://scripts.sil.org/OFL" 
GaspTable: 1 65535 15 1
Encoding: UnicodeBmp
UnicodeInterp: none
NameList: AGL For New Fonts
DisplaySize: -24
AntiAlias: 1
FitToEm: 1

StartChar: exclam
Encoding: 33 33 4
Width: 261
GlyphClass: 2
Flags: W
LayerCount: 2
Fore
SplineSet
134 205 m 2,0,-1
 129 205 l 2,1,2
 96 205 96 205 96 240 c 1,3,-1
 76 631 l 1,4,5
 76 679 76 679 123 679 c 2,6,-1
 139 679 l 2,7,8
 186 679 186 679 186 631 c 1,9,-1
 167 240 l 2,10,11
 166 205 166 205 134 205 c 2,0,-1
84 104 m 128,-1,13
 103 122 103 122 130.5 122 c 128,-1,14
 158 122 158 122 177 104 c 128,-1,15
 196 86 196 86 196 57 c 128,-1,16
 196 28 196 28 177 10 c 128,-1,17
 158 -8 158 -8 130.5 -8 c 128,-1,18
 103 -8 103 -8 84 10 c 128,-1,19
 65 28 65 28 65 57 c 128,-1,12
 65 86 65 86 84 104 c 128,-1,13
EndSplineSet
EndChar

StartChar: quotedbl
Encoding: 34 34 5
Width: 328
GlyphClass: 2
Flags: W
LayerCount: 2
Fore
SplineSet
103 488 m 2,0,-1
 93 488 l 2,1,2
 72 488 72 488 69 514 c 2,3,-1
 55 664 l 2,4,5
 55 667 55 667 55 670 c 0,6,7
 55 695 55 695 81 695 c 2,8,-1
 114 695 l 2,9,10
 127 695 127 695 135 686.5 c 128,-1,11
 143 678 143 678 141 664 c 2,12,-1
 127 514 l 2,13,14
 124 488 124 488 103 488 c 2,0,-1
237 488 m 2,16,-1
 227 488 l 2,17,18
 206 488 206 488 203 514 c 2,19,-1
 189 664 l 2,20,21
 189 667 189 667 189 670 c 0,22,23
 189 695 189 695 215 695 c 2,24,-1
 248 695 l 2,25,26
 261 695 261 695 268 687.5 c 128,-1,27
 275 680 275 680 275 673.5 c 128,-1,28
 275 667 275 667 275 664 c 2,29,-1
 261 514 l 2,30,15
 258 488 258 488 237 488 c 2,16,-1
EndSplineSet
EndChar

StartChar: numbersign
Encoding: 35 35 6
Width: 688
GlyphClass: 2
Flags: W
LayerCount: 2
Fore
SplineSet
126 0 m 2,0,-1
 120 0 l 2,1,2
 88 0 88 0 88 23 c 0,3,4
 88 35 88 35 130 168 c 1,5,-1
 49 168 l 2,6,7
 10 168 10 168 10 204.5 c 128,-1,8
 10 241 10 241 48 242 c 1,9,-1
 154 242 l 1,10,11
 162 265 162 265 185.5 341 c 128,-1,12
 209 417 209 417 212 426 c 1,13,-1
 125 426 l 2,14,15
 86 426 86 426 86 465 c 0,16,17
 86 499 86 499 125 502 c 1,18,-1
 237 502 l 1,19,20
 256 574 256 574 282 646 c 0,21,22
 293 678 293 678 328 678 c 2,23,-1
 334 678 l 2,24,25
 367 678 367 678 367 657.5 c 128,-1,26
 367 637 367 637 320 502 c 1,27,-1
 461 502 l 1,28,29
 491 595 491 595 508 646 c 0,30,31
 519 678 519 678 554 678 c 2,32,-1
 559 678 l 2,33,34
 592 678 592 678 592 655 c 0,35,36
 592 654 592 654 545 502 c 1,37,-1
 634 502 l 2,38,39
 673 502 673 502 673 464.5 c 128,-1,40
 673 427 673 427 634 426 c 1,41,-1
 522 426 l 1,42,43
 479 294 479 294 463 242 c 1,44,-1
 557 242 l 2,45,46
 595 242 595 242 595 205 c 0,47,48
 595 171 595 171 557 168 c 1,49,-1
 439 168 l 1,50,51
 434 153 434 153 418 99 c 128,-1,52
 402 45 402 45 397 31 c 0,53,54
 386 0 386 0 351 0 c 2,55,-1
 346 0 l 2,56,57
 312 0 312 0 312 23 c 0,58,59
 312 30 312 30 315 39 c 2,60,-1
 356 168 l 1,61,-1
 215 168 l 1,62,63
 189 84 189 84 171 32 c 0,64,65
 160 0 160 0 126 0 c 2,0,-1
297 426 m 1,66,-1
 238 242 l 1,67,-1
 379 242 l 1,68,69
 386 266 386 266 410.5 342 c 128,-1,70
 435 418 435 418 438 426 c 1,71,-1
 297 426 l 1,66,-1
EndSplineSet
EndChar

StartChar: dollar
Encoding: 36 36 7
Width: 594
GlyphClass: 2
Flags: W
LayerCount: 2
Fore
SplineSet
296 739 m 2,0,1
 258 739 258 739 258 704 c 2,2,-1
 258 373 l 1,3,-1
 340 373 l 1,4,-1
 340 704 l 2,5,6
 340 739 340 739 302 739 c 2,7,-1
 296 739 l 2,0,1
258 335 m 1,8,-1
 340 335 l 1,9,-1
 340 -26 l 2,10,11
 340 -46 340 -46 331 -54.5 c 128,-1,12
 322 -63 322 -63 302 -63 c 2,13,-1
 296 -63 l 2,14,15
 275 -63 275 -63 266.5 -55 c 128,-1,16
 258 -47 258 -47 258 -26 c 2,17,-1
 258 335 l 1,8,-1
129 632 m 128,-1,19
 197 686 197 686 296.5 686 c 128,-1,20
 396 686 396 686 449 661.5 c 128,-1,21
 502 637 502 637 502 601 c 128,-1,22
 502 565 502 565 458 556 c 1,23,24
 420 613 420 613 305 613 c 0,25,26
 237 613 237 613 194 581.5 c 128,-1,27
 151 550 151 550 151 505 c 128,-1,28
 151 460 151 460 186 436 c 128,-1,29
 221 412 221 412 288.5 394.5 c 128,-1,30
 356 377 356 377 392.5 363 c 128,-1,31
 429 349 429 349 466 326 c 0,32,33
 538 282 538 282 538 193.5 c 128,-1,34
 538 105 538 105 466 48.5 c 128,-1,35
 394 -8 394 -8 286 -8 c 128,-1,36
 178 -8 178 -8 117.5 20.5 c 128,-1,37
 57 49 57 49 57 88.5 c 128,-1,38
 57 128 57 128 108 141 c 1,39,40
 145 66 145 66 275 66 c 0,41,42
 358 66 358 66 404.5 99.5 c 128,-1,43
 451 133 451 133 451 185.5 c 128,-1,44
 451 238 451 238 404.5 266 c 128,-1,45
 358 294 358 294 259.5 318.5 c 128,-1,46
 161 343 161 343 111 385 c 128,-1,47
 61 427 61 427 61 502.5 c 128,-1,18
 61 578 61 578 129 632 c 128,-1,19
EndSplineSet
EndChar

StartChar: percent
Encoding: 37 37 8
Width: 735
GlyphClass: 2
Flags: W
LayerCount: 2
Fore
SplineSet
550 275 m 128,-1,1
 606 275 606 275 645.5 239 c 128,-1,2
 685 203 685 203 685 137.5 c 128,-1,3
 685 72 685 72 645.5 36 c 128,-1,4
 606 0 606 0 550 0 c 128,-1,5
 494 0 494 0 454 36 c 128,-1,6
 414 72 414 72 414 137.5 c 128,-1,7
 414 203 414 203 454 239 c 128,-1,0
 494 275 494 275 550 275 c 128,-1,1
550 218 m 128,-1,9
 518 218 518 218 497 197 c 128,-1,10
 476 176 476 176 476 138 c 128,-1,11
 476 100 476 100 497 78.5 c 128,-1,12
 518 57 518 57 550 57 c 128,-1,13
 582 57 582 57 603 78.5 c 128,-1,14
 624 100 624 100 624 138 c 128,-1,15
 624 176 624 176 603 197 c 128,-1,8
 582 218 582 218 550 218 c 128,-1,9
186 681 m 128,-1,17
 242 681 242 681 281.5 645 c 128,-1,18
 321 609 321 609 321 543.5 c 128,-1,19
 321 478 321 478 281.5 442 c 128,-1,20
 242 406 242 406 186 406 c 128,-1,21
 130 406 130 406 90 442 c 128,-1,22
 50 478 50 478 50 543.5 c 128,-1,23
 50 609 50 609 90 645 c 128,-1,16
 130 681 130 681 186 681 c 128,-1,17
186 624 m 128,-1,25
 154 624 154 624 133 603 c 128,-1,26
 112 582 112 582 112 544 c 128,-1,27
 112 506 112 506 133 484.5 c 128,-1,28
 154 463 154 463 186 463 c 128,-1,29
 218 463 218 463 239 484.5 c 128,-1,30
 260 506 260 506 260 544 c 128,-1,31
 260 582 260 582 239 603 c 128,-1,24
 218 624 218 624 186 624 c 128,-1,25
606 679 m 2,32,33
 619 695 619 695 631.5 695 c 128,-1,34
 644 695 644 695 657 685 c 128,-1,35
 670 675 670 675 670 662.5 c 128,-1,36
 670 650 670 650 658 637 c 2,37,-1
 144 20 l 2,38,39
 130 3 130 3 117.5 3 c 128,-1,40
 105 3 105 3 93.5 13 c 128,-1,41
 82 23 82 23 82 35.5 c 128,-1,42
 82 48 82 48 92 61 c 2,43,-1
 606 679 l 2,32,33
EndSplineSet
EndChar

StartChar: ampersand
Encoding: 38 38 9
Width: 655
GlyphClass: 2
Flags: W
LayerCount: 2
Fore
SplineSet
504 335 m 1,0,-1
 510 338 l 1,1,2
 574 304 574 304 574 229 c 0,3,4
 574 167 574 167 546 115 c 1,5,6
 586 73 586 73 601 55.5 c 128,-1,7
 616 38 616 38 622 31 c 128,-1,8
 628 24 628 24 628 15 c 0,9,10
 628 0 628 0 607 0 c 2,11,-1
 577 0 l 2,12,13
 558 0 558 0 532.5 25.5 c 128,-1,14
 507 51 507 51 500 57 c 1,15,16
 431 -13 431 -13 312 -13 c 128,-1,17
 193 -13 193 -13 127.5 44 c 128,-1,18
 62 101 62 101 62 178 c 0,19,20
 62 239 62 239 97.5 284 c 128,-1,21
 133 329 133 329 207 370 c 1,22,23
 160 417 160 417 139.5 449.5 c 128,-1,24
 119 482 119 482 119 525 c 0,25,26
 119 592 119 592 165.5 640 c 128,-1,27
 212 688 212 688 289 688 c 128,-1,28
 366 688 366 688 415 639.5 c 128,-1,29
 464 591 464 591 464 529.5 c 128,-1,30
 464 468 464 468 425.5 430 c 128,-1,31
 387 392 387 392 314 355 c 1,32,33
 492 165 492 165 496 161 c 1,34,35
 518 202 518 202 518 244.5 c 128,-1,36
 518 287 518 287 504 335 c 1,0,-1
454 107 m 1,37,38
 387 178 387 178 249 320 c 1,39,40
 143 272 143 272 143 178 c 0,41,42
 143 128 143 128 187 90 c 128,-1,43
 231 52 231 52 306 52 c 0,44,45
 404 52 404 52 454 107 c 1,37,38
199 525 m 0,46,47
 199 472 199 472 275 403 c 1,48,49
 334 432 334 432 361.5 458 c 128,-1,50
 389 484 389 484 389 523.5 c 128,-1,51
 389 563 389 563 361.5 589.5 c 128,-1,52
 334 616 334 616 291 616 c 128,-1,53
 248 616 248 616 223.5 591 c 128,-1,54
 199 566 199 566 199 525 c 0,46,47
EndSplineSet
EndChar

StartChar: quotesingle
Encoding: 39 39 10
Width: 196
GlyphClass: 2
Flags: W
LayerCount: 2
Fore
SplineSet
103 488 m 2,0,-1
 93 488 l 2,1,2
 72 488 72 488 69 514 c 2,3,-1
 55 664 l 2,4,5
 55 667 55 667 55 670 c 0,6,7
 55 695 55 695 81 695 c 2,8,-1
 114 695 l 2,9,10
 127 695 127 695 134 687.5 c 128,-1,11
 141 680 141 680 141 673.5 c 128,-1,12
 141 667 141 667 141 664 c 2,13,-1
 127 514 l 2,14,15
 124 488 124 488 103 488 c 2,0,-1
EndSplineSet
EndChar

StartChar: parenleft
Encoding: 40 40 11
Width: 349
GlyphClass: 2
Flags: W
LayerCount: 2
Fore
SplineSet
301 -155 m 1,0,1
 314 -165 314 -165 314 -183.5 c 128,-1,2
 314 -202 314 -202 302 -214 c 128,-1,3
 290 -226 290 -226 272 -226 c 128,-1,4
 254 -226 254 -226 225 -195 c 0,5,6
 72 -37 72 -37 72 212 c 2,7,-1
 72 264 l 2,8,9
 72 399 72 399 117.5 508.5 c 128,-1,10
 163 618 163 618 243 691 c 1,11,12
 257 702 257 702 273.5 702 c 128,-1,13
 290 702 290 702 302 690 c 128,-1,14
 314 678 314 678 314 660.5 c 128,-1,15
 314 643 314 643 301 631 c 0,16,17
 161 499 161 499 161 264 c 2,18,-1
 161 212 l 2,19,20
 161 -23 161 -23 301 -155 c 1,0,1
EndSplineSet
EndChar

StartChar: parenright
Encoding: 41 41 12
Width: 349
GlyphClass: 2
Flags: W
LayerCount: 2
Fore
SplineSet
187 212 m 2,0,-1
 187 264 l 2,1,2
 187 501 187 501 47 631 c 0,3,4
 34 644 34 644 34 661.5 c 128,-1,5
 34 679 34 679 46 690.5 c 128,-1,6
 58 702 58 702 70 702 c 128,-1,7
 82 702 82 702 87.5 700.5 c 128,-1,8
 93 699 93 699 98.5 695 c 128,-1,9
 104 691 104 691 106.5 689 c 128,-1,10
 109 687 109 687 115.5 680 c 128,-1,11
 122 673 122 673 124 671 c 0,12,13
 196 598 196 598 236.5 494 c 128,-1,14
 277 390 277 390 277 264 c 2,15,-1
 277 212 l 2,16,17
 277 -37 277 -37 124 -195 c 0,18,19
 93 -226 93 -226 75.5 -226 c 128,-1,20
 58 -226 58 -226 46 -214 c 128,-1,21
 34 -202 34 -202 34 -184 c 128,-1,22
 34 -166 34 -166 47 -155 c 0,23,24
 187 -25 187 -25 187 212 c 2,0,-1
EndSplineSet
EndChar

StartChar: asterisk
Encoding: 42 42 13
Width: 504
GlyphClass: 2
Flags: W
LayerCount: 2
Fore
SplineSet
77 599.5 m 128,-1,1
 89 613 89 613 103 613 c 128,-1,2
 117 613 117 613 216 547 c 1,3,-1
 216 665 l 2,4,5
 216 700 216 700 252.5 700 c 128,-1,6
 289 700 289 700 289 665 c 2,7,-1
 289 547 l 1,8,9
 292 549 292 549 310.5 561.5 c 128,-1,10
 329 574 329 574 338.5 580 c 128,-1,11
 348 586 348 586 363 596 c 0,12,13
 391 613 391 613 403.5 613 c 128,-1,14
 416 613 416 613 427.5 599.5 c 128,-1,15
 439 586 439 586 439 576 c 128,-1,16
 439 566 439 566 430.5 557 c 128,-1,17
 422 548 422 548 405 537 c 128,-1,18
 388 526 388 526 373.5 518.5 c 128,-1,19
 359 511 359 511 336.5 499 c 128,-1,20
 314 487 314 487 306 483 c 1,21,22
 313 475 313 475 346 444 c 0,23,24
 412 381 412 381 412 361 c 0,25,26
 412 350 412 350 399.5 337.5 c 128,-1,27
 387 325 387 325 377 325 c 128,-1,28
 367 325 367 325 355 332.5 c 128,-1,29
 343 340 343 340 328 355 c 128,-1,30
 313 370 313 370 301.5 382 c 128,-1,31
 290 394 290 394 273.5 413 c 128,-1,32
 257 432 257 432 252 437 c 1,33,34
 178 352 178 352 146 333 c 0,35,36
 135 326 135 326 124.5 326 c 128,-1,37
 114 326 114 326 102.5 339 c 128,-1,38
 91 352 91 352 91 362.5 c 128,-1,39
 91 373 91 373 107.5 392.5 c 128,-1,40
 124 412 124 412 158.5 445 c 128,-1,41
 193 478 193 478 198 483 c 1,42,43
 193 485 193 485 181 491.5 c 128,-1,44
 169 498 169 498 162 501.5 c 128,-1,45
 155 505 155 505 142.5 512 c 128,-1,46
 130 519 130 519 122 524 c 2,47,-1
 105 534 l 2,48,49
 65 558 65 558 65 574 c 0,50,0
 65 586 65 586 77 599.5 c 128,-1,1
EndSplineSet
EndChar

StartChar: plus
Encoding: 43 43 14
Width: 567
GlyphClass: 2
Flags: W
LayerCount: 2
Fore
SplineSet
287 486 m 128,-1,1
 320 486 320 486 320 449 c 2,2,-1
 320 282 l 1,3,-1
 490 282 l 2,4,5
 527 282 527 282 527 249 c 128,-1,6
 527 216 527 216 490 216 c 2,7,-1
 320 216 l 1,8,-1
 320 46 l 2,9,10
 320 9 320 9 287 9 c 128,-1,11
 254 9 254 9 254 46 c 2,12,-1
 254 216 l 1,13,-1
 87 216 l 2,14,15
 50 216 50 216 50 249 c 128,-1,16
 50 282 50 282 87 282 c 2,17,-1
 254 282 l 1,18,-1
 254 449 l 2,19,0
 254 486 254 486 287 486 c 128,-1,1
EndSplineSet
EndChar

StartChar: comma
Encoding: 44 44 15
Width: 261
GlyphClass: 2
Flags: W
LayerCount: 2
Fore
SplineSet
78 21 m 128,-1,1
 65 37 65 37 65 61.5 c 128,-1,2
 65 86 65 86 84 104 c 128,-1,3
 103 122 103 122 131.5 122 c 128,-1,4
 160 122 160 122 181.5 99.5 c 128,-1,5
 203 77 203 77 203 38 c 0,6,7
 203 -26 203 -26 170 -71.5 c 128,-1,8
 137 -117 137 -117 91 -117 c 0,9,10
 58 -117 58 -117 58 -93 c 1,11,12
 91 -85 91 -85 112.5 -57.5 c 128,-1,13
 134 -30 134 -30 134 9 c 1,14,15
 126 5 126 5 108.5 5 c 128,-1,0
 91 5 91 5 78 21 c 128,-1,1
EndSplineSet
EndChar

StartChar: hyphen
Encoding: 45 45 16
Width: 440
GlyphClass: 2
Flags: W
LayerCount: 2
Fore
SplineSet
87 327 m 2,0,-1
 353 327 l 2,1,2
 390 327 390 327 390 294 c 128,-1,3
 390 261 390 261 353 261 c 2,4,-1
 87 261 l 2,5,6
 50 261 50 261 50 294 c 128,-1,7
 50 327 50 327 87 327 c 2,0,-1
EndSplineSet
EndChar

StartChar: period
Encoding: 46 46 17
Width: 261
GlyphClass: 2
Flags: W
LayerCount: 2
Fore
SplineSet
84 104 m 128,-1,1
 103 122 103 122 130.5 122 c 128,-1,2
 158 122 158 122 177 104 c 128,-1,3
 196 86 196 86 196 57 c 128,-1,4
 196 28 196 28 177 10 c 128,-1,5
 158 -8 158 -8 130.5 -8 c 128,-1,6
 103 -8 103 -8 84 10 c 128,-1,7
 65 28 65 28 65 57 c 128,-1,0
 65 86 65 86 84 104 c 128,-1,1
EndSplineSet
EndChar

StartChar: slash
Encoding: 47 47 18
Width: 377
GlyphClass: 2
Flags: W
LayerCount: 2
Fore
SplineSet
348 683 m 0,0,1
 348 675 348 675 344 664 c 2,2,-1
 97 17 l 2,3,4
 87 -9 87 -9 67 -9 c 0,5,6
 61 -9 61 -9 53 -6 c 0,7,8
 31 2 31 2 31 22 c 0,9,10
 31 30 31 30 35 40 c 2,11,-1
 281 687 l 2,12,13
 291 713 291 713 311 713 c 0,14,15
 318 713 318 713 326 710 c 0,16,17
 348 703 348 703 348 683 c 0,0,1
EndSplineSet
EndChar

StartChar: zero
Encoding: 48 48 19
Width: 690
GlyphClass: 2
Flags: W
LayerCount: 2
Fore
SplineSet
346 688 m 128,-1,1
 470 688 470 688 550 598.5 c 128,-1,2
 630 509 630 509 630 342.5 c 128,-1,3
 630 176 630 176 549.5 84 c 128,-1,4
 469 -8 469 -8 346 -8 c 128,-1,5
 223 -8 223 -8 141.5 84 c 128,-1,6
 60 176 60 176 60 342 c 128,-1,7
 60 508 60 508 141 598 c 128,-1,0
 222 688 222 688 346 688 c 128,-1,1
481.5 538.5 m 128,-1,9
 427 610 427 610 345 610 c 128,-1,10
 263 610 263 610 209.5 538.5 c 128,-1,11
 156 467 156 467 156 339.5 c 128,-1,12
 156 212 156 212 206 140.5 c 128,-1,13
 256 69 256 69 345.5 69 c 128,-1,14
 435 69 435 69 485.5 140.5 c 128,-1,15
 536 212 536 212 536 339.5 c 128,-1,8
 536 467 536 467 481.5 538.5 c 128,-1,9
EndSplineSet
EndChar

StartChar: one
Encoding: 49 49 20
Width: 326
GlyphClass: 2
Flags: W
LayerCount: 2
Fore
SplineSet
111 679 m 2,0,-1
 214 679 l 2,1,2
 256 679 256 679 256 643 c 2,3,-1
 256 38 l 2,4,5
 256 0 256 0 214 0 c 2,6,-1
 207 0 l 2,7,8
 165 0 165 0 165 38 c 2,9,-1
 165 604 l 1,10,-1
 111 604 l 2,11,12
 70 604 70 604 70 641.5 c 128,-1,13
 70 679 70 679 111 679 c 2,0,-1
EndSplineSet
EndChar

StartChar: two
Encoding: 50 50 21
Width: 555
GlyphClass: 2
Flags: W
LayerCount: 2
Fore
SplineSet
121 642 m 128,-1,1
 178 688 178 688 278 688 c 128,-1,2
 378 688 378 688 433 635.5 c 128,-1,3
 488 583 488 583 488 506 c 128,-1,4
 488 429 488 429 437 363.5 c 128,-1,5
 386 298 386 298 209 126 c 0,6,7
 175 93 175 93 157 75 c 1,8,-1
 462 75 l 2,9,10
 504 75 504 75 504 37.5 c 128,-1,11
 504 0 504 0 462 0 c 2,12,-1
 91 0 l 2,13,14
 50 0 50 0 50 43 c 0,15,16
 50 79 50 79 82 103 c 1,17,18
 280 291 280 291 343 364.5 c 128,-1,19
 406 438 406 438 406 492.5 c 128,-1,20
 406 547 406 547 368.5 579.5 c 128,-1,21
 331 612 331 612 265.5 612 c 128,-1,22
 200 612 200 612 163 572 c 128,-1,23
 126 532 126 532 120 487 c 1,24,25
 64 487 64 487 64 535 c 0,26,0
 64 596 64 596 121 642 c 128,-1,1
EndSplineSet
EndChar

StartChar: three
Encoding: 51 51 22
Width: 575
GlyphClass: 2
Flags: W
LayerCount: 2
Fore
SplineSet
122 644.5 m 128,-1,1
 174 688 174 688 283 688 c 128,-1,2
 392 688 392 688 444 637 c 128,-1,3
 496 586 496 586 496 524 c 128,-1,4
 496 462 496 462 463.5 419.5 c 128,-1,5
 431 377 431 377 381 363 c 1,6,7
 443 350 443 350 487 309 c 128,-1,8
 531 268 531 268 531 200 c 0,9,10
 531 108 531 108 452.5 50 c 128,-1,11
 374 -8 374 -8 267.5 -8 c 128,-1,12
 161 -8 161 -8 100.5 20 c 128,-1,13
 40 48 40 48 40 89 c 128,-1,14
 40 130 40 130 85 143 c 1,15,16
 114 67 114 67 258 67 c 0,17,18
 333 67 333 67 390 101 c 128,-1,19
 447 135 447 135 447 194.5 c 128,-1,20
 447 254 447 254 394 283.5 c 128,-1,21
 341 313 341 313 267 313 c 2,22,-1
 225 313 l 2,23,24
 180 313 180 313 180 349 c 0,25,26
 180 388 180 388 225 388 c 2,27,-1
 267 388 l 2,28,29
 329 388 329 388 370.5 419.5 c 128,-1,30
 412 451 412 451 412 499.5 c 128,-1,31
 412 548 412 548 377.5 580.5 c 128,-1,32
 343 613 343 613 278.5 613 c 128,-1,33
 214 613 214 613 175.5 586 c 128,-1,34
 137 559 137 559 123 513 c 1,35,36
 70 513 70 513 70 557 c 128,-1,0
 70 601 70 601 122 644.5 c 128,-1,1
EndSplineSet
EndChar

StartChar: four
Encoding: 52 52 23
Width: 639
GlyphClass: 2
Flags: W
LayerCount: 2
Fore
SplineSet
458 682 m 2,0,-1
 460 682 l 2,1,2
 497 682 497 682 497 641 c 2,3,-1
 497 248 l 1,4,-1
 549 248 l 2,5,6
 589 248 589 248 589 210.5 c 128,-1,7
 589 173 589 173 549 173 c 2,8,-1
 497 173 l 1,9,-1
 497 37 l 2,10,11
 497 17 497 17 487.5 8.5 c 128,-1,12
 478 0 478 0 455 0 c 2,13,-1
 449 0 l 2,14,15
 427 0 427 0 418.5 8.5 c 128,-1,16
 410 17 410 17 410 37 c 2,17,-1
 410 173 l 1,18,-1
 86 173 l 2,19,20
 50 173 50 173 50 203 c 0,21,22
 50 223 50 223 65 243 c 0,23,24
 184 392 184 392 376 617 c 1,25,26
 380 624 380 624 390 635 c 2,27,-1
 407 654 l 2,28,29
 432 682 432 682 458 682 c 2,0,-1
410 248 m 1,30,-1
 410 550 l 1,31,32
 378 512 378 512 290 406.5 c 128,-1,33
 202 301 202 301 157 248 c 1,34,-1
 410 248 l 1,30,-1
EndSplineSet
EndChar

StartChar: five
Encoding: 53 53 24
Width: 561
GlyphClass: 2
Flags: W
LayerCount: 2
Fore
SplineSet
158 679 m 2,0,-1
 464 679 l 2,1,2
 504 679 504 679 504 641 c 128,-1,3
 504 603 504 603 464 603 c 2,4,-1
 188 603 l 1,5,6
 185 566 185 566 180 496 c 128,-1,7
 175 426 175 426 173 404 c 1,8,9
 221 418 221 418 293 418 c 0,10,11
 393 418 393 418 457 367 c 128,-1,12
 521 316 521 316 521 217 c 128,-1,13
 521 118 521 118 446 55 c 128,-1,14
 371 -8 371 -8 264.5 -8 c 128,-1,15
 158 -8 158 -8 101 18.5 c 128,-1,16
 44 45 44 45 44 93 c 0,17,18
 44 129 44 129 86 143 c 1,19,20
 99 104 99 104 148.5 85.5 c 128,-1,21
 198 67 198 67 268.5 67 c 128,-1,22
 339 67 339 67 391 106 c 128,-1,23
 443 145 443 145 443 212.5 c 128,-1,24
 443 280 443 280 397.5 312 c 128,-1,25
 352 344 352 344 290 344 c 128,-1,26
 228 344 228 344 157 323 c 0,27,28
 148 320 148 320 134.5 320 c 128,-1,29
 121 320 121 320 108 332.5 c 128,-1,30
 95 345 95 345 95 365 c 2,31,-1
 95 370 l 1,32,-1
 117 642 l 2,33,34
 119 662 119 662 127.5 670.5 c 128,-1,35
 136 679 136 679 158 679 c 2,0,-1
EndSplineSet
EndChar

StartChar: six
Encoding: 54 54 25
Width: 628
GlyphClass: 2
Flags: W
LayerCount: 2
Fore
SplineSet
216 653.5 m 128,-1,1
 276 688 276 688 359 688 c 128,-1,2
 442 688 442 688 491.5 653.5 c 128,-1,3
 541 619 541 619 541 585 c 128,-1,4
 541 551 541 551 498 540 c 1,5,6
 463 595 463 595 414 609 c 0,7,8
 388 616 388 616 344 616 c 128,-1,9
 300 616 300 616 257.5 590 c 128,-1,10
 215 564 215 564 191 522 c 0,11,12
 143 438 143 438 143 338 c 1,13,14
 172 379 172 379 226.5 406 c 128,-1,15
 281 433 281 433 342 433 c 0,16,17
 459 433 459 433 513.5 375 c 128,-1,18
 568 317 568 317 568 222.5 c 128,-1,19
 568 128 568 128 505.5 60 c 128,-1,20
 443 -8 443 -8 317 -8 c 128,-1,21
 191 -8 191 -8 125.5 75 c 128,-1,22
 60 158 60 158 60 304 c 0,23,24
 60 448 60 448 124 561 c 0,25,0
 156 619 156 619 216 653.5 c 128,-1,1
321 362 m 0,26,27
 249 362 249 362 200.5 323 c 128,-1,28
 152 284 152 284 152 230 c 0,29,30
 152 177 152 177 190 125 c 0,31,32
 209 99 209 99 243.5 82.5 c 128,-1,33
 278 66 278 66 321 66 c 0,34,35
 407 66 407 66 446 109.5 c 128,-1,36
 485 153 485 153 485 221 c 0,37,38
 485 362 485 362 321 362 c 0,26,27
EndSplineSet
EndChar

StartChar: seven
Encoding: 55 55 26
Width: 559
GlyphClass: 2
Flags: W
LayerCount: 2
Fore
SplineSet
80 679 m 2,0,-1
 478 679 l 2,1,2
 519 679 519 679 519 640 c 0,3,4
 519 623 519 623 483 554 c 0,5,6
 335 262 335 262 218 29 c 0,7,8
 203 0 203 0 167 0 c 2,9,-1
 152 0 l 2,10,11
 120 0 120 0 120 23 c 0,12,13
 120 41 120 41 132 61 c 0,14,15
 156 101 156 101 413 602 c 1,16,-1
 80 602 l 2,17,18
 40 602 40 602 40 640.5 c 128,-1,19
 40 679 40 679 80 679 c 2,0,-1
EndSplineSet
EndChar

StartChar: eight
Encoding: 56 56 27
Width: 606
GlyphClass: 2
Flags: W
LayerCount: 2
Fore
SplineSet
140.5 631.5 m 128,-1,1
 207 683 207 683 304.5 683 c 128,-1,2
 402 683 402 683 466 631.5 c 128,-1,3
 530 580 530 580 530 501 c 0,4,5
 530 398 530 398 416 357 c 1,6,7
 474 337 474 337 515 295 c 128,-1,8
 556 253 556 253 556 187 c 0,9,10
 556 100 556 100 488 45.5 c 128,-1,11
 420 -9 420 -9 304.5 -9 c 128,-1,12
 189 -9 189 -9 119.5 45.5 c 128,-1,13
 50 100 50 100 50 187 c 0,14,15
 50 253 50 253 90 295.5 c 128,-1,16
 130 338 130 338 187 357 c 1,17,18
 74 399 74 399 74 501 c 0,19,0
 74 580 74 580 140.5 631.5 c 128,-1,1
403 579.5 m 128,-1,21
 365 612 365 612 305.5 612 c 128,-1,22
 246 612 246 612 206 579.5 c 128,-1,23
 166 547 166 547 166 495.5 c 128,-1,24
 166 444 166 444 201.5 414 c 128,-1,25
 237 384 237 384 304 384 c 128,-1,26
 371 384 371 384 406 414.5 c 128,-1,27
 441 445 441 445 441 496 c 128,-1,20
 441 547 441 547 403 579.5 c 128,-1,21
420.5 283.5 m 128,-1,29
 376 319 376 319 304.5 319 c 128,-1,30
 233 319 233 319 187 283.5 c 128,-1,31
 141 248 141 248 141 189.5 c 128,-1,32
 141 131 141 131 186.5 96 c 128,-1,33
 232 61 232 61 304 61 c 128,-1,34
 376 61 376 61 420.5 96 c 128,-1,35
 465 131 465 131 465 189.5 c 128,-1,28
 465 248 465 248 420.5 283.5 c 128,-1,29
EndSplineSet
EndChar

StartChar: nine
Encoding: 57 57 28
Width: 628
GlyphClass: 2
Flags: W
LayerCount: 2
Fore
SplineSet
128.5 618 m 128,-1,1
 197 688 197 688 314.5 688 c 128,-1,2
 432 688 432 688 500 604 c 128,-1,3
 568 520 568 520 568 376 c 256,4,5
 568 232 568 232 504 119 c 0,6,7
 472 61 472 61 412 26.5 c 128,-1,8
 352 -8 352 -8 269 -8 c 128,-1,9
 186 -8 186 -8 136.5 26.5 c 128,-1,10
 87 61 87 61 87 95 c 128,-1,11
 87 129 87 129 130 140 c 1,12,13
 165 85 165 85 214 71 c 0,14,15
 240 64 240 64 284 64 c 128,-1,16
 328 64 328 64 370.5 90 c 128,-1,17
 413 116 413 116 437 158 c 0,18,19
 485 242 485 242 485 342 c 1,20,21
 456 301 456 301 401.5 274 c 128,-1,22
 347 247 347 247 286 247 c 0,23,24
 169 247 169 247 114.5 305 c 128,-1,25
 60 363 60 363 60 455.5 c 128,-1,0
 60 548 60 548 128.5 618 c 128,-1,1
307 614 m 0,26,27
 230 614 230 614 186.5 569 c 128,-1,28
 143 524 143 524 143 459 c 0,29,30
 143 318 143 318 307 318 c 0,31,32
 379 318 379 318 427.5 357 c 128,-1,33
 476 396 476 396 476 450 c 0,34,35
 476 503 476 503 438 555 c 0,36,37
 419 581 419 581 384.5 597.5 c 128,-1,38
 350 614 350 614 307 614 c 0,26,27
EndSplineSet
EndChar

StartChar: colon
Encoding: 58 58 29
Width: 261
GlyphClass: 2
Flags: W
LayerCount: 2
Fore
SplineSet
84 104 m 128,-1,1
 103 122 103 122 130.5 122 c 128,-1,2
 158 122 158 122 177 104 c 128,-1,3
 196 86 196 86 196 57 c 128,-1,4
 196 28 196 28 177 10 c 128,-1,5
 158 -8 158 -8 130.5 -8 c 128,-1,6
 103 -8 103 -8 84 10 c 128,-1,7
 65 28 65 28 65 57 c 128,-1,0
 65 86 65 86 84 104 c 128,-1,1
84 442 m 128,-1,9
 103 460 103 460 130.5 460 c 128,-1,10
 158 460 158 460 177 442 c 128,-1,11
 196 424 196 424 196 395 c 128,-1,12
 196 366 196 366 177 348 c 128,-1,13
 158 330 158 330 130.5 330 c 128,-1,14
 103 330 103 330 84 348 c 128,-1,15
 65 366 65 366 65 395 c 128,-1,8
 65 424 65 424 84 442 c 128,-1,9
EndSplineSet
EndChar

StartChar: semicolon
Encoding: 59 59 30
Width: 261
GlyphClass: 2
Flags: W
LayerCount: 2
Fore
SplineSet
78 21 m 128,-1,1
 65 37 65 37 65 61.5 c 128,-1,2
 65 86 65 86 84 104 c 128,-1,3
 103 122 103 122 131.5 122 c 128,-1,4
 160 122 160 122 181.5 99.5 c 128,-1,5
 203 77 203 77 203 38 c 0,6,7
 203 -26 203 -26 170 -71.5 c 128,-1,8
 137 -117 137 -117 91 -117 c 0,9,10
 58 -117 58 -117 58 -93 c 1,11,12
 91 -85 91 -85 112.5 -57.5 c 128,-1,13
 134 -30 134 -30 134 9 c 1,14,15
 126 5 126 5 108.5 5 c 128,-1,0
 91 5 91 5 78 21 c 128,-1,1
84 441 m 128,-1,17
 103 459 103 459 130.5 459 c 128,-1,18
 158 459 158 459 177 441 c 128,-1,19
 196 423 196 423 196 394 c 128,-1,20
 196 365 196 365 177 347 c 128,-1,21
 158 329 158 329 130.5 329 c 128,-1,22
 103 329 103 329 84 347 c 128,-1,23
 65 365 65 365 65 394 c 128,-1,16
 65 423 65 423 84 441 c 128,-1,17
EndSplineSet
EndChar

StartChar: less
Encoding: 60 60 31
Width: 552
GlyphClass: 2
Flags: W
LayerCount: 2
Fore
SplineSet
461 532 m 0,0,1
 484 532 484 532 484 498 c 2,2,-1
 484 493 l 2,3,4
 484 461 484 461 453 450 c 0,5,6
 396 429 396 429 291 382 c 128,-1,7
 186 335 186 335 170 328 c 1,8,-1
 170 309 l 1,9,10
 400 210 400 210 454 187 c 0,11,12
 484 174 484 174 484 145 c 2,13,-1
 484 140 l 2,14,15
 484 106 484 106 460 106 c 0,16,17
 451 106 451 106 315 165.5 c 128,-1,18
 179 225 179 225 141.5 240.5 c 128,-1,19
 104 256 104 256 92 270.5 c 128,-1,20
 80 285 80 285 80 311 c 2,21,-1
 80 326 l 2,22,23
 80 353 80 353 91.5 366 c 128,-1,24
 103 379 103 379 143.5 397 c 128,-1,25
 184 415 184 415 419 518 c 0,26,27
 452 532 452 532 461 532 c 0,0,1
EndSplineSet
EndChar

StartChar: equal
Encoding: 61 61 32
Width: 527
GlyphClass: 2
Flags: W
LayerCount: 2
Fore
SplineSet
87 391 m 2,0,-1
 440 391 l 2,1,2
 477 391 477 391 477 358 c 128,-1,3
 477 325 477 325 440 325 c 2,4,-1
 87 325 l 2,5,6
 50 325 50 325 50 358 c 128,-1,7
 50 391 50 391 87 391 c 2,0,-1
87 214 m 2,8,-1
 440 214 l 2,9,10
 477 214 477 214 477 181 c 128,-1,11
 477 148 477 148 440 148 c 2,12,-1
 87 148 l 2,13,14
 50 148 50 148 50 181 c 128,-1,15
 50 214 50 214 87 214 c 2,8,-1
EndSplineSet
EndChar

StartChar: greater
Encoding: 62 62 33
Width: 553
GlyphClass: 2
Flags: W
LayerCount: 2
Fore
SplineSet
473 326 m 2,0,-1
 473 311 l 2,1,2
 473 284 473 284 461.5 270.5 c 128,-1,3
 450 257 450 257 412 240.5 c 128,-1,4
 374 224 374 224 278 182.5 c 128,-1,5
 182 141 182 141 141.5 123.5 c 128,-1,6
 101 106 101 106 92 106 c 0,7,8
 68 106 68 106 68 140 c 2,9,-1
 68 145 l 2,10,11
 68 173 68 173 99 187 c 0,12,13
 329 285 329 285 383 309 c 1,14,-1
 383 328 l 1,15,16
 332 350 332 350 236.5 391 c 128,-1,17
 141 432 141 432 100 450 c 1,18,19
 68 460 68 460 68 493 c 2,20,-1
 68 498 l 2,21,22
 68 532 68 532 91 532 c 0,23,24
 102 532 102 532 112 528 c 0,25,26
 365 416 365 416 407 398 c 128,-1,27
 449 380 449 380 461 365.5 c 128,-1,28
 473 351 473 351 473 326 c 2,0,-1
EndSplineSet
EndChar

StartChar: question
Encoding: 63 63 34
Width: 477
GlyphClass: 2
Flags: W
LayerCount: 2
Fore
SplineSet
248 263 m 2,0,-1
 248 251 l 2,1,2
 248 213 248 213 209 213 c 2,3,-1
 204 213 l 2,4,5
 164 213 164 213 164 251 c 2,6,-1
 164 263 l 2,7,8
 164 292 164 292 170.5 305.5 c 128,-1,9
 177 319 177 319 179.5 326 c 128,-1,10
 182 333 182 333 191.5 342.5 c 128,-1,11
 201 352 201 352 204.5 356.5 c 128,-1,12
 208 361 208 361 221.5 371 c 128,-1,13
 235 381 235 381 238 384 c 0,14,15
 249 391 249 391 277.5 410.5 c 128,-1,16
 306 430 306 430 319.5 440 c 128,-1,17
 333 450 333 450 345 468 c 128,-1,18
 357 486 357 486 357 505 c 0,19,20
 357 553 357 553 322.5 582 c 128,-1,21
 288 611 288 611 229 611 c 128,-1,22
 170 611 170 611 140 589.5 c 128,-1,23
 110 568 110 568 94 526 c 1,24,25
 71 526 71 526 55.5 538 c 128,-1,26
 40 550 40 550 40 569 c 0,27,28
 40 615 40 615 93 650 c 128,-1,29
 146 685 146 685 239.5 685 c 128,-1,30
 333 685 333 685 385 635 c 128,-1,31
 437 585 437 585 437 508 c 0,32,33
 437 469 437 469 417.5 437 c 128,-1,34
 398 405 398 405 370 384 c 128,-1,35
 342 363 342 363 314 344 c 0,36,37
 248 300 248 300 248 263 c 2,0,-1
159 104 m 128,-1,39
 178 122 178 122 205.5 122 c 128,-1,40
 233 122 233 122 252 104 c 128,-1,41
 271 86 271 86 271 57 c 128,-1,42
 271 28 271 28 252 10 c 128,-1,43
 233 -8 233 -8 205.5 -8 c 128,-1,44
 178 -8 178 -8 159 10 c 128,-1,45
 140 28 140 28 140 57 c 128,-1,38
 140 86 140 86 159 104 c 128,-1,39
EndSplineSet
EndChar

StartChar: at
Encoding: 64 64 35
Width: 773
GlyphClass: 2
Flags: W
LayerCount: 2
Fore
SplineSet
373 141 m 0,0,1
 298 141 298 141 252.5 190 c 128,-1,2
 207 239 207 239 207 327.5 c 128,-1,3
 207 416 207 416 256 463.5 c 128,-1,4
 305 511 305 511 374.5 511 c 128,-1,5
 444 511 444 511 490 495 c 128,-1,6
 536 479 536 479 536 442 c 2,7,-1
 536 252 l 2,8,9
 536 231 536 231 547.5 220 c 128,-1,10
 559 209 559 209 577 209 c 0,11,12
 642 209 642 209 642 336 c 128,-1,13
 642 463 642 463 567.5 535 c 128,-1,14
 493 607 493 607 390.5 607 c 128,-1,15
 288 607 288 607 213.5 535 c 128,-1,16
 139 463 139 463 139 332 c 128,-1,17
 139 201 139 201 208.5 127 c 128,-1,18
 278 53 278 53 378 53 c 0,19,20
 495 53 495 53 512 111 c 1,21,22
 546 106 546 106 546 72.5 c 128,-1,23
 546 39 546 39 502 11.5 c 128,-1,24
 458 -16 458 -16 376 -16 c 0,25,26
 240 -16 240 -16 149 76 c 128,-1,27
 58 168 58 168 58 332 c 0,28,29
 58 443 58 443 107 524.5 c 128,-1,30
 156 606 156 606 230 644 c 128,-1,31
 304 682 304 682 379 682 c 128,-1,32
 454 682 454 682 513 659.5 c 128,-1,33
 572 637 572 637 619 594.5 c 128,-1,34
 666 552 666 552 694.5 484 c 128,-1,35
 723 416 723 416 723 326 c 128,-1,36
 723 236 723 236 680.5 188 c 128,-1,37
 638 140 638 140 574 140 c 0,38,39
 536 140 536 140 510.5 155 c 128,-1,40
 485 170 485 170 476 185 c 1,41,42
 462 166 462 166 433.5 153.5 c 128,-1,43
 405 141 405 141 373 141 c 0,0,1
461 242 m 2,44,-1
 461 432 l 1,45,46
 429 445 429 445 383.5 445 c 128,-1,47
 338 445 338 445 310 416.5 c 128,-1,48
 282 388 282 388 282 326.5 c 128,-1,49
 282 265 282 265 309 235.5 c 128,-1,50
 336 206 336 206 383 206 c 0,51,52
 407 206 407 206 426 213.5 c 128,-1,53
 445 221 445 221 453 229 c 128,-1,54
 461 237 461 237 461 242 c 2,44,-1
EndSplineSet
EndChar

StartChar: A
Encoding: 65 65 36
Width: 687
GlyphClass: 2
Flags: W
LayerCount: 2
Fore
SplineSet
340 678 m 2,0,-1
 351 678 l 2,1,2
 376 678 376 678 383.5 672 c 128,-1,3
 391 666 391 666 393.5 664.5 c 128,-1,4
 396 663 396 663 400.5 656 c 128,-1,5
 405 649 405 649 406.5 647 c 128,-1,6
 408 645 408 645 413 635 c 128,-1,7
 418 625 418 625 420 622 c 0,8,9
 543 399 543 399 647 50 c 0,10,11
 650 38 650 38 650 29 c 0,12,13
 650 0 650 0 619 0 c 2,14,-1
 595 0 l 2,15,16
 578 0 578 0 571.5 6 c 128,-1,17
 565 12 565 12 562 15 c 128,-1,18
 559 18 559 18 556 26.5 c 128,-1,19
 553 35 553 35 552 39 c 0,20,21
 549 45 549 45 532.5 107.5 c 128,-1,22
 516 170 516 170 496 228 c 1,23,-1
 194 228 l 1,24,25
 169 151 169 151 155 97 c 128,-1,26
 141 43 141 43 139.5 39 c 128,-1,27
 138 35 138 35 135 26.5 c 128,-1,28
 132 18 132 18 129 15 c 128,-1,29
 126 12 126 12 121 8 c 0,30,31
 113 0 113 0 96 0 c 2,32,-1
 72 0 l 2,33,34
 41 0 41 0 41 30 c 0,35,36
 41 38 41 38 44 50 c 0,37,38
 148 399 148 399 271 622 c 0,39,40
 273 625 273 625 278 635 c 128,-1,41
 283 645 283 645 284.5 647 c 128,-1,42
 286 649 286 649 290.5 656 c 128,-1,43
 295 663 295 663 297.5 664.5 c 128,-1,44
 300 666 300 666 305 670 c 128,-1,45
 310 674 310 674 314 675 c 0,46,47
 328 678 328 678 340 678 c 2,0,-1
345 583 m 1,48,49
 280 468 280 468 219 300 c 1,50,-1
 472 300 l 1,51,52
 436 399 436 399 345 583 c 1,48,49
EndSplineSet
EndChar

StartChar: B
Encoding: 66 66 37
Width: 621
GlyphClass: 2
Flags: W
LayerCount: 2
Fore
SplineSet
139 679 m 2,0,-1
 313 679 l 2,1,2
 413 679 413 679 473 636 c 128,-1,3
 533 593 533 593 533 504 c 0,4,5
 533 452 533 452 506 413.5 c 128,-1,6
 479 375 479 375 435 361 c 1,7,8
 492 351 492 351 534 314 c 128,-1,9
 576 277 576 277 576 202 c 0,10,11
 576 100 576 100 507.5 50 c 128,-1,12
 439 0 439 0 330 0 c 2,13,-1
 139 0 l 2,14,15
 101 0 101 0 101 37 c 2,16,-1
 101 640 l 2,17,18
 101 679 101 679 139 679 c 2,0,-1
187 604 m 1,19,-1
 187 387 l 1,20,-1
 320 387 l 2,21,22
 386 387 386 387 417.5 414 c 128,-1,23
 449 441 449 441 449 497 c 0,24,25
 449 604 449 604 313 604 c 2,26,-1
 187 604 l 1,19,-1
187 319 m 1,27,-1
 187 75 l 1,28,-1
 330 75 l 2,29,30
 491 75 491 75 491 202 c 0,31,32
 491 319 491 319 338 319 c 2,33,-1
 187 319 l 1,27,-1
EndSplineSet
EndChar

StartChar: C
Encoding: 67 67 38
Width: 699
GlyphClass: 2
Flags: W
LayerCount: 2
Fore
SplineSet
394 687 m 0,0,1
 500 687 500 687 568.5 645 c 128,-1,2
 637 603 637 603 637 552 c 0,3,4
 637 530 637 530 620.5 516.5 c 128,-1,5
 604 503 604 503 577 503 c 1,6,7
 546 609 546 609 394 609 c 0,8,9
 294 609 294 609 224.5 541.5 c 128,-1,10
 155 474 155 474 155 341.5 c 128,-1,11
 155 209 155 209 225 138.5 c 128,-1,12
 295 68 295 68 394 68 c 0,13,14
 548 68 548 68 590 181 c 1,15,16
 614 181 614 181 627.5 167.5 c 128,-1,17
 641 154 641 154 641 132 c 0,18,19
 641 81 641 81 571 36.5 c 128,-1,20
 501 -8 501 -8 394 -8 c 0,21,22
 253 -8 253 -8 158 83 c 128,-1,23
 63 174 63 174 63 341 c 128,-1,24
 63 508 63 508 158 597.5 c 128,-1,25
 253 687 253 687 394 687 c 0,0,1
EndSplineSet
EndChar

StartChar: D
Encoding: 68 68 39
Width: 728
GlyphClass: 2
Flags: W
LayerCount: 2
Fore
SplineSet
139 679 m 2,0,-1
 338 679 l 2,1,2
 472 679 472 679 564 600 c 1,3,4
 609 560 609 560 635.5 493 c 128,-1,5
 662 426 662 426 662 339 c 128,-1,6
 662 252 662 252 635.5 185.5 c 128,-1,7
 609 119 609 119 564 80 c 0,8,9
 472 0 472 0 338 0 c 2,10,-1
 139 0 l 2,11,12
 101 0 101 0 101 37 c 2,13,-1
 101 641 l 2,14,15
 101 679 101 679 139 679 c 2,0,-1
187 603 m 1,16,-1
 187 74 l 1,17,-1
 330 74 l 2,18,19
 446 74 446 74 512 142 c 128,-1,20
 578 210 578 210 578 339 c 128,-1,21
 578 468 578 468 512 535.5 c 128,-1,22
 446 603 446 603 330 603 c 2,23,-1
 187 603 l 1,16,-1
EndSplineSet
EndChar

StartChar: E
Encoding: 69 69 40
Width: 577
GlyphClass: 2
Flags: W
LayerCount: 2
Fore
SplineSet
140 679 m 2,0,-1
 485 679 l 2,1,2
 522 679 522 679 522 641.5 c 128,-1,3
 522 604 522 604 485 604 c 2,4,-1
 188 604 l 1,5,-1
 188 390 l 1,6,-1
 452 390 l 2,7,8
 489 390 489 390 489 352.5 c 128,-1,9
 489 315 489 315 452 315 c 2,10,-1
 188 315 l 1,11,-1
 188 75 l 1,12,-1
 485 75 l 2,13,14
 522 75 522 75 522 37.5 c 128,-1,15
 522 0 522 0 485 0 c 2,16,-1
 140 0 l 2,17,18
 101 0 101 0 101 38 c 2,19,-1
 101 641 l 2,20,21
 101 679 101 679 140 679 c 2,0,-1
EndSplineSet
EndChar

StartChar: F
Encoding: 70 70 41
Width: 566
GlyphClass: 2
Flags: W
LayerCount: 2
Fore
SplineSet
140 679 m 2,0,-1
 483 679 l 2,1,2
 521 679 521 679 521 641.5 c 128,-1,3
 521 604 521 604 483 604 c 2,4,-1
 188 604 l 1,5,-1
 188 390 l 1,6,-1
 444 390 l 2,7,8
 481 390 481 390 481 352.5 c 128,-1,9
 481 315 481 315 444 315 c 2,10,-1
 188 315 l 1,11,-1
 188 37 l 2,12,13
 188 0 188 0 149 0 c 2,14,-1
 140 0 l 2,15,16
 101 0 101 0 101 38 c 2,17,-1
 101 641 l 2,18,19
 101 679 101 679 140 679 c 2,0,-1
EndSplineSet
EndChar

StartChar: G
Encoding: 71 71 42
Width: 724
GlyphClass: 2
Flags: W
LayerCount: 2
Fore
SplineSet
386 687 m 0,0,1
 503 687 503 687 567.5 647 c 128,-1,2
 632 607 632 607 632 552 c 0,3,4
 632 532 632 532 616 518 c 128,-1,5
 600 504 600 504 573 504 c 1,6,7
 542 607 542 607 386 607 c 0,8,9
 291 607 291 607 223 538 c 128,-1,10
 155 469 155 469 155 340.5 c 128,-1,11
 155 212 155 212 220.5 140.5 c 128,-1,12
 286 69 286 69 386 69 c 128,-1,13
 486 69 486 69 541.5 124.5 c 128,-1,14
 597 180 597 180 597 264 c 0,15,16
 597 278 597 278 583 278 c 2,17,-1
 430 278 l 2,18,19
 391 278 391 278 391 317.5 c 128,-1,20
 391 357 391 357 430 357 c 2,21,-1
 625 357 l 2,22,23
 650 357 650 357 665.5 343 c 128,-1,24
 681 329 681 329 681 305 c 2,25,-1
 681 263 l 2,26,27
 681 162 681 162 606 80 c 1,28,29
 571 40 571 40 513.5 16 c 128,-1,30
 456 -8 456 -8 386 -8 c 0,31,32
 245 -8 245 -8 154 84 c 128,-1,33
 63 176 63 176 63 340.5 c 128,-1,34
 63 505 63 505 157 596 c 128,-1,35
 251 687 251 687 386 687 c 0,0,1
EndSplineSet
EndChar

StartChar: H
Encoding: 72 72 43
Width: 757
GlyphClass: 2
Flags: W
LayerCount: 2
Fore
SplineSet
140 679 m 2,0,-1
 149 679 l 2,1,2
 188 679 188 679 188 640 c 2,3,-1
 188 389 l 1,4,-1
 570 389 l 1,5,-1
 570 640 l 2,6,7
 570 679 570 679 609 679 c 2,8,-1
 618 679 l 2,9,10
 656 679 656 679 656 640 c 2,11,-1
 656 38 l 2,12,13
 656 0 656 0 618 0 c 2,14,-1
 609 0 l 2,15,16
 570 0 570 0 570 38 c 2,17,-1
 570 314 l 1,18,-1
 188 314 l 1,19,-1
 188 38 l 2,20,21
 188 0 188 0 149 0 c 2,22,-1
 140 0 l 2,23,24
 101 0 101 0 101 38 c 2,25,-1
 101 640 l 2,26,27
 101 679 101 679 140 679 c 2,0,-1
EndSplineSet
EndChar

StartChar: I
Encoding: 73 73 44
Width: 289
GlyphClass: 2
Flags: W
LayerCount: 2
Fore
SplineSet
139 679 m 2,0,-1
 148 679 l 2,1,2
 188 679 188 679 188 640 c 2,3,-1
 188 38 l 2,4,5
 188 0 188 0 148 0 c 2,6,-1
 139 0 l 2,7,8
 101 0 101 0 101 38 c 2,9,-1
 101 640 l 2,10,11
 101 679 101 679 139 679 c 2,0,-1
EndSplineSet
EndChar

StartChar: J
Encoding: 74 74 45
Width: 266
GlyphClass: 2
Flags: W
LayerCount: 2
Fore
SplineSet
128 679 m 2,0,-1
 137 679 l 2,1,2
 176 679 176 679 176 642 c 2,3,-1
 176 40 l 2,4,5
 176 -83 176 -83 120.5 -147.5 c 128,-1,6
 65 -212 65 -212 -35 -212 c 0,7,8
 -95 -212 -95 -212 -129 -187 c 128,-1,9
 -163 -162 -163 -162 -163 -129 c 0,10,11
 -163 -108 -163 -108 -152 -96 c 128,-1,12
 -141 -84 -141 -84 -125 -84 c 1,13,14
 -119 -105 -119 -105 -91.5 -123.5 c 128,-1,15
 -64 -142 -64 -142 -18 -142 c 128,-1,16
 28 -142 28 -142 58.5 -103 c 128,-1,17
 89 -64 89 -64 89 7 c 2,18,-1
 89 642 l 2,19,20
 89 679 89 679 128 679 c 2,0,-1
EndSplineSet
EndChar

StartChar: K
Encoding: 75 75 46
Width: 614
GlyphClass: 2
Flags: W
LayerCount: 2
Fore
SplineSet
139 679 m 2,0,-1
 148 679 l 2,1,2
 187 679 187 679 187 640 c 2,3,-1
 187 379 l 1,4,5
 360 519 360 519 459 650 c 1,6,7
 479 679 479 679 520 679 c 2,8,-1
 555 679 l 2,9,10
 579 679 579 679 579 659 c 0,11,12
 579 649 579 649 572 642 c 0,13,14
 437 489 437 489 277 363 c 1,15,16
 357 309 357 309 442 223.5 c 128,-1,17
 527 138 527 138 594 40 c 0,18,19
 601 30 601 30 601 20 c 0,20,21
 601 0 601 0 574 0 c 2,22,-1
 532 0 l 2,23,24
 505 0 505 0 481 34 c 0,25,26
 355 213 355 213 187 333 c 1,27,-1
 187 38 l 2,28,29
 187 0 187 0 148 0 c 2,30,-1
 139 0 l 2,31,32
 100 0 100 0 100 38 c 2,33,-1
 100 640 l 2,34,35
 100 679 100 679 139 679 c 2,0,-1
EndSplineSet
EndChar

StartChar: L
Encoding: 76 76 47
Width: 569
GlyphClass: 2
Flags: W
LayerCount: 2
Fore
SplineSet
140 679 m 2,0,-1
 149 679 l 2,1,2
 188 679 188 679 188 641 c 2,3,-1
 188 75 l 1,4,-1
 496 75 l 2,5,6
 534 75 534 75 534 37.5 c 128,-1,7
 534 0 534 0 496 0 c 2,8,-1
 140 0 l 2,9,10
 101 0 101 0 101 38 c 2,11,-1
 101 641 l 2,12,13
 101 679 101 679 140 679 c 2,0,-1
EndSplineSet
EndChar

StartChar: M
Encoding: 77 77 48
Width: 903
GlyphClass: 2
Flags: W
LayerCount: 2
Fore
SplineSet
101 37 m 2,0,-1
 107 630 l 2,1,2
 107 679 107 679 156 679 c 2,3,-1
 189 679 l 2,4,5
 244 679 244 679 267 616 c 0,6,7
 295 537 295 537 354.5 360 c 128,-1,8
 414 183 414 183 449 86 c 1,9,10
 481 176 481 176 541.5 351 c 128,-1,11
 602 526 602 526 634 616 c 0,12,13
 656 679 656 679 711 679 c 2,14,-1
 747 679 l 2,15,16
 770 679 770 679 784 665.5 c 128,-1,17
 798 652 798 652 798 630 c 2,18,-1
 798 575 l 1,19,-1
 802 37 l 2,20,21
 802 0 802 0 763 0 c 2,22,-1
 754 0 l 2,23,24
 715 0 715 0 715 37 c 0,25,26
 715 334 715 334 718 616 c 1,27,28
 547 149 547 149 507 43 c 0,29,30
 490 0 490 0 450 0 c 2,31,-1
 443 0 l 2,32,33
 401 0 401 0 386 43 c 0,34,35
 359 117 359 117 292.5 315.5 c 128,-1,36
 226 514 226 514 185 616 c 1,37,38
 188 334 188 334 188 37 c 0,39,40
 188 0 188 0 149 0 c 2,41,-1
 140 0 l 2,42,43
 101 0 101 0 101 37 c 2,0,-1
EndSplineSet
EndChar

StartChar: N
Encoding: 78 78 49
Width: 756
GlyphClass: 2
Flags: W
LayerCount: 2
Fore
SplineSet
141 679 m 2,0,-1
 161 679 l 2,1,2
 199 679 199 679 225 637 c 1,3,-1
 569 137 l 1,4,-1
 569 640 l 2,5,6
 569 661 569 661 578 670 c 128,-1,7
 587 679 587 679 607 679 c 2,8,-1
 616 679 l 2,9,10
 655 679 655 679 655 640 c 2,11,-1
 655 48 l 2,12,13
 655 27 655 27 645 13.5 c 128,-1,14
 635 0 635 0 616 0 c 2,15,-1
 603 0 l 2,16,17
 565 0 565 0 530 51 c 2,18,-1
 187 550 l 1,19,-1
 187 38 l 2,20,21
 187 0 187 0 151 0 c 2,22,-1
 141 0 l 2,23,24
 101 0 101 0 101 38 c 2,25,-1
 101 630 l 2,26,27
 101 679 101 679 141 679 c 2,0,-1
EndSplineSet
EndChar

StartChar: O
Encoding: 79 79 50
Width: 767
GlyphClass: 2
Flags: W
LayerCount: 2
Fore
SplineSet
384 687 m 128,-1,1
 446 687 446 687 502 666.5 c 128,-1,2
 558 646 558 646 605.5 606 c 128,-1,3
 653 566 653 566 681.5 496.5 c 128,-1,4
 710 427 710 427 710 338.5 c 128,-1,5
 710 250 710 250 681.5 181.5 c 128,-1,6
 653 113 653 113 605.5 73 c 128,-1,7
 558 33 558 33 502 12.5 c 128,-1,8
 446 -8 446 -8 384 -8 c 128,-1,9
 322 -8 322 -8 265.5 12.5 c 128,-1,10
 209 33 209 33 161.5 73 c 128,-1,11
 114 113 114 113 86 181.5 c 128,-1,12
 58 250 58 250 58 338.5 c 128,-1,13
 58 427 58 427 86 496.5 c 128,-1,14
 114 566 114 566 161.5 606 c 128,-1,15
 209 646 209 646 265.5 666.5 c 128,-1,0
 322 687 322 687 384 687 c 128,-1,1
384 610 m 128,-1,17
 286 610 286 610 215.5 540 c 128,-1,18
 145 470 145 470 145 339.5 c 128,-1,19
 145 209 145 209 215.5 139 c 128,-1,20
 286 69 286 69 384 69 c 128,-1,21
 482 69 482 69 552.5 139 c 128,-1,22
 623 209 623 209 623 339.5 c 128,-1,23
 623 470 623 470 552.5 540 c 128,-1,16
 482 610 482 610 384 610 c 128,-1,17
EndSplineSet
EndChar

StartChar: P
Encoding: 80 80 51
Width: 609
GlyphClass: 2
Flags: W
LayerCount: 2
Fore
SplineSet
140 679 m 2,0,-1
 322 679 l 2,1,2
 425 679 425 679 490 629.5 c 128,-1,3
 555 580 555 580 555 472.5 c 128,-1,4
 555 365 555 365 490 314.5 c 128,-1,5
 425 264 425 264 322 264 c 2,6,-1
 188 264 l 1,7,-1
 188 38 l 2,8,9
 188 0 188 0 149 0 c 2,10,-1
 140 0 l 2,11,12
 101 0 101 0 101 38 c 2,13,-1
 101 640 l 2,14,15
 101 679 101 679 140 679 c 2,0,-1
188 605 m 1,16,-1
 188 339 l 1,17,-1
 323 339 l 2,18,19
 470 339 470 339 470 472 c 128,-1,20
 470 605 470 605 323 605 c 2,21,-1
 188 605 l 1,16,-1
EndSplineSet
EndChar

StartChar: Q
Encoding: 81 81 52
Width: 769
GlyphClass: 2
Flags: W
LayerCount: 2
Fore
SplineSet
383 687 m 128,-1,1
 445 687 445 687 501.5 666.5 c 128,-1,2
 558 646 558 646 605.5 605.5 c 128,-1,3
 653 565 653 565 681 496 c 128,-1,4
 709 427 709 427 709 325 c 128,-1,5
 709 223 709 223 662 145 c 128,-1,6
 615 67 615 67 538 28 c 1,7,8
 591 -35 591 -35 667 -35 c 0,9,10
 688 -35 688 -35 705 -31 c 1,11,12
 705 -67 705 -67 682.5 -92 c 128,-1,13
 660 -117 660 -117 629.5 -117 c 128,-1,14
 599 -117 599 -117 578 -110.5 c 128,-1,15
 557 -104 557 -104 536.5 -87.5 c 128,-1,16
 516 -71 516 -71 506 -62 c 128,-1,17
 496 -53 496 -53 473.5 -28 c 128,-1,18
 451 -3 451 -3 448 0 c 1,19,20
 414 -8 414 -8 367.5 -8 c 128,-1,21
 321 -8 321 -8 265 12.5 c 128,-1,22
 209 33 209 33 161.5 73 c 128,-1,23
 114 113 114 113 85.5 181.5 c 128,-1,24
 57 250 57 250 57 338.5 c 128,-1,25
 57 427 57 427 85.5 496 c 128,-1,26
 114 565 114 565 161.5 605.5 c 128,-1,27
 209 646 209 646 265 666.5 c 128,-1,0
 321 687 321 687 383 687 c 128,-1,1
383 609 m 128,-1,29
 284 609 284 609 214 539.5 c 128,-1,30
 144 470 144 470 144 339.5 c 128,-1,31
 144 209 144 209 214.5 139 c 128,-1,32
 285 69 285 69 383.5 69 c 128,-1,33
 482 69 482 69 552 139 c 128,-1,34
 622 209 622 209 622 339.5 c 128,-1,35
 622 470 622 470 552 539.5 c 128,-1,28
 482 609 482 609 383 609 c 128,-1,29
EndSplineSet
EndChar

StartChar: R
Encoding: 82 82 53
Width: 634
GlyphClass: 2
Flags: W
LayerCount: 2
Fore
SplineSet
185 604 m 1,0,-1
 185 367 l 1,1,-1
 325 367 l 2,2,3
 387 367 387 367 425.5 398 c 128,-1,4
 464 429 464 429 464 486.5 c 128,-1,5
 464 544 464 544 427.5 574 c 128,-1,6
 391 604 391 604 325 604 c 2,7,-1
 185 604 l 1,0,-1
548 482 m 0,8,9
 548 405 548 405 493 355 c 128,-1,10
 438 305 438 305 359 299 c 1,11,12
 394 233 394 233 464.5 150 c 128,-1,13
 535 67 535 67 599 23 c 1,14,15
 579 -9 579 -9 547 -9 c 128,-1,16
 515 -9 515 -9 484.5 12 c 128,-1,17
 454 33 454 33 429 61 c 128,-1,18
 404 89 404 89 372 136 c 0,19,20
 338 186 338 186 277 295 c 1,21,-1
 185 295 l 1,22,-1
 185 37 l 2,23,24
 185 0 185 0 145 0 c 2,25,-1
 140 0 l 2,26,27
 101 0 101 0 101 37 c 2,28,-1
 101 640 l 2,29,30
 101 678 101 678 140 678 c 2,31,-1
 321 679 l 2,32,33
 419 679 419 679 483.5 633 c 128,-1,34
 548 587 548 587 548 482 c 0,8,9
EndSplineSet
EndChar

StartChar: S
Encoding: 83 83 54
Width: 594
GlyphClass: 2
Flags: W
LayerCount: 2
Fore
SplineSet
129 632 m 128,-1,1
 197 686 197 686 296.5 686 c 128,-1,2
 396 686 396 686 449 661.5 c 128,-1,3
 502 637 502 637 502 601 c 128,-1,4
 502 565 502 565 458 556 c 1,5,6
 420 613 420 613 305 613 c 0,7,8
 237 613 237 613 194 581.5 c 128,-1,9
 151 550 151 550 151 505 c 128,-1,10
 151 460 151 460 186 436 c 128,-1,11
 221 412 221 412 288.5 394.5 c 128,-1,12
 356 377 356 377 392.5 363 c 128,-1,13
 429 349 429 349 466 326 c 0,14,15
 538 282 538 282 538 193.5 c 128,-1,16
 538 105 538 105 466 48.5 c 128,-1,17
 394 -8 394 -8 286 -8 c 128,-1,18
 178 -8 178 -8 117.5 20.5 c 128,-1,19
 57 49 57 49 57 88.5 c 128,-1,20
 57 128 57 128 108 141 c 1,21,22
 145 66 145 66 275 66 c 0,23,24
 358 66 358 66 404.5 99.5 c 128,-1,25
 451 133 451 133 451 185.5 c 128,-1,26
 451 238 451 238 404.5 266 c 128,-1,27
 358 294 358 294 259.5 318.5 c 128,-1,28
 161 343 161 343 111 385 c 128,-1,29
 61 427 61 427 61 502.5 c 128,-1,0
 61 578 61 578 129 632 c 128,-1,1
EndSplineSet
EndChar

StartChar: T
Encoding: 84 84 55
Width: 568
GlyphClass: 2
Flags: W
LayerCount: 2
Fore
SplineSet
71 679 m 2,0,-1
 497 679 l 2,1,2
 535 679 535 679 535 641.5 c 128,-1,3
 535 604 535 604 497 604 c 2,4,-1
 327 604 l 1,5,-1
 327 38 l 2,6,7
 327 0 327 0 288 0 c 2,8,-1
 279 0 l 2,9,10
 240 0 240 0 240 38 c 2,11,-1
 240 604 l 1,12,-1
 71 604 l 2,13,14
 33 604 33 604 33 641.5 c 128,-1,15
 33 679 33 679 71 679 c 2,0,-1
EndSplineSet
EndChar

StartChar: U
Encoding: 85 85 56
Width: 740
GlyphClass: 2
Flags: W
LayerCount: 2
Fore
SplineSet
136 679 m 2,0,-1
 146 679 l 2,1,2
 185 679 185 679 185 640 c 2,3,-1
 185 284 l 2,4,5
 185 66 185 66 370 66 c 128,-1,6
 555 66 555 66 555 284 c 2,7,-1
 555 640 l 2,8,9
 555 679 555 679 594 679 c 2,10,-1
 602 679 l 2,11,12
 643 679 643 679 643 640 c 2,13,-1
 643 288 l 2,14,15
 643 200 643 200 614 130 c 0,16,17
 596 89 596 89 567 59.5 c 128,-1,18
 538 30 538 30 487.5 11 c 128,-1,19
 437 -8 437 -8 370 -8 c 128,-1,20
 303 -8 303 -8 252.5 11 c 128,-1,21
 202 30 202 30 173 59.5 c 128,-1,22
 144 89 144 89 126 130 c 0,23,24
 97 200 97 200 97 288 c 2,25,-1
 97 640 l 2,26,27
 97 679 97 679 136 679 c 2,0,-1
EndSplineSet
EndChar

StartChar: V
Encoding: 86 86 57
Width: 694
GlyphClass: 2
Flags: W
LayerCount: 2
Fore
SplineSet
40 650 m 0,0,1
 40 678 40 678 72 678 c 2,2,-1
 96 678 l 2,3,4
 113 678 113 678 119.5 672 c 128,-1,5
 126 666 126 666 129 663 c 128,-1,6
 132 660 132 660 135 651.5 c 128,-1,7
 138 643 138 643 140 639 c 0,8,9
 142 633 142 633 148 608 c 0,10,11
 229 306 229 306 348 95 c 1,12,13
 470 343 470 343 543 608 c 0,14,15
 544 611 544 611 546 620.5 c 128,-1,16
 548 630 548 630 549 632.5 c 128,-1,17
 550 635 550 635 552.5 643 c 128,-1,18
 555 651 555 651 556.5 653.5 c 128,-1,19
 558 656 558 656 561 661.5 c 128,-1,20
 564 667 564 667 567 669 c 128,-1,21
 570 671 570 671 574 674 c 0,22,23
 581 678 581 678 595 678 c 2,24,-1
 619 678 l 2,25,26
 651 678 651 678 651 650 c 0,27,28
 651 644 651 644 647 628 c 0,29,30
 543 279 543 279 420 56 c 0,31,32
 418 53 418 53 413 43 c 128,-1,33
 408 33 408 33 406.5 31 c 128,-1,34
 405 29 405 29 400.5 22 c 128,-1,35
 396 15 396 15 393.5 13.5 c 128,-1,36
 391 12 391 12 386 8 c 128,-1,37
 381 4 381 4 376 3 c 0,38,39
 363 0 363 0 351 0 c 2,40,-1
 340 0 l 2,41,42
 315 0 315 0 307.5 6 c 128,-1,43
 300 12 300 12 297.5 13.5 c 128,-1,44
 295 15 295 15 290.5 22 c 128,-1,45
 286 29 286 29 284.5 31 c 128,-1,46
 283 33 283 33 278 43 c 128,-1,47
 273 53 273 53 271 56 c 0,48,49
 148 279 148 279 44 628 c 0,50,51
 40 644 40 644 40 650 c 0,0,1
EndSplineSet
EndChar

StartChar: W
Encoding: 87 87 58
Width: 1002
GlyphClass: 2
Flags: W
LayerCount: 2
Fore
SplineSet
84 677 m 2,0,-1
 108 677 l 2,1,2
 146 677 146 677 152 644 c 1,3,-1
 292 92 l 1,4,5
 312 162 312 162 366.5 351 c 128,-1,6
 421 540 421 540 450 644 c 0,7,8
 460 679 460 679 494 679 c 2,9,-1
 503 679 l 2,10,11
 536 679 536 679 546 644 c 0,12,13
 575 540 575 540 629.5 351 c 128,-1,14
 684 162 684 162 704 92 c 1,15,16
 782 341 782 341 838 644 c 0,17,18
 844 677 844 677 882 677 c 2,19,-1
 906 677 l 2,20,21
 919 677 919 677 927.5 669.5 c 128,-1,22
 936 662 936 662 936 652.5 c 128,-1,23
 936 643 936 643 934 635 c 0,24,25
 861 321 861 321 773 58 c 0,26,27
 753 0 753 0 710 0 c 2,28,-1
 695 0 l 2,29,30
 647 0 647 0 632 54 c 0,31,32
 597 186 597 186 498 542 c 1,33,34
 476 460 476 460 431 298.5 c 128,-1,35
 386 137 386 137 364 54 c 0,36,37
 357 29 357 29 340.5 14.5 c 128,-1,38
 324 0 324 0 301 0 c 2,39,-1
 280 0 l 2,40,41
 237 0 237 0 217 58 c 0,42,43
 129 321 129 321 56 635 c 0,44,45
 54 643 54 643 54 652.5 c 128,-1,46
 54 662 54 662 62.5 669.5 c 128,-1,47
 71 677 71 677 84 677 c 2,0,-1
EndSplineSet
EndChar

StartChar: X
Encoding: 88 88 59
Width: 638
GlyphClass: 2
Flags: W
LayerCount: 2
Fore
SplineSet
72 679 m 2,0,-1
 112 679 l 2,1,2
 137 679 137 679 156 652 c 2,3,-1
 325 409 l 1,4,5
 366 457 366 457 405.5 518 c 128,-1,6
 445 579 445 579 464 616 c 2,7,-1
 483 652 l 1,8,9
 500 679 500 679 526 679 c 2,10,-1
 567 679 l 2,11,12
 588 679 588 679 588 660 c 0,13,14
 588 652 588 652 580.5 640 c 128,-1,15
 573 628 573 628 554 596.5 c 128,-1,16
 535 565 535 565 479.5 487.5 c 128,-1,17
 424 410 424 410 373 355 c 1,18,-1
 597 33 l 2,19,20
 603 24 603 24 603 16 c 0,21,22
 603 0 603 0 583 0 c 2,23,-1
 540 0 l 2,24,25
 511 0 511 0 492 30 c 2,26,-1
 319 300 l 1,27,28
 283 262 283 262 240.5 194.5 c 128,-1,29
 198 127 198 127 173 78 c 2,30,-1
 148 30 l 1,31,32
 129 0 129 0 100 0 c 2,33,-1
 57 0 l 2,34,35
 38 0 38 0 38 16 c 0,36,37
 38 42 38 42 152 204 c 0,38,39
 207 282 207 282 267 354 c 1,40,-1
 55 647 l 2,41,42
 50 654 50 654 50 660 c 0,43,44
 50 679 50 679 72 679 c 2,0,-1
EndSplineSet
EndChar

StartChar: Y
Encoding: 89 89 60
Width: 631
GlyphClass: 2
Flags: W
LayerCount: 2
Fore
SplineSet
72 679 m 2,0,-1
 93 679 l 2,1,2
 106 679 106 679 112 673 c 128,-1,3
 118 667 118 667 121.5 663 c 128,-1,4
 125 659 125 659 129 651.5 c 128,-1,5
 133 644 133 644 135 639 c 128,-1,6
 137 634 137 634 141.5 624 c 128,-1,7
 146 614 146 614 148 609 c 0,8,9
 215 460 215 460 310 337 c 1,10,-1
 321 337 l 1,11,12
 416 460 416 460 483 609 c 0,13,14
 485 614 485 614 489.5 624 c 128,-1,15
 494 634 494 634 496 639 c 128,-1,16
 498 644 498 644 502 651.5 c 128,-1,17
 506 659 506 659 509.5 663 c 128,-1,18
 513 667 513 667 518 672 c 0,19,20
 525 679 525 679 538 679 c 2,21,-1
 559 679 l 2,22,23
 591 679 591 679 591 651 c 0,24,25
 591 637 591 637 585 622 c 128,-1,26
 579 607 579 607 569 585.5 c 128,-1,27
 559 564 559 564 551 546.5 c 128,-1,28
 543 529 543 529 530.5 507 c 128,-1,29
 518 485 518 485 510.5 471.5 c 128,-1,30
 503 458 503 458 487 434.5 c 128,-1,31
 471 411 471 411 464.5 400.5 c 128,-1,32
 458 390 458 390 439 364 c 128,-1,33
 420 338 420 338 414 330 c 0,34,35
 369 270 369 270 359 256 c 1,36,-1
 359 38 l 2,37,38
 359 0 359 0 320 0 c 2,39,-1
 311 0 l 2,40,41
 272 0 272 0 272 38 c 2,42,-1
 272 256 l 1,43,44
 262 270 262 270 236.5 304 c 128,-1,45
 211 338 211 338 192 364 c 128,-1,46
 173 390 173 390 166.5 400.5 c 128,-1,47
 160 411 160 411 144 434.5 c 128,-1,48
 128 458 128 458 120.5 471.5 c 128,-1,49
 113 485 113 485 100.5 507 c 128,-1,50
 88 529 88 529 80 546.5 c 128,-1,51
 72 564 72 564 62 585.5 c 128,-1,52
 52 607 52 607 46 622 c 128,-1,53
 40 637 40 637 40 651 c 0,54,55
 40 679 40 679 72 679 c 2,0,-1
EndSplineSet
EndChar

StartChar: Z
Encoding: 90 90 61
Width: 692
GlyphClass: 2
Flags: W
LayerCount: 2
Fore
SplineSet
139 678 m 2,0,-1
 559 678 l 2,1,2
 586 678 586 678 602 662 c 128,-1,3
 618 646 618 646 618 620 c 2,4,-1
 618 599 l 2,5,6
 618 577 618 577 555.5 507.5 c 128,-1,7
 493 438 493 438 360 287.5 c 128,-1,8
 227 137 227 137 176 80 c 1,9,-1
 176 69 l 1,10,-1
 574 69 l 2,11,12
 594 69 594 69 603 60.5 c 128,-1,13
 612 52 612 52 612 32.5 c 128,-1,14
 612 13 612 13 603.5 6.5 c 128,-1,15
 595 0 595 0 574 0 c 2,16,-1
 139 0 l 2,17,18
 112 0 112 0 97 15 c 128,-1,19
 82 30 82 30 82 56 c 2,20,-1
 82 69 l 2,21,22
 82 99 82 99 134.5 159.5 c 128,-1,23
 187 220 187 220 254 294 c 0,24,25
 421 480 421 480 523 596 c 1,26,-1
 523 609 l 1,27,-1
 139 609 l 2,28,29
 119 609 119 609 111 616.5 c 128,-1,30
 103 624 103 624 103 644 c 128,-1,31
 103 664 103 664 111 671 c 128,-1,32
 119 678 119 678 139 678 c 2,0,-1
EndSplineSet
EndChar

StartChar: bracketleft
Encoding: 91 91 62
Width: 322
GlyphClass: 2
Flags: W
LayerCount: 2
Fore
SplineSet
121 689 m 2,0,-1
 248 689 l 2,1,2
 284 689 284 689 284 651 c 128,-1,3
 284 613 284 613 248 613 c 2,4,-1
 165 613 l 1,5,-1
 165 -144 l 1,6,-1
 248 -144 l 2,7,8
 284 -144 284 -144 284 -182 c 128,-1,9
 284 -220 284 -220 248 -220 c 2,10,-1
 121 -220 l 2,11,12
 82 -220 82 -220 82 -183 c 2,13,-1
 82 651 l 2,14,15
 82 671 82 671 91 680 c 128,-1,16
 100 689 100 689 121 689 c 2,0,-1
EndSplineSet
EndChar

StartChar: backslash
Encoding: 92 92 63
Width: 377
GlyphClass: 2
Flags: W
LayerCount: 2
Fore
SplineSet
346 22 m 0,0,1
 346 2 346 2 324 -6 c 0,2,3
 294 -18 294 -18 280 17 c 2,4,-1
 33 664 l 2,5,6
 29 675 29 675 29 683 c 0,7,8
 29 703 29 703 51 710 c 0,9,10
 59 713 59 713 66 713 c 0,11,12
 86 713 86 713 96 687 c 2,13,-1
 342 40 l 2,14,15
 346 30 346 30 346 22 c 0,0,1
EndSplineSet
EndChar

StartChar: bracketright
Encoding: 93 93 64
Width: 322
GlyphClass: 2
Flags: W
LayerCount: 2
Fore
SplineSet
75 689 m 2,0,-1
 201 689 l 2,1,2
 241 689 241 689 241 651 c 2,3,-1
 241 -183 l 2,4,5
 241 -220 241 -220 201 -220 c 2,6,-1
 75 -220 l 2,7,8
 38 -220 38 -220 38 -182 c 128,-1,9
 38 -144 38 -144 75 -144 c 2,10,-1
 158 -144 l 1,11,-1
 158 613 l 1,12,-1
 75 613 l 2,13,14
 38 613 38 613 38 651 c 128,-1,15
 38 689 38 689 75 689 c 2,0,-1
EndSplineSet
EndChar

StartChar: asciicircum
Encoding: 94 94 65
Width: 484
GlyphClass: 2
Flags: W
LayerCount: 2
Fore
SplineSet
367 489 m 1,0,-1
 242 628 l 1,1,2
 228 615 228 615 179 557.5 c 128,-1,3
 130 500 130 500 118 489 c 1,4,-1
 35 489 l 1,5,-1
 208 677 l 1,6,-1
 276 677 l 1,7,-1
 449 489 l 1,8,-1
 367 489 l 1,0,-1
EndSplineSet
EndChar

StartChar: underscore
Encoding: 95 95 66
Width: 529
GlyphClass: 2
Flags: W
LayerCount: 2
Fore
SplineSet
0 0 m 2,0,-1
 529 0 l 2,1,2
 566 0 566 0 566 -33 c 128,-1,3
 566 -66 566 -66 529 -66 c 2,4,-1
 0 -66 l 2,5,6
 -37 -66 -37 -66 -37 -33 c 128,-1,7
 -37 0 -37 0 0 0 c 2,0,-1
EndSplineSet
EndChar

StartChar: grave
Encoding: 96 96 67
Width: 339
GlyphClass: 2
Flags: W
LayerCount: 2
Fore
SplineSet
54 665 m 2,0,-1
 54 692 l 2,1,2
 54 710 54 710 72 710 c 0,3,4
 81 710 81 710 88 706 c 2,5,-1
 268 599 l 2,6,7
 284 589 284 589 286 572 c 1,8,-1
 286 563 l 2,9,10
 286 548 286 548 269 548 c 0,11,12
 262 548 262 548 256 551 c 2,13,-1
 74 632 l 2,14,15
 54 641 54 641 54 665 c 2,0,-1
EndSplineSet
EndChar

StartChar: a
Encoding: 97 97 68
Width: 534
GlyphClass: 2
Flags: W
LayerCount: 2
Fore
SplineSet
248 501 m 0,0,1
 460 501 460 501 460 304 c 2,2,-1
 460 106 l 2,3,4
 460 51 460 51 502 36 c 1,5,6
 487 -2 487 -2 446 -2 c 0,7,8
 416 -2 416 -2 398.5 19.5 c 128,-1,9
 381 41 381 41 381 76 c 1,10,11
 318 -8 318 -8 218 -8 c 0,12,13
 137 -8 137 -8 90.5 33.5 c 128,-1,14
 44 75 44 75 44 145.5 c 128,-1,15
 44 216 44 216 98.5 260 c 128,-1,16
 153 304 153 304 246 304 c 0,17,18
 302 304 302 304 340 292 c 1,19,20
 371 281 371 281 377 278 c 1,21,-1
 377 322 l 2,22,23
 377 383 377 383 346 408.5 c 128,-1,24
 315 434 315 434 252 434 c 0,25,26
 163 434 163 434 114 366 c 1,27,28
 72 372 72 372 72 405 c 0,29,30
 72 443 72 443 124 472 c 128,-1,31
 176 501 176 501 248 501 c 0,0,1
377 214 m 1,32,33
 314 242 314 242 253 242 c 128,-1,34
 192 242 192 242 159 216 c 128,-1,35
 126 190 126 190 126 148.5 c 128,-1,36
 126 107 126 107 154.5 82.5 c 128,-1,37
 183 58 183 58 238.5 58 c 128,-1,38
 294 58 294 58 335.5 98 c 128,-1,39
 377 138 377 138 377 195 c 2,40,-1
 377 214 l 1,32,33
EndSplineSet
EndChar

StartChar: b
Encoding: 98 98 69
Width: 570
GlyphClass: 2
Flags: W
LayerCount: 2
Fore
SplineSet
110 701 m 2,0,-1
 118 701 l 2,1,2
 156 701 156 701 156 664 c 2,3,-1
 156 425 l 1,4,5
 176 459 176 459 218 481 c 128,-1,6
 260 503 260 503 310 503 c 0,7,8
 403 503 403 503 460.5 440.5 c 128,-1,9
 518 378 518 378 518 250.5 c 128,-1,10
 518 123 518 123 450 57.5 c 128,-1,11
 382 -8 382 -8 288.5 -8 c 128,-1,12
 195 -8 195 -8 102 27 c 0,13,14
 87 33 87 33 80 42 c 128,-1,15
 73 51 73 51 73 69 c 2,16,-1
 73 664 l 2,17,18
 73 701 73 701 110 701 c 2,0,-1
301 432 m 0,19,20
 238 432 238 432 197 382.5 c 128,-1,21
 156 333 156 333 156 252 c 2,22,-1
 156 92 l 1,23,24
 212 62 212 62 282 62 c 128,-1,25
 352 62 352 62 393.5 109 c 128,-1,26
 435 156 435 156 435 250 c 0,27,28
 435 432 435 432 301 432 c 0,19,20
EndSplineSet
EndChar

StartChar: c
Encoding: 99 99 70
Width: 495
GlyphClass: 2
Flags: W
LayerCount: 2
Fore
SplineSet
200 488 m 128,-1,1
 242 502 242 502 302 502 c 128,-1,2
 362 502 362 502 407.5 475 c 128,-1,3
 453 448 453 448 453 417 c 0,4,5
 453 379 453 379 410 374 c 1,6,7
 400 396 400 396 365 414.5 c 128,-1,8
 330 433 330 433 282 433 c 0,9,10
 215 433 215 433 171 385.5 c 128,-1,11
 127 338 127 338 127 247 c 128,-1,12
 127 156 127 156 172 108 c 128,-1,13
 217 60 217 60 280 60 c 0,14,15
 380 60 380 60 415 125 c 1,16,17
 434 125 434 125 447 113.5 c 128,-1,18
 460 102 460 102 460 84 c 0,19,20
 460 49 460 49 412 20.5 c 128,-1,21
 364 -8 364 -8 302.5 -8 c 128,-1,22
 241 -8 241 -8 198.5 6.5 c 128,-1,23
 156 21 156 21 120 50.5 c 128,-1,24
 84 80 84 80 63 130 c 128,-1,25
 42 180 42 180 42 246.5 c 128,-1,26
 42 313 42 313 63.5 364.5 c 128,-1,27
 85 416 85 416 121.5 445 c 128,-1,0
 158 474 158 474 200 488 c 128,-1,1
EndSplineSet
EndChar

StartChar: d
Encoding: 100 100 71
Width: 570
GlyphClass: 2
Flags: W
LayerCount: 2
Fore
SplineSet
448 721 m 2,0,-1
 456 721 l 2,1,2
 494 721 494 721 494 685 c 2,3,-1
 494 36 l 2,4,5
 494 0 494 0 456 0 c 2,6,-1
 448 0 l 2,7,8
 410 0 410 0 410 34 c 2,9,-1
 410 83 l 1,10,11
 388 44 388 44 347 18.5 c 128,-1,12
 306 -7 306 -7 254 -7 c 0,13,14
 165 -7 165 -7 107 54 c 128,-1,15
 49 115 49 115 49 241.5 c 128,-1,16
 49 368 49 368 113 435.5 c 128,-1,17
 177 503 177 503 276 503 c 0,18,19
 354 503 354 503 410 457 c 1,20,-1
 410 685 l 2,21,22
 410 721 410 721 448 721 c 2,0,-1
410 375 m 1,23,24
 357 430 357 430 283 430 c 128,-1,25
 209 430 209 430 170 382.5 c 128,-1,26
 131 335 131 335 131 240 c 128,-1,27
 131 145 131 145 171 103 c 128,-1,28
 211 61 211 61 277.5 61 c 128,-1,29
 344 61 344 61 377 111 c 128,-1,30
 410 161 410 161 410 235 c 2,31,-1
 410 375 l 1,23,24
EndSplineSet
EndChar

StartChar: e
Encoding: 101 101 72
Width: 515
GlyphClass: 2
Flags: W
LayerCount: 2
Fore
SplineSet
112 436 m 128,-1,1
 182 502 182 502 273 502 c 128,-1,2
 364 502 364 502 417 455.5 c 128,-1,3
 470 409 470 409 470 340 c 128,-1,4
 470 271 470 271 415.5 232.5 c 128,-1,5
 361 194 361 194 275 194 c 128,-1,6
 189 194 189 194 120 221 c 1,7,8
 120 148 120 148 170 103.5 c 128,-1,9
 220 59 220 59 292 59 c 0,10,11
 404 59 404 59 432 128 c 1,12,13
 449 128 449 128 461 118.5 c 128,-1,14
 473 109 473 109 473 91 c 0,15,16
 473 56 473 56 421.5 24 c 128,-1,17
 370 -8 370 -8 291 -8 c 0,18,19
 185 -8 185 -8 113.5 56 c 128,-1,20
 42 120 42 120 42 245 c 128,-1,0
 42 370 42 370 112 436 c 128,-1,1
360.5 409 m 128,-1,22
 327 436 327 436 268.5 436 c 128,-1,23
 210 436 210 436 166 389 c 128,-1,24
 122 342 122 342 121 283 c 1,25,26
 193 259 193 259 264 259 c 0,27,28
 394 259 394 259 394 343 c 0,29,21
 394 382 394 382 360.5 409 c 128,-1,22
EndSplineSet
EndChar

StartChar: f
Encoding: 102 102 73
Width: 374
GlyphClass: 2
Flags: W
LayerCount: 2
Fore
SplineSet
312 718 m 0,0,1
 358 718 358 718 388.5 697 c 128,-1,2
 419 676 419 676 419 644.5 c 128,-1,3
 419 613 419 613 387 602 c 1,4,5
 362 644 362 644 307 644 c 0,6,7
 203 644 203 644 203 500 c 2,8,-1
 203 490 l 1,9,-1
 326 490 l 2,10,11
 364 490 364 490 364 456.5 c 128,-1,12
 364 423 364 423 326 423 c 2,13,-1
 203 423 l 1,14,-1
 203 33 l 2,15,16
 203 13 203 13 194 4.5 c 128,-1,17
 185 -4 185 -4 165 -4 c 2,18,-1
 160 -4 l 2,19,20
 139 -4 139 -4 130 4.5 c 128,-1,21
 121 13 121 13 121 33 c 2,22,-1
 121 423 l 1,23,-1
 69 423 l 2,24,25
 48 423 48 423 39.5 429.5 c 128,-1,26
 31 436 31 436 31 456 c 128,-1,27
 31 476 31 476 40 483 c 128,-1,28
 49 490 49 490 69 490 c 2,29,-1
 121 490 l 1,30,-1
 121 522 l 2,31,32
 121 615 121 615 172 666.5 c 128,-1,33
 223 718 223 718 312 718 c 0,0,1
EndSplineSet
EndChar

StartChar: g
Encoding: 103 103 74
Width: 528
GlyphClass: 2
Flags: W
LayerCount: 2
Fore
SplineSet
251 143 m 1,0,-1
 206 145 l 1,1,2
 182 145 182 145 165 132.5 c 128,-1,3
 148 120 148 120 148 105 c 0,4,5
 148 67 148 67 212 67 c 2,6,-1
 286 67 l 2,7,8
 499 67 499 67 499 -64 c 0,9,10
 499 -133 499 -133 432.5 -176 c 128,-1,11
 366 -219 366 -219 262 -223 c 1,12,-1
 238 -223 l 2,13,14
 153 -223 153 -223 93 -189 c 128,-1,15
 33 -155 33 -155 33 -109 c 0,16,17
 33 -87 33 -87 43.5 -74 c 128,-1,18
 54 -61 54 -61 71 -59 c 1,19,20
 83 -84 83 -84 108 -104 c 0,21,22
 164 -150 164 -150 251 -150 c 2,23,-1
 258 -150 l 2,24,25
 333 -150 333 -150 375.5 -127 c 128,-1,26
 418 -104 418 -104 418 -69.5 c 128,-1,27
 418 -35 418 -35 380.5 -19.5 c 128,-1,28
 343 -4 343 -4 251.5 -4 c 128,-1,29
 160 -4 160 -4 114 14 c 128,-1,30
 68 32 68 32 68 84 c 128,-1,31
 68 136 68 136 141 166 c 1,32,33
 54 215 54 215 54 322 c 0,34,35
 54 407 54 407 112 454 c 128,-1,36
 170 501 170 501 255 501 c 0,37,38
 298 501 298 501 334.5 483 c 128,-1,39
 371 465 371 465 390 444 c 1,40,41
 428 469 428 469 428 535 c 1,42,43
 455 535 455 535 476 518.5 c 128,-1,44
 497 502 497 502 497 477 c 0,45,46
 497 427 497 427 423 405 c 1,47,48
 445 375 445 375 445 317 c 0,49,50
 445 232 445 232 389.5 187.5 c 128,-1,51
 334 143 334 143 251 143 c 1,0,-1
251 437 m 128,-1,53
 200 437 200 437 166 408.5 c 128,-1,54
 132 380 132 380 132 321 c 128,-1,55
 132 262 132 262 166 233.5 c 128,-1,56
 200 205 200 205 251 205 c 128,-1,57
 302 205 302 205 335.5 233.5 c 128,-1,58
 369 262 369 262 369 321 c 128,-1,59
 369 380 369 380 335.5 408.5 c 128,-1,52
 302 437 302 437 251 437 c 128,-1,53
EndSplineSet
EndChar

StartChar: h
Encoding: 104 104 75
Width: 564
GlyphClass: 2
Flags: W
LayerCount: 2
Fore
SplineSet
111 701 m 2,0,-1
 118 701 l 2,1,2
 156 701 156 701 156 663 c 2,3,-1
 156 393 l 1,4,5
 173 437 173 437 214 468 c 128,-1,6
 255 499 255 499 310 499 c 0,7,8
 394 499 394 499 444 451.5 c 128,-1,9
 494 404 494 404 494 298 c 2,10,-1
 494 38 l 2,11,12
 494 18 494 18 485 9 c 128,-1,13
 476 0 476 0 456 0 c 2,14,-1
 448 0 l 2,15,16
 411 0 411 0 411 38 c 2,17,-1
 411 293 l 2,18,19
 411 432 411 432 291 432 c 0,20,21
 228 432 228 432 192.5 380 c 128,-1,22
 157 328 157 328 157 249 c 2,23,-1
 157 38 l 2,24,25
 157 0 157 0 118 0 c 2,26,-1
 111 0 l 2,27,28
 91 0 91 0 82 9 c 128,-1,29
 73 18 73 18 73 38 c 2,30,-1
 73 663 l 2,31,32
 73 701 73 701 111 701 c 2,0,-1
EndSplineSet
EndChar

StartChar: i
Encoding: 105 105 76
Width: 262
GlyphClass: 2
Flags: W
LayerCount: 2
Fore
SplineSet
128 493 m 2,0,-1
 134 493 l 2,1,2
 172 493 172 493 172 456 c 2,3,-1
 172 38 l 2,4,5
 172 0 172 0 134 0 c 2,6,-1
 128 0 l 2,7,8
 90 0 90 0 90 38 c 2,9,-1
 90 456 l 2,10,11
 90 493 90 493 128 493 c 2,0,-1
92 673.5 m 128,-1,13
 108 690 108 690 130.5 690 c 128,-1,14
 153 690 153 690 169.5 673.5 c 128,-1,15
 186 657 186 657 186 634.5 c 128,-1,16
 186 612 186 612 170 595.5 c 128,-1,17
 154 579 154 579 131 579 c 128,-1,18
 108 579 108 579 92 595 c 128,-1,19
 76 611 76 611 76 634 c 128,-1,12
 76 657 76 657 92 673.5 c 128,-1,13
EndSplineSet
EndChar

StartChar: j
Encoding: 106 106 77
Width: 282
GlyphClass: 2
Flags: W
LayerCount: 2
Fore
SplineSet
148 492 m 2,0,-1
 154 492 l 2,1,2
 192 492 192 492 192 455 c 2,3,-1
 192 22 l 2,4,5
 192 -94 192 -94 156.5 -151.5 c 128,-1,6
 121 -209 121 -209 34 -209 c 0,7,8
 -16 -209 -16 -209 -40 -193.5 c 128,-1,9
 -64 -178 -64 -178 -64 -151 c 128,-1,10
 -64 -124 -64 -124 -39 -108 c 1,11,12
 -33 -117 -33 -117 -11 -126.5 c 128,-1,13
 11 -136 11 -136 35 -136 c 0,14,15
 80 -136 80 -136 94.5 -98.5 c 128,-1,16
 109 -61 109 -61 109 22 c 2,17,-1
 109 455 l 2,18,19
 109 492 109 492 148 492 c 2,0,-1
112 672.5 m 128,-1,21
 128 689 128 689 150.5 689 c 128,-1,22
 173 689 173 689 189 672.5 c 128,-1,23
 205 656 205 656 205 633.5 c 128,-1,24
 205 611 205 611 189 595 c 128,-1,25
 173 579 173 579 150.5 579 c 128,-1,26
 128 579 128 579 112 595 c 128,-1,27
 96 611 96 611 96 633.5 c 128,-1,20
 96 656 96 656 112 672.5 c 128,-1,21
EndSplineSet
EndChar

StartChar: k
Encoding: 107 107 78
Width: 505
GlyphClass: 2
Flags: W
LayerCount: 2
Fore
SplineSet
113 701 m 2,0,-1
 119 701 l 2,1,2
 139 701 139 701 148 692 c 128,-1,3
 157 683 157 683 157 663 c 2,4,-1
 157 296 l 1,5,6
 216 337 216 337 270.5 389 c 128,-1,7
 325 441 325 441 353.5 467 c 128,-1,8
 382 493 382 493 404 493 c 2,9,-1
 432 493 l 2,10,11
 444 493 444 493 451.5 486.5 c 128,-1,12
 459 480 459 480 459 471 c 0,13,14
 459 438 459 438 237 281 c 1,15,16
 290 239 290 239 359.5 165 c 128,-1,17
 429 91 429 91 469 37 c 0,18,19
 475 28 475 28 475 20 c 0,20,21
 475 0 475 0 450 0 c 2,22,-1
 426 0 l 2,23,24
 394 0 394 0 380 19 c 0,25,26
 274 158 274 158 157 254 c 1,27,-1
 157 38 l 2,28,29
 157 18 157 18 148 9 c 128,-1,30
 139 0 139 0 119 0 c 2,31,-1
 113 0 l 2,32,33
 93 0 93 0 84 9 c 128,-1,34
 75 18 75 18 75 38 c 2,35,-1
 75 663 l 2,36,37
 75 683 75 683 84 692 c 128,-1,38
 93 701 93 701 113 701 c 2,0,-1
EndSplineSet
EndChar

StartChar: l
Encoding: 108 108 79
Width: 241
GlyphClass: 2
Flags: W
LayerCount: 2
Fore
SplineSet
117 701 m 2,0,-1
 124 701 l 2,1,2
 162 701 162 701 162 664 c 2,3,-1
 162 38 l 2,4,5
 162 0 162 0 124 0 c 2,6,-1
 117 0 l 2,7,8
 96 0 96 0 87.5 9 c 128,-1,9
 79 18 79 18 79 38 c 2,10,-1
 79 664 l 2,11,12
 79 684 79 684 87.5 692.5 c 128,-1,13
 96 701 96 701 117 701 c 2,0,-1
EndSplineSet
EndChar

StartChar: m
Encoding: 109 109 80
Width: 847
GlyphClass: 2
Flags: W
LayerCount: 2
Fore
SplineSet
111 493 m 2,0,-1
 117 493 l 2,1,2
 156 493 156 493 156 455 c 2,3,-1
 156 413 l 1,4,5
 202 500 202 500 297 500 c 0,6,7
 358 500 358 500 398.5 467.5 c 128,-1,8
 439 435 439 435 454 377 c 1,9,10
 470 435 470 435 513 468 c 128,-1,11
 556 501 556 501 612 501 c 0,12,13
 784 501 784 501 784 300 c 2,14,-1
 784 37 l 2,15,16
 784 0 784 0 744 0 c 2,17,-1
 738 0 l 2,18,19
 700 0 700 0 700 37 c 2,20,-1
 700 295 l 2,21,22
 700 432 700 432 596 432 c 0,23,24
 523 432 523 432 496.5 379 c 128,-1,25
 470 326 470 326 470 235 c 2,26,-1
 470 37 l 2,27,28
 470 0 470 0 431 0 c 2,29,-1
 424 0 l 2,30,31
 386 0 386 0 386 37 c 2,32,-1
 386 295 l 2,33,34
 386 432 386 432 281 432 c 0,35,36
 156 432 156 432 156 238 c 2,37,-1
 156 37 l 2,38,39
 156 0 156 0 117 0 c 2,40,-1
 111 0 l 2,41,42
 73 0 73 0 73 37 c 2,43,-1
 73 455 l 2,44,45
 73 493 73 493 111 493 c 2,0,-1
EndSplineSet
EndChar

StartChar: n
Encoding: 110 110 81
Width: 557
GlyphClass: 2
Flags: W
LayerCount: 2
Fore
SplineSet
111 493 m 2,0,-1
 118 493 l 2,1,2
 156 493 156 493 156 455 c 2,3,-1
 156 406 l 1,4,5
 175 444 175 444 216 473 c 128,-1,6
 257 502 257 502 310 502 c 0,7,8
 391 502 391 502 442.5 453.5 c 128,-1,9
 494 405 494 405 494 300 c 2,10,-1
 494 38 l 2,11,12
 494 18 494 18 485 9 c 128,-1,13
 476 0 476 0 456 0 c 2,14,-1
 448 0 l 2,15,16
 411 0 411 0 411 38 c 2,17,-1
 411 297 l 2,18,19
 411 370 411 370 380 401 c 128,-1,20
 349 432 349 432 290 432 c 128,-1,21
 231 432 231 432 194 384 c 128,-1,22
 157 336 157 336 157 257 c 2,23,-1
 157 38 l 2,24,25
 157 0 157 0 118 0 c 2,26,-1
 111 0 l 2,27,28
 91 0 91 0 82 9 c 128,-1,29
 73 18 73 18 73 38 c 2,30,-1
 73 455 l 2,31,32
 73 493 73 493 111 493 c 2,0,-1
EndSplineSet
EndChar

StartChar: o
Encoding: 111 111 82
Width: 574
GlyphClass: 2
Flags: W
LayerCount: 2
Fore
SplineSet
287 502 m 128,-1,1
 390 502 390 502 461 435 c 128,-1,2
 532 368 532 368 532 246 c 128,-1,3
 532 124 532 124 461 58 c 128,-1,4
 390 -8 390 -8 287 -8 c 128,-1,5
 184 -8 184 -8 113 58 c 128,-1,6
 42 124 42 124 42 246 c 128,-1,7
 42 368 42 368 113 435 c 128,-1,0
 184 502 184 502 287 502 c 128,-1,1
287 433 m 128,-1,9
 216 433 216 433 171.5 384.5 c 128,-1,10
 127 336 127 336 127 246.5 c 128,-1,11
 127 157 127 157 171.5 108.5 c 128,-1,12
 216 60 216 60 287 60 c 128,-1,13
 358 60 358 60 402.5 108.5 c 128,-1,14
 447 157 447 157 447 246.5 c 128,-1,15
 447 336 447 336 402.5 384.5 c 128,-1,8
 358 433 358 433 287 433 c 128,-1,9
EndSplineSet
EndChar

StartChar: p
Encoding: 112 112 83
Width: 570
GlyphClass: 2
Flags: W
LayerCount: 2
Fore
SplineSet
110 493 m 2,0,-1
 117 493 l 2,1,2
 155 493 155 493 155 458 c 2,3,-1
 155 419 l 1,4,5
 176 454 176 454 218 478 c 128,-1,6
 260 502 260 502 309 502 c 0,7,8
 402 502 402 502 459.5 439.5 c 128,-1,9
 517 377 517 377 517 249.5 c 128,-1,10
 517 122 517 122 449.5 57 c 128,-1,11
 382 -8 382 -8 284 -8 c 0,12,13
 217 -8 217 -8 155 26 c 1,14,-1
 155 -189 l 2,15,16
 155 -226 155 -226 117 -226 c 2,17,-1
 110 -226 l 2,18,19
 72 -226 72 -226 72 -189 c 2,20,-1
 72 456 l 2,21,22
 72 493 72 493 110 493 c 2,0,-1
394 388.5 m 128,-1,24
 354 432 354 432 286 432 c 128,-1,25
 218 432 218 432 186.5 372 c 128,-1,26
 155 312 155 312 155 216 c 2,27,-1
 155 91 l 1,28,29
 165 84 165 84 204.5 72.5 c 128,-1,30
 244 61 244 61 284 61 c 0,31,32
 351 61 351 61 392.5 108 c 128,-1,33
 434 155 434 155 434 250 c 128,-1,23
 434 345 434 345 394 388.5 c 128,-1,24
EndSplineSet
EndChar

StartChar: q
Encoding: 113 113 84
Width: 570
GlyphClass: 2
Flags: W
LayerCount: 2
Fore
SplineSet
286 502 m 0,0,1
 360 502 360 502 459 471 c 0,2,3
 494 459 494 459 494 422 c 2,4,-1
 494 -189 l 2,5,6
 494 -226 494 -226 456 -226 c 2,7,-1
 448 -226 l 2,8,9
 410 -226 410 -226 410 -189 c 2,10,-1
 410 73 l 1,11,12
 388 35 388 35 345 14 c 128,-1,13
 302 -7 302 -7 253 -7 c 0,14,15
 164 -7 164 -7 106 53.5 c 128,-1,16
 48 114 48 114 48 240 c 128,-1,17
 48 366 48 366 116.5 434 c 128,-1,18
 185 502 185 502 286 502 c 0,0,1
281 433 m 0,19,20
 215 433 215 433 173 383 c 128,-1,21
 131 333 131 333 131 238 c 0,22,23
 131 62 131 62 276 62 c 0,24,25
 346 62 346 62 378 114 c 128,-1,26
 410 166 410 166 410 241 c 2,27,-1
 410 403 l 1,28,29
 400 410 400 410 360.5 421.5 c 128,-1,30
 321 433 321 433 281 433 c 0,19,20
EndSplineSet
EndChar

StartChar: r
Encoding: 114 114 85
Width: 406
GlyphClass: 2
Flags: W
LayerCount: 2
Fore
SplineSet
111 493 m 2,0,-1
 117 493 l 2,1,2
 155 493 155 493 155 456 c 2,3,-1
 155 402 l 1,4,5
 172 440 172 440 209.5 470 c 128,-1,6
 247 500 247 500 290 500 c 128,-1,7
 333 500 333 500 355.5 483 c 128,-1,8
 378 466 378 466 378 441.5 c 128,-1,9
 378 417 378 417 357 403 c 1,10,11
 326 429 326 429 291 429 c 0,12,13
 229 429 229 429 193 378.5 c 128,-1,14
 157 328 157 328 157 252 c 2,15,-1
 157 38 l 2,16,17
 157 18 157 18 148 9 c 128,-1,18
 139 0 139 0 119 0 c 2,19,-1
 111 0 l 2,20,21
 91 0 91 0 82 9 c 128,-1,22
 73 18 73 18 73 38 c 2,23,-1
 73 456 l 2,24,25
 73 493 73 493 111 493 c 2,0,-1
EndSplineSet
EndChar

StartChar: s
Encoding: 115 115 86
Width: 463
GlyphClass: 2
Flags: W
LayerCount: 2
Fore
SplineSet
111.5 463.5 m 128,-1,1
 170 503 170 503 242 503 c 128,-1,2
 314 503 314 503 353.5 482.5 c 128,-1,3
 393 462 393 462 393 434 c 128,-1,4
 393 406 393 406 354 393 c 1,5,6
 347 409 347 409 315.5 423 c 128,-1,7
 284 437 284 437 238 437 c 128,-1,8
 192 437 192 437 162.5 419.5 c 128,-1,9
 133 402 133 402 133 370.5 c 128,-1,10
 133 339 133 339 155 322 c 128,-1,11
 177 305 177 305 258.5 286.5 c 128,-1,12
 340 268 340 268 383 233 c 128,-1,13
 426 198 426 198 426 135 c 128,-1,14
 426 72 426 72 368 32.5 c 128,-1,15
 310 -7 310 -7 225.5 -7 c 128,-1,16
 141 -7 141 -7 90.5 14.5 c 128,-1,17
 40 36 40 36 40 71 c 128,-1,18
 40 106 40 106 73 122 c 1,19,20
 87 95 87 95 127 76 c 128,-1,21
 167 57 167 57 227 57 c 128,-1,22
 287 57 287 57 318.5 79 c 128,-1,23
 350 101 350 101 350 133.5 c 128,-1,24
 350 166 350 166 321.5 184.5 c 128,-1,25
 293 203 293 203 210.5 221 c 128,-1,26
 128 239 128 239 90.5 272.5 c 128,-1,27
 53 306 53 306 53 356 c 0,28,0
 53 424 53 424 111.5 463.5 c 128,-1,1
EndSplineSet
EndChar

StartChar: t
Encoding: 116 116 87
Width: 401
GlyphClass: 2
Flags: W
LayerCount: 2
Fore
SplineSet
154 626 m 2,0,-1
 161 626 l 2,1,2
 199 626 199 626 199 589 c 2,3,-1
 199 490 l 1,4,-1
 337 490 l 2,5,6
 376 490 376 490 376 456 c 128,-1,7
 376 422 376 422 337 422 c 2,8,-1
 199 422 l 1,9,-1
 199 170 l 2,10,11
 199 107 199 107 223.5 81.5 c 128,-1,12
 248 56 248 56 295.5 56 c 128,-1,13
 343 56 343 56 366 79 c 1,14,15
 391 71 391 71 391 47 c 128,-1,16
 391 23 391 23 358 7.5 c 128,-1,17
 325 -8 325 -8 279 -8 c 0,18,19
 116 -8 116 -8 116 170 c 2,20,-1
 116 422 l 1,21,-1
 67 422 l 2,22,23
 45 422 45 422 35 429 c 128,-1,24
 25 436 25 436 25 456 c 0,25,26
 25 490 25 490 67 490 c 2,27,-1
 116 490 l 1,28,-1
 116 589 l 2,29,30
 116 626 116 626 154 626 c 2,0,-1
EndSplineSet
EndChar

StartChar: u
Encoding: 117 117 88
Width: 559
GlyphClass: 2
Flags: W
LayerCount: 2
Fore
SplineSet
99 492 m 2,0,-1
 106 492 l 2,1,2
 144 492 144 492 144 455 c 2,3,-1
 144 198 l 2,4,5
 144 61 144 61 265 61 c 0,6,7
 311 61 311 61 342 88 c 0,8,9
 398 136 398 136 398 232 c 2,10,-1
 398 455 l 2,11,12
 398 492 398 492 437 492 c 2,13,-1
 444 492 l 2,14,15
 464 492 464 492 472.5 483.5 c 128,-1,16
 481 475 481 475 481 455 c 2,17,-1
 481 37 l 2,18,19
 481 17 481 17 472 8.5 c 128,-1,20
 463 0 463 0 443 0 c 2,21,-1
 437 0 l 2,22,23
 398 0 398 0 398 37 c 2,24,-1
 398 87 l 1,25,26
 384 55 384 55 338.5 23.5 c 128,-1,27
 293 -8 293 -8 241 -8 c 0,28,29
 61 -8 61 -8 61 193 c 2,30,-1
 61 455 l 2,31,32
 61 492 61 492 99 492 c 2,0,-1
EndSplineSet
EndChar

StartChar: v
Encoding: 118 118 89
Width: 510
GlyphClass: 2
Flags: W
LayerCount: 2
Fore
SplineSet
60 492 m 2,0,-1
 83 492 l 2,1,2
 115 492 115 492 122 461 c 0,3,4
 188 203 188 203 249 80 c 1,5,-1
 261 80 l 1,6,7
 322 203 322 203 388 461 c 0,8,9
 395 492 395 492 427 492 c 2,10,-1
 450 492 l 2,11,12
 481 492 481 492 481 470 c 0,13,14
 481 464 481 464 478 456 c 0,15,16
 401 193 401 193 328 49 c 0,17,18
 315 23 315 23 301 11.5 c 128,-1,19
 287 0 287 0 260 0 c 2,20,-1
 251 0 l 2,21,22
 223 0 223 0 209 11.5 c 128,-1,23
 195 23 195 23 182 49 c 0,24,25
 109 193 109 193 32 456 c 0,26,27
 29 464 29 464 29 470 c 0,28,29
 29 492 29 492 60 492 c 2,0,-1
EndSplineSet
EndChar

StartChar: w
Encoding: 119 119 90
Width: 751
GlyphClass: 2
Flags: W
LayerCount: 2
Fore
SplineSet
63 492 m 2,0,-1
 79 492 l 2,1,2
 108 492 108 492 115 461 c 0,3,4
 182 190 182 190 219 73 c 1,5,-1
 231 73 l 1,6,7
 239 107 239 107 275 245.5 c 128,-1,8
 311 384 311 384 329 461 c 0,9,10
 336 492 336 492 368 492 c 2,11,-1
 383 492 l 2,12,13
 415 492 415 492 422 461 c 0,14,15
 439 387 439 387 474.5 255 c 128,-1,16
 510 123 510 123 522 73 c 1,17,-1
 534 73 l 1,18,19
 568 180 568 180 599 309 c 128,-1,20
 630 438 630 438 636 461 c 0,21,22
 643 492 643 492 672 492 c 2,23,-1
 688 492 l 2,24,25
 721 492 721 492 721 470 c 0,26,27
 721 466 721 466 715.5 445 c 128,-1,28
 710 424 710 424 692.5 355 c 128,-1,29
 675 286 675 286 664 246 c 0,30,31
 633 135 633 135 601 49 c 0,32,33
 582 0 582 0 532 0 c 2,34,-1
 523 0 l 2,35,36
 495 0 495 0 482 11.5 c 128,-1,37
 469 23 469 23 461 49 c 0,38,39
 402 247 402 247 378 392 c 1,40,-1
 372 392 l 1,41,42
 344 224 344 224 292 49 c 0,43,44
 284 23 284 23 271 11.5 c 128,-1,45
 258 0 258 0 230 0 c 2,46,-1
 221 0 l 2,47,48
 171 0 171 0 153 47 c 128,-1,49
 135 94 135 94 116.5 152.5 c 128,-1,50
 98 211 98 211 89 244 c 128,-1,51
 80 277 80 277 58 358 c 0,52,53
 30 465 30 465 30 470 c 0,54,55
 30 492 30 492 63 492 c 2,0,-1
EndSplineSet
EndChar

StartChar: x
Encoding: 120 120 91
Width: 528
GlyphClass: 2
Flags: W
LayerCount: 2
Fore
SplineSet
83 493 m 2,0,-1
 114 493 l 2,1,2
 139 493 139 493 155 469 c 2,3,-1
 268 296 l 1,4,5
 311 349 311 349 383 469 c 0,6,7
 398 493 398 493 422 493 c 2,8,-1
 440 493 l 2,9,10
 469 493 469 493 469 470 c 0,11,12
 469 462 469 462 465 455 c 0,13,14
 408 358 408 358 313 247 c 1,15,-1
 470 38 l 2,16,17
 478 27 478 27 478 18 c 0,18,19
 478 0 478 0 457 0 c 2,20,-1
 418 0 l 2,21,22
 393 0 393 0 373 28 c 2,23,-1
 260 191 l 1,24,25
 244 175 244 175 223 144 c 128,-1,26
 202 113 202 113 192 99 c 0,27,28
 162 54 162 54 144 24 c 1,29,30
 128 0 128 0 103 0 c 2,31,-1
 85 0 l 2,32,33
 73 0 73 0 65 8 c 128,-1,34
 57 16 57 16 57 25.5 c 128,-1,35
 57 35 57 35 63 44 c 0,36,37
 131 144 131 144 218 241 c 1,38,-1
 62 455 l 2,39,40
 56 462 56 462 56 471 c 128,-1,41
 56 480 56 480 63.5 486.5 c 128,-1,42
 71 493 71 493 83 493 c 2,0,-1
EndSplineSet
EndChar

StartChar: y
Encoding: 121 121 92
Width: 517
GlyphClass: 2
Flags: W
LayerCount: 2
Fore
SplineSet
58 492 m 2,0,-1
 77 492 l 2,1,2
 109 492 109 492 116 461 c 0,3,4
 177 221 177 221 251 73 c 1,5,-1
 260 73 l 1,6,7
 344 280 344 280 395 461 c 0,8,9
 404 492 404 492 434 492 c 2,10,-1
 450 492 l 2,11,12
 481 492 481 492 481 470 c 0,13,14
 481 464 481 464 478 456 c 0,15,16
 362 94 362 94 226 -194 c 0,17,18
 218 -211 218 -211 209.5 -218.5 c 128,-1,19
 201 -226 201 -226 183 -226 c 2,20,-1
 158 -226 l 2,21,22
 134 -226 134 -226 134 -203 c 0,23,24
 134 -196 134 -196 145 -174 c 0,25,26
 219 -31 219 -31 232 1 c 1,27,-1
 230 1 l 1,28,29
 212 4 212 4 207 9.5 c 128,-1,30
 202 15 202 15 200 16.5 c 128,-1,31
 198 18 198 18 195 23.5 c 128,-1,32
 192 29 192 29 191 30.5 c 128,-1,33
 190 32 190 32 186.5 39.5 c 128,-1,34
 183 47 183 47 182 49 c 0,35,36
 105 203 105 203 30 456 c 0,37,38
 27 464 27 464 27 470 c 0,39,40
 27 492 27 492 58 492 c 2,0,-1
EndSplineSet
EndChar

StartChar: z
Encoding: 122 122 93
Width: 497
GlyphClass: 2
Flags: W
LayerCount: 2
Fore
SplineSet
98 493 m 2,0,-1
 399 493 l 2,1,2
 422 493 422 493 436 479.5 c 128,-1,3
 450 466 450 466 450 443 c 2,4,-1
 450 435 l 2,5,6
 450 411 450 411 427 387.5 c 128,-1,7
 404 364 404 364 297 249.5 c 128,-1,8
 190 135 190 135 135 77 c 1,9,-1
 135 73 l 1,10,-1
 392 73 l 2,11,12
 443 73 443 73 451 58 c 0,13,14
 455 50 455 50 455 37 c 0,15,16
 455 0 455 0 419 0 c 2,17,-1
 98 0 l 2,18,19
 47 0 47 0 47 50 c 2,20,-1
 47 60 l 2,21,22
 47 81 47 81 73 109 c 0,23,24
 119 158 119 158 209.5 260 c 128,-1,25
 300 362 300 362 346 411 c 1,26,-1
 346 420 l 1,27,-1
 98 420 l 2,28,29
 61 420 61 420 61 456.5 c 128,-1,30
 61 493 61 493 98 493 c 2,0,-1
EndSplineSet
EndChar

StartChar: braceleft
Encoding: 123 123 94
Width: 372
GlyphClass: 2
Flags: W
LayerCount: 2
Fore
SplineSet
86 271 m 2,0,-1
 91 271 l 2,1,2
 146 271 146 271 146 390 c 2,3,-1
 146 566 l 2,4,5
 146 634 146 634 177 664.5 c 128,-1,6
 208 695 208 695 277 695 c 2,7,-1
 284 695 l 2,8,9
 322 695 322 695 322 657 c 128,-1,10
 322 619 322 619 284 619 c 2,11,-1
 275 619 l 2,12,13
 228 619 228 619 228 573 c 2,14,-1
 228 390 l 2,15,16
 228 288 228 288 175 232 c 1,17,18
 228 174 228 174 228 65 c 2,19,-1
 228 -102 l 2,20,21
 228 -148 228 -148 275 -148 c 2,22,-1
 284 -148 l 2,23,24
 322 -148 322 -148 322 -185.5 c 128,-1,25
 322 -223 322 -223 284 -223 c 2,26,-1
 277 -223 l 2,27,28
 208 -223 208 -223 177 -193 c 128,-1,29
 146 -163 146 -163 146 -96 c 2,30,-1
 146 65 l 2,31,32
 146 195 146 195 91 195 c 2,33,-1
 86 195 l 2,34,35
 49 195 49 195 49 233 c 128,-1,36
 49 271 49 271 86 271 c 2,0,-1
EndSplineSet
EndChar

StartChar: bar
Encoding: 124 124 95
Width: 256
GlyphClass: 2
Flags: W
LayerCount: 2
Fore
SplineSet
125 731 m 2,0,-1
 132 731 l 2,1,2
 170 731 170 731 170 694 c 2,3,-1
 170 -12 l 2,4,5
 170 -50 170 -50 132 -50 c 2,6,-1
 125 -50 l 2,7,8
 104 -50 104 -50 95.5 -41 c 128,-1,9
 87 -32 87 -32 87 -12 c 2,10,-1
 87 694 l 2,11,12
 87 714 87 714 95.5 722.5 c 128,-1,13
 104 731 104 731 125 731 c 2,0,-1
EndSplineSet
EndChar

StartChar: braceright
Encoding: 125 125 96
Width: 372
GlyphClass: 2
Flags: W
LayerCount: 2
Fore
SplineSet
285 193 m 2,0,-1
 280 193 l 2,1,2
 226 193 226 193 226 58 c 2,3,-1
 226 -61 l 2,4,5
 226 -147 226 -147 197.5 -185 c 128,-1,6
 169 -223 169 -223 93 -223 c 2,7,-1
 90 -223 l 2,8,9
 50 -223 50 -223 50 -185 c 128,-1,10
 50 -147 50 -147 90 -147 c 2,11,-1
 95 -147 l 2,12,13
 121 -147 121 -147 132 -136.5 c 128,-1,14
 143 -126 143 -126 143 -101 c 2,15,-1
 143 71 l 2,16,17
 143 171 143 171 196 232 c 1,18,19
 143 285 143 285 143 395 c 2,20,-1
 143 573 l 2,21,22
 143 618 143 618 95 618 c 2,23,-1
 90 618 l 2,24,25
 50 618 50 618 50 656 c 128,-1,26
 50 694 50 694 87 694 c 2,27,-1
 94 694 l 2,28,29
 167 694 167 694 196.5 660.5 c 128,-1,30
 226 627 226 627 226 549 c 2,31,-1
 226 407 l 2,32,33
 226 335 226 335 239 302.5 c 128,-1,34
 252 270 252 270 282 270 c 2,35,-1
 283 270 l 2,36,37
 322 270 322 270 322 231.5 c 128,-1,38
 322 193 322 193 285 193 c 2,0,-1
EndSplineSet
EndChar

StartChar: asciitilde
Encoding: 126 126 97
Width: 399
GlyphClass: 2
Flags: W
LayerCount: 2
Fore
SplineSet
190 565 m 0,0,1
 154 581 154 581 127 581 c 128,-1,2
 100 581 100 581 88.5 567.5 c 128,-1,3
 77 554 77 554 61.5 558 c 128,-1,4
 46 562 46 562 46 579 c 0,5,6
 46 615 46 615 69.5 633.5 c 128,-1,7
 93 652 93 652 130 652 c 0,8,9
 145 652 145 652 154.5 650 c 128,-1,10
 164 648 164 648 167.5 647.5 c 128,-1,11
 171 647 171 647 179 644 c 128,-1,12
 187 641 187 641 189 640 c 128,-1,13
 191 639 191 639 201.5 634.5 c 128,-1,14
 212 630 212 630 214 629 c 0,15,16
 250 613 250 613 277 613 c 128,-1,17
 304 613 304 613 315.5 626.5 c 128,-1,18
 327 640 327 640 342.5 636 c 128,-1,19
 358 632 358 632 358 615 c 0,20,21
 358 579 358 579 334.5 560.5 c 128,-1,22
 311 542 311 542 274 542 c 0,23,24
 259 542 259 542 249.5 544 c 128,-1,25
 240 546 240 546 236.5 546.5 c 128,-1,26
 233 547 233 547 225 550 c 128,-1,27
 217 553 217 553 215 554 c 128,-1,28
 213 555 213 555 202.5 559.5 c 128,-1,29
 192 564 192 564 190 565 c 0,0,1
EndSplineSet
EndChar

StartChar: exclamdown
Encoding: 161 161 98
Width: 261
GlyphClass: 2
Flags: W
LayerCount: 2
Fore
SplineSet
127 466 m 2,0,-1
 132 466 l 2,1,2
 165 466 165 466 165 431 c 1,3,-1
 185 40 l 1,4,5
 185 -8 185 -8 138 -8 c 2,6,-1
 122 -8 l 2,7,8
 75 -8 75 -8 75 40 c 1,9,-1
 94 431 l 2,10,11
 95 466 95 466 127 466 c 2,0,-1
177 567 m 128,-1,13
 158 549 158 549 130.5 549 c 128,-1,14
 103 549 103 549 84 567 c 128,-1,15
 65 585 65 585 65 614 c 128,-1,16
 65 643 65 643 84 661 c 128,-1,17
 103 679 103 679 130.5 679 c 128,-1,18
 158 679 158 679 177 661 c 128,-1,19
 196 643 196 643 196 614 c 128,-1,12
 196 585 196 585 177 567 c 128,-1,13
EndSplineSet
EndChar

StartChar: cent
Encoding: 162 162 99
Width: 550
GlyphClass: 2
Flags: W
LayerCount: 2
Fore
SplineSet
430 559 m 128,-1,1
 474 533 474 533 474 500 c 0,2,3
 474 462 474 462 430 457 c 1,4,5
 419 480 419 480 389 497.5 c 128,-1,6
 359 515 359 515 311 515 c 0,7,8
 243 515 243 515 195 467.5 c 128,-1,9
 147 420 147 420 147 329 c 128,-1,10
 147 238 147 238 193.5 191 c 128,-1,11
 240 144 240 144 310 144 c 0,12,13
 412 144 412 144 445 205 c 1,14,15
 462 205 462 205 473 193 c 128,-1,16
 484 181 484 181 484 168 c 0,17,18
 484 132 484 132 436.5 103.5 c 128,-1,19
 389 75 389 75 308 75 c 0,20,21
 211 75 211 75 140 134 c 0,22,23
 104 163 104 163 83 213 c 128,-1,24
 62 263 62 263 62 329.5 c 128,-1,25
 62 396 62 396 83.5 447.5 c 128,-1,26
 105 499 105 499 142 528 c 0,27,28
 213 585 213 585 299.5 585 c 128,-1,0
 386 585 386 585 430 559 c 128,-1,1
356 643 m 2,29,30
 368 678 368 678 405 678 c 128,-1,31
 442 678 442 678 442 652 c 0,32,33
 442 648 442 648 438 634 c 2,34,-1
 226 35 l 2,35,36
 214 0 214 0 177 0 c 128,-1,37
 140 0 140 0 140 25 c 0,38,39
 140 35 140 35 144 44 c 2,40,-1
 356 643 l 2,29,30
EndSplineSet
EndChar

StartChar: sterling
Encoding: 163 163 100
Width: 574
GlyphClass: 2
Flags: W
LayerCount: 2
Fore
SplineSet
487 0 m 2,0,-1
 101 0 l 2,1,2
 75 0 75 0 55 14.5 c 128,-1,3
 35 29 35 29 35 58 c 128,-1,4
 35 87 35 87 65 103 c 128,-1,5
 95 119 95 119 105 142 c 128,-1,6
 115 165 115 165 115 222 c 2,7,-1
 115 297 l 1,8,-1
 67 297 l 2,9,10
 29 297 29 297 29 332 c 128,-1,11
 29 367 29 367 67 367 c 2,12,-1
 114 367 l 1,13,-1
 114 495 l 2,14,15
 114 589 114 589 169.5 633.5 c 128,-1,16
 225 678 225 678 316.5 678 c 128,-1,17
 408 678 408 678 456.5 645 c 128,-1,18
 505 612 505 612 505 560 c 0,19,20
 505 534 505 534 488 518 c 128,-1,21
 471 502 471 502 447 500 c 1,22,23
 444 554 444 554 412 578 c 128,-1,24
 380 602 380 602 320.5 602 c 128,-1,25
 261 602 261 602 228.5 572.5 c 128,-1,26
 196 543 196 543 196 495 c 2,27,-1
 196 368 l 1,28,29
 241 369 241 369 332 369 c 0,30,31
 370 369 370 369 370 331 c 0,32,33
 370 305 370 305 350 300 c 0,34,35
 335 296 335 296 306 296 c 2,36,-1
 196 296 l 1,37,-1
 196 184 l 2,38,39
 196 103 196 103 143 74 c 1,40,-1
 460 74 l 2,41,42
 485 74 485 74 495 73 c 128,-1,43
 505 72 505 72 515 63.5 c 128,-1,44
 525 55 525 55 525 37 c 0,45,46
 525 0 525 0 487 0 c 2,0,-1
EndSplineSet
EndChar

StartChar: currency
Encoding: 164 164 101
Width: 645
GlyphClass: 2
Flags: W
LayerCount: 2
Fore
SplineSet
545 334 m 128,-1,1
 545 265 545 265 505 210 c 1,2,3
 529 190 529 190 552 168 c 1,4,5
 585 134 585 134 585 123.5 c 128,-1,6
 585 113 585 113 570 98 c 128,-1,7
 555 83 555 83 542.5 83 c 128,-1,8
 530 83 530 83 517 93.5 c 128,-1,9
 504 104 504 104 479.5 129 c 128,-1,10
 455 154 455 154 453 156 c 1,11,12
 395 115 395 115 325 115 c 128,-1,13
 255 115 255 115 197 156 c 1,14,15
 191 150 191 150 176 134.5 c 128,-1,16
 161 119 161 119 151 110 c 0,17,18
 123 83 123 83 109 83 c 128,-1,19
 95 83 95 83 80 98 c 128,-1,20
 65 113 65 113 65 122.5 c 128,-1,21
 65 132 65 132 77 146 c 128,-1,22
 89 160 89 160 116 184 c 128,-1,23
 143 208 143 208 145 210 c 1,24,25
 105 265 105 265 105 334 c 128,-1,26
 105 403 105 403 145 458 c 1,27,28
 121 478 121 478 99 500 c 0,29,30
 65 534 65 534 65 544.5 c 128,-1,31
 65 555 65 555 80 570 c 128,-1,32
 95 585 95 585 107.5 585 c 128,-1,33
 120 585 120 585 133 574.5 c 128,-1,34
 146 564 146 564 170.5 539 c 128,-1,35
 195 514 195 514 197 512 c 1,36,37
 255 553 255 553 325 553 c 128,-1,38
 395 553 395 553 453 512 c 1,39,40
 459 518 459 518 474 533.5 c 128,-1,41
 489 549 489 549 499 558 c 0,42,43
 527 585 527 585 541 585 c 128,-1,44
 555 585 555 585 570 570 c 128,-1,45
 585 555 585 555 585 545.5 c 128,-1,46
 585 536 585 536 573 522 c 128,-1,47
 561 508 561 508 534 484 c 128,-1,48
 507 460 507 460 505 458 c 1,49,0
 545 403 545 403 545 334 c 128,-1,1
179 334 m 128,-1,51
 179 272 179 272 221 229 c 128,-1,52
 263 186 263 186 325 186 c 128,-1,53
 387 186 387 186 429 229 c 128,-1,54
 471 272 471 272 471 334 c 128,-1,55
 471 396 471 396 429 439 c 128,-1,56
 387 482 387 482 325 482 c 128,-1,57
 263 482 263 482 221 439 c 128,-1,50
 179 396 179 396 179 334 c 128,-1,51
EndSplineSet
EndChar

StartChar: yen
Encoding: 165 165 102
Width: 667
GlyphClass: 2
Flags: W
LayerCount: 2
Fore
SplineSet
131 243 m 2,0,-1
 535 243 l 2,1,2
 575 243 575 243 575 207.5 c 128,-1,3
 575 172 575 172 535 172 c 2,4,-1
 131 172 l 2,5,6
 91 172 91 172 91 207.5 c 128,-1,7
 91 243 91 243 131 243 c 2,0,-1
131 399 m 2,8,-1
 262 399 l 1,9,-1
 262 325 l 1,10,-1
 131 325 l 2,11,12
 110 325 110 325 100.5 332.5 c 128,-1,13
 91 340 91 340 91 361 c 0,14,15
 91 399 91 399 131 399 c 2,8,-1
403 399 m 1,16,-1
 403 325 l 1,17,-1
 535 325 l 2,18,19
 575 325 575 325 575 361 c 0,20,21
 575 399 575 399 535 399 c 2,22,-1
 403 399 l 1,16,-1
90 679 m 2,23,-1
 111 679 l 2,24,25
 124 679 124 679 130 673 c 128,-1,26
 136 667 136 667 139.5 663 c 128,-1,27
 143 659 143 659 147 651.5 c 128,-1,28
 151 644 151 644 153 639 c 128,-1,29
 155 634 155 634 159.5 624 c 128,-1,30
 164 614 164 614 166 609 c 0,31,32
 233 460 233 460 328 337 c 1,33,-1
 339 337 l 1,34,35
 434 460 434 460 501 609 c 0,36,37
 503 614 503 614 507.5 624 c 128,-1,38
 512 634 512 634 514 639 c 128,-1,39
 516 644 516 644 520 651.5 c 128,-1,40
 524 659 524 659 527.5 663 c 128,-1,41
 531 667 531 667 536 672 c 0,42,43
 543 679 543 679 556 679 c 2,44,-1
 577 679 l 2,45,46
 609 679 609 679 609 651 c 0,47,48
 609 637 609 637 603 622 c 128,-1,49
 597 607 597 607 587 585.5 c 128,-1,50
 577 564 577 564 569 546.5 c 128,-1,51
 561 529 561 529 548.5 507 c 128,-1,52
 536 485 536 485 528.5 471.5 c 128,-1,53
 521 458 521 458 505 434.5 c 128,-1,54
 489 411 489 411 482.5 400.5 c 128,-1,55
 476 390 476 390 457 364 c 128,-1,56
 438 338 438 338 432 330 c 0,57,58
 387 270 387 270 377 256 c 1,59,-1
 377 38 l 2,60,61
 377 0 377 0 338 0 c 2,62,-1
 329 0 l 2,63,64
 290 0 290 0 290 38 c 2,65,-1
 290 256 l 1,66,67
 280 270 280 270 254.5 304 c 128,-1,68
 229 338 229 338 210 364 c 128,-1,69
 191 390 191 390 184.5 400.5 c 128,-1,70
 178 411 178 411 162 434.5 c 128,-1,71
 146 458 146 458 138.5 471.5 c 128,-1,72
 131 485 131 485 118.5 507 c 128,-1,73
 106 529 106 529 98 546.5 c 128,-1,74
 90 564 90 564 80 585.5 c 128,-1,75
 70 607 70 607 64 622 c 128,-1,76
 58 637 58 637 58 651 c 0,77,78
 58 679 58 679 90 679 c 2,23,-1
EndSplineSet
EndChar

StartChar: brokenbar
Encoding: 166 166 103
Width: 256
GlyphClass: 2
Flags: W
LayerCount: 2
Fore
SplineSet
125 293 m 2,0,-1
 131 293 l 2,1,2
 169 293 169 293 169 258 c 2,3,-1
 169 -4 l 2,4,5
 169 -41 169 -41 131 -41 c 2,6,-1
 125 -41 l 2,7,8
 87 -41 87 -41 87 -4 c 2,9,-1
 87 258 l 2,10,11
 87 293 87 293 125 293 c 2,0,-1
125 719 m 2,12,-1
 131 719 l 2,13,14
 169 719 169 719 169 684 c 2,15,-1
 169 422 l 2,16,17
 169 385 169 385 131 385 c 2,18,-1
 125 385 l 2,19,20
 87 385 87 385 87 422 c 2,21,-1
 87 684 l 2,22,23
 87 719 87 719 125 719 c 2,12,-1
EndSplineSet
EndChar

StartChar: section
Encoding: 167 167 104
Width: 485
GlyphClass: 2
Flags: W
LayerCount: 2
Fore
SplineSet
343 57 m 1,0,1
 436 8 436 8 436 -66.5 c 128,-1,2
 436 -141 436 -141 378.5 -183 c 128,-1,3
 321 -225 321 -225 230.5 -225 c 128,-1,4
 140 -225 140 -225 93.5 -195.5 c 128,-1,5
 47 -166 47 -166 47 -126 c 0,6,7
 47 -103 47 -103 62 -88.5 c 128,-1,8
 77 -74 77 -74 106 -74 c 1,9,10
 106 -110 106 -110 144.5 -130.5 c 128,-1,11
 183 -151 183 -151 237.5 -151 c 128,-1,12
 292 -151 292 -151 321.5 -129.5 c 128,-1,13
 351 -108 351 -108 351 -76 c 128,-1,14
 351 -44 351 -44 319.5 -24 c 128,-1,15
 288 -4 288 -4 243.5 10 c 128,-1,16
 199 24 199 24 154.5 42 c 128,-1,17
 110 60 110 60 78.5 97.5 c 128,-1,18
 47 135 47 135 47 181 c 128,-1,19
 47 227 47 227 72 260 c 128,-1,20
 97 293 97 293 140 309 c 1,21,22
 101 333 101 333 80.5 361.5 c 128,-1,23
 60 390 60 390 60 442 c 128,-1,24
 60 494 60 494 108.5 539 c 128,-1,25
 157 584 157 584 236.5 584 c 128,-1,26
 316 584 316 584 364 556.5 c 128,-1,27
 412 529 412 529 412 494 c 0,28,29
 412 443 412 443 353 443 c 1,30,31
 353 472 353 472 319 492 c 128,-1,32
 285 512 285 512 243 512 c 128,-1,33
 201 512 201 512 172 490.5 c 128,-1,34
 143 469 143 469 143 437 c 128,-1,35
 143 405 143 405 172.5 384 c 128,-1,36
 202 363 202 363 244 348 c 128,-1,37
 286 333 286 333 327.5 314 c 128,-1,38
 369 295 369 295 398.5 261 c 128,-1,39
 428 227 428 227 428 179 c 0,40,41
 428 92 428 92 343 57 c 1,0,1
218 271 m 1,42,43
 182 269 182 269 155 247 c 128,-1,44
 128 225 128 225 128 190 c 128,-1,45
 128 155 128 155 168 132 c 0,46,47
 197 115 197 115 252 93 c 1,48,49
 296 96 296 96 321.5 118 c 128,-1,50
 347 140 347 140 347 174 c 128,-1,51
 347 208 347 208 308 230 c 128,-1,52
 269 252 269 252 218 271 c 1,42,43
EndSplineSet
EndChar

StartChar: dieresis
Encoding: 168 168 105
Width: 400
GlyphClass: 2
Flags: W
LayerCount: 2
Fore
SplineSet
67.5 578 m 128,-1,1
 54 591 54 591 54 610.5 c 128,-1,2
 54 630 54 630 67.5 642.5 c 128,-1,3
 81 655 81 655 100 655 c 128,-1,4
 119 655 119 655 132 642.5 c 128,-1,5
 145 630 145 630 145 610.5 c 128,-1,6
 145 591 145 591 132 578 c 128,-1,7
 119 565 119 565 100 565 c 128,-1,0
 81 565 81 565 67.5 578 c 128,-1,1
269 578 m 128,-1,9
 256 591 256 591 256 610.5 c 128,-1,10
 256 630 256 630 269 642.5 c 128,-1,11
 282 655 282 655 301 655 c 128,-1,12
 320 655 320 655 333 642.5 c 128,-1,13
 346 630 346 630 346 610.5 c 128,-1,14
 346 591 346 591 333 578 c 128,-1,15
 320 565 320 565 301 565 c 128,-1,8
 282 565 282 565 269 578 c 128,-1,9
EndSplineSet
EndChar

StartChar: copyright
Encoding: 169 169 106
Width: 802
GlyphClass: 2
Flags: W
LayerCount: 2
Fore
SplineSet
154 85 m 128,-1,1
 52 187 52 187 52 331.5 c 128,-1,2
 52 476 52 476 154 578.5 c 128,-1,3
 256 681 256 681 401 681 c 128,-1,4
 546 681 546 681 648 578.5 c 128,-1,5
 750 476 750 476 750 331.5 c 128,-1,6
 750 187 750 187 648 85 c 128,-1,7
 546 -17 546 -17 401 -17 c 128,-1,0
 256 -17 256 -17 154 85 c 128,-1,1
128 332 m 128,-1,9
 128 214 128 214 207.5 135 c 128,-1,10
 287 56 287 56 401 56 c 128,-1,11
 515 56 515 56 595 135 c 128,-1,12
 675 214 675 214 675 331.5 c 128,-1,13
 675 449 675 449 595 528.5 c 128,-1,14
 515 608 515 608 401 608 c 128,-1,15
 287 608 287 608 207.5 529 c 128,-1,8
 128 450 128 450 128 332 c 128,-1,9
255.5 496 m 128,-1,17
 319 551 319 551 397 551 c 128,-1,18
 475 551 475 551 521 519.5 c 128,-1,19
 567 488 567 488 567 447 c 0,20,21
 567 408 567 408 518 408 c 1,22,23
 518 442 518 442 488 467 c 128,-1,24
 458 492 458 492 403 492 c 128,-1,25
 348 492 348 492 306 450.5 c 128,-1,26
 264 409 264 409 264 329 c 128,-1,27
 264 249 264 249 305 207 c 128,-1,28
 346 165 346 165 401.5 165 c 128,-1,29
 457 165 457 165 490.5 190 c 128,-1,30
 524 215 524 215 524 250 c 1,31,32
 544 250 544 250 557.5 239.5 c 128,-1,33
 571 229 571 229 571 212 c 0,34,35
 571 170 571 170 523 139 c 128,-1,36
 475 108 475 108 396 108 c 128,-1,37
 317 108 317 108 254.5 163.5 c 128,-1,38
 192 219 192 219 192 330 c 128,-1,16
 192 441 192 441 255.5 496 c 128,-1,17
EndSplineSet
EndChar

StartChar: guillemotleft
Encoding: 171 171 107
Width: 539
GlyphClass: 2
Flags: W
LayerCount: 2
Fore
SplineSet
68 259 m 128,-1,1
 68 285 68 285 87 309 c 0,2,3
 180 432 180 432 199.5 451.5 c 128,-1,4
 219 471 219 471 235 471 c 128,-1,5
 251 471 251 471 263 460.5 c 128,-1,6
 275 450 275 450 275 438 c 128,-1,7
 275 426 275 426 266 414 c 2,8,-1
 147 259 l 1,9,-1
 266 104 l 2,10,11
 275 92 275 92 275 80 c 128,-1,12
 275 68 275 68 263 57.5 c 128,-1,13
 251 47 251 47 234 47 c 128,-1,14
 217 47 217 47 193 74 c 0,15,16
 155 115 155 115 87 209 c 1,17,0
 68 233 68 233 68 259 c 128,-1,1
262 259 m 128,-1,19
 262 285 262 285 281 309 c 0,20,21
 374 432 374 432 393.5 451.5 c 128,-1,22
 413 471 413 471 429 471 c 128,-1,23
 445 471 445 471 457 460.5 c 128,-1,24
 469 450 469 450 469 438 c 128,-1,25
 469 426 469 426 460 414 c 2,26,-1
 341 259 l 1,27,-1
 460 104 l 2,28,29
 469 92 469 92 469 80 c 128,-1,30
 469 68 469 68 457 57.5 c 128,-1,31
 445 47 445 47 428 47 c 128,-1,32
 411 47 411 47 387 74 c 0,33,34
 349 115 349 115 281 209 c 1,35,18
 262 233 262 233 262 259 c 128,-1,19
EndSplineSet
EndChar

StartChar: registered
Encoding: 174 174 108
Width: 802
GlyphClass: 2
Flags: W
LayerCount: 2
Fore
SplineSet
292 531 m 2,0,-1
 391 531 l 2,1,2
 461 531 461 531 504 511 c 0,3,4
 555 487 555 487 555 408 c 0,5,6
 555 315 555 315 461 292 c 1,7,8
 486 248 486 248 519 204 c 128,-1,9
 552 160 552 160 572 147 c 1,10,11
 554 129 554 129 528 129 c 0,12,13
 481 129 481 129 401 286 c 1,14,-1
 325 286 l 1,15,-1
 325 159 l 2,16,17
 325 132 325 132 297 132 c 2,18,-1
 292 132 l 2,19,20
 264 132 264 132 264 159 c 2,21,-1
 264 503 l 2,22,23
 264 531 264 531 292 531 c 2,0,-1
415 476 m 2,24,-1
 325 476 l 1,25,-1
 325 341 l 1,26,-1
 415 341 l 2,27,28
 454 341 454 341 474 355 c 128,-1,29
 494 369 494 369 494 408.5 c 128,-1,30
 494 448 494 448 474.5 462 c 128,-1,31
 455 476 455 476 415 476 c 2,24,-1
153.5 85 m 128,-1,33
 51 187 51 187 51 331.5 c 128,-1,34
 51 476 51 476 153.5 578.5 c 128,-1,35
 256 681 256 681 400.5 681 c 128,-1,36
 545 681 545 681 647.5 578.5 c 128,-1,37
 750 476 750 476 750 331.5 c 128,-1,38
 750 187 750 187 647.5 85 c 128,-1,39
 545 -17 545 -17 400.5 -17 c 128,-1,32
 256 -17 256 -17 153.5 85 c 128,-1,33
206.5 528.5 m 128,-1,41
 127 449 127 449 127 331.5 c 128,-1,42
 127 214 127 214 206.5 135 c 128,-1,43
 286 56 286 56 400 56 c 128,-1,44
 514 56 514 56 594 135 c 128,-1,45
 674 214 674 214 674 331.5 c 128,-1,46
 674 449 674 449 594 528.5 c 128,-1,47
 514 608 514 608 400 608 c 128,-1,40
 286 608 286 608 206.5 528.5 c 128,-1,41
EndSplineSet
EndChar

StartChar: macron
Encoding: 175 175 109
Width: 440
GlyphClass: 2
Flags: W
LayerCount: 2
Fore
SplineSet
87 627 m 2,0,-1
 353 627 l 2,1,2
 390 627 390 627 390 594 c 128,-1,3
 390 561 390 561 353 561 c 2,4,-1
 87 561 l 2,5,6
 50 561 50 561 50 594 c 128,-1,7
 50 627 50 627 87 627 c 2,0,-1
EndSplineSet
EndChar

StartChar: degree
Encoding: 176 176 110
Width: 244
GlyphClass: 2
Flags: W
LayerCount: 2
Fore
SplineSet
37 619 m 128,-1,1
 37 658 37 658 60.5 681 c 128,-1,2
 84 704 84 704 122 704 c 128,-1,3
 160 704 160 704 183.5 681 c 128,-1,4
 207 658 207 658 207 619 c 128,-1,5
 207 580 207 580 183.5 557 c 128,-1,6
 160 534 160 534 122 534 c 128,-1,7
 84 534 84 534 60.5 557 c 128,-1,0
 37 580 37 580 37 619 c 128,-1,1
72 619 m 128,-1,9
 72 596 72 596 85.5 581.5 c 128,-1,10
 99 567 99 567 122 567 c 128,-1,11
 145 567 145 567 158.5 581.5 c 128,-1,12
 172 596 172 596 172 619 c 128,-1,13
 172 642 172 642 158.5 656 c 128,-1,14
 145 670 145 670 122 670 c 128,-1,15
 99 670 99 670 85.5 656 c 128,-1,8
 72 642 72 642 72 619 c 128,-1,9
EndSplineSet
EndChar

StartChar: plusminus
Encoding: 177 177 111
Width: 555
GlyphClass: 2
Flags: W
LayerCount: 2
Fore
SplineSet
277 582 m 128,-1,1
 310 582 310 582 310 545 c 2,2,-1
 310 388 l 1,3,-1
 480 388 l 2,4,5
 517 388 517 388 517 355 c 128,-1,6
 517 322 517 322 480 322 c 2,7,-1
 310 322 l 1,8,-1
 310 162 l 2,9,10
 310 125 310 125 277 125 c 128,-1,11
 244 125 244 125 244 162 c 2,12,-1
 244 322 l 1,13,-1
 77 322 l 2,14,15
 40 322 40 322 40 355 c 128,-1,16
 40 388 40 388 77 388 c 2,17,-1
 244 388 l 1,18,-1
 244 545 l 2,19,0
 244 582 244 582 277 582 c 128,-1,1
77 66 m 2,20,-1
 480 66 l 2,21,22
 517 66 517 66 517 33 c 128,-1,23
 517 0 517 0 480 0 c 2,24,-1
 77 0 l 2,25,26
 40 0 40 0 40 33 c 128,-1,27
 40 66 40 66 77 66 c 2,20,-1
EndSplineSet
EndChar

StartChar: twosuperior
Encoding: 178 178 112
Width: 331
GlyphClass: 2
Flags: W
LayerCount: 2
Fore
SplineSet
73.5 658.5 m 128,-1,1
 101 680 101 680 154.5 680 c 128,-1,2
 208 680 208 680 241 653.5 c 128,-1,3
 274 627 274 627 274 580 c 0,4,5
 274 497 274 497 135 388 c 1,6,-1
 258 388 l 2,7,8
 288 388 288 388 288 358.5 c 128,-1,9
 288 329 288 329 258 329 c 2,10,-1
 74 329 l 2,11,12
 45 329 45 329 45 360 c 0,13,14
 45 377 45 377 73 399 c 0,15,16
 212 511 212 511 212 577 c 0,17,18
 212 624 212 624 151 624 c 0,19,20
 123 624 123 624 103.5 613 c 128,-1,21
 84 602 84 602 82 582 c 1,22,23
 66 582 66 582 56 591.5 c 128,-1,24
 46 601 46 601 46 619 c 128,-1,0
 46 637 46 637 73.5 658.5 c 128,-1,1
EndSplineSet
EndChar

StartChar: threesuperior
Encoding: 179 179 113
Width: 320
GlyphClass: 2
Flags: W
LayerCount: 2
Fore
SplineSet
212 433 m 0,0,1
 212 481 212 481 150 481 c 2,2,-1
 130 481 l 2,3,4
 114 481 114 481 107.5 486.5 c 128,-1,5
 101 492 101 492 101 506 c 0,6,7
 101 532 101 532 130 532 c 2,8,-1
 148 532 l 2,9,10
 170 532 170 532 184 545.5 c 128,-1,11
 198 559 198 559 198 578.5 c 128,-1,12
 198 598 198 598 186 610.5 c 128,-1,13
 174 623 174 623 150 623 c 128,-1,14
 126 623 126 623 113 608 c 128,-1,15
 100 593 100 593 97 571 c 1,16,17
 78 572 78 572 64 581.5 c 128,-1,18
 50 591 50 591 50 612 c 128,-1,19
 50 633 50 633 75.5 656 c 128,-1,20
 101 679 101 679 154 679 c 128,-1,21
 207 679 207 679 233 650.5 c 128,-1,22
 259 622 259 622 259 580.5 c 128,-1,23
 259 539 259 539 212 513 c 1,24,25
 274 492 274 492 274 430 c 0,26,27
 274 384 274 384 239 354 c 128,-1,28
 204 324 204 324 152 324 c 128,-1,29
 100 324 100 324 72 342.5 c 128,-1,30
 44 361 44 361 44 389 c 0,31,32
 44 422 44 422 88 422 c 1,33,34
 88 403 88 403 105.5 391 c 128,-1,35
 123 379 123 379 149.5 379 c 128,-1,36
 176 379 176 379 194 393 c 128,-1,37
 212 407 212 407 212 433 c 0,0,1
EndSplineSet
EndChar

StartChar: acute
Encoding: 180 180 114
Width: 339
GlyphClass: 2
Flags: W
LayerCount: 2
Fore
SplineSet
70 548 m 0,0,1
 54 548 54 548 54 563 c 2,2,-1
 54 572 l 2,3,4
 54 587 54 587 72 599 c 1,5,-1
 252 706 l 2,6,7
 257 710 257 710 268 710 c 0,8,9
 286 710 286 710 286 692 c 2,10,-1
 286 665 l 2,11,12
 286 641 286 641 264 632 c 2,13,-1
 83 551 l 2,14,15
 77 548 77 548 70 548 c 0,0,1
EndSplineSet
EndChar

StartChar: mu
Encoding: 181 181 115
Width: 559
GlyphClass: 2
Flags: W
LayerCount: 2
Fore
SplineSet
61 -188 m 2,0,-1
 61 455 l 2,1,2
 61 492 61 492 99 492 c 2,3,-1
 106 492 l 2,4,5
 144 492 144 492 144 455 c 2,6,-1
 144 192 l 2,7,8
 144 61 144 61 265 61 c 0,9,10
 303 61 303 61 331 78.5 c 128,-1,11
 359 96 359 96 372 125 c 0,12,13
 398 180 398 180 398 248 c 2,14,-1
 398 455 l 2,15,16
 398 492 398 492 437 492 c 2,17,-1
 444 492 l 2,18,19
 464 492 464 492 472.5 483.5 c 128,-1,20
 481 475 481 475 481 455 c 2,21,-1
 481 37 l 2,22,23
 481 17 481 17 472 8.5 c 128,-1,24
 463 0 463 0 443 0 c 2,25,-1
 437 0 l 2,26,27
 398 0 398 0 398 37 c 2,28,-1
 398 87 l 1,29,30
 386 56 386 56 349.5 26 c 128,-1,31
 313 -4 313 -4 266 -6 c 0,32,33
 253 -7 253 -7 242 -7 c 0,34,35
 178 -7 178 -7 144 21 c 1,36,-1
 144 -188 l 2,37,38
 144 -226 144 -226 106 -226 c 2,39,-1
 99 -226 l 2,40,41
 61 -226 61 -226 61 -188 c 2,0,-1
EndSplineSet
EndChar

StartChar: paragraph
Encoding: 182 182 116
Width: 513
GlyphClass: 2
Flags: W
LayerCount: 2
Fore
SplineSet
358 679 m 1,0,1
 358 679 358 679 383 678 c 1,2,-1
 384 678 l 2,3,4
 423 678 423 678 423 640 c 2,5,-1
 423 37 l 2,6,7
 423 0 423 0 384 0 c 2,8,-1
 378 0 l 2,9,10
 341 0 341 0 341 37 c 2,11,-1
 341 251 l 1,12,-1
 316 251 l 2,13,14
 218 251 218 251 150.5 308 c 128,-1,15
 83 365 83 365 83 465.5 c 128,-1,16
 83 566 83 566 150 622.5 c 128,-1,17
 217 679 217 679 316 679 c 2,18,-1
 358 679 l 1,0,1
EndSplineSet
EndChar

StartChar: periodcentered
Encoding: 183 183 117
Width: 261
GlyphClass: 2
Flags: W
LayerCount: 2
Fore
SplineSet
84 347 m 128,-1,1
 103 365 103 365 130.5 365 c 128,-1,2
 158 365 158 365 177 347 c 128,-1,3
 196 329 196 329 196 300 c 128,-1,4
 196 271 196 271 177 253 c 128,-1,5
 158 235 158 235 130.5 235 c 128,-1,6
 103 235 103 235 84 253 c 128,-1,7
 65 271 65 271 65 300 c 128,-1,0
 65 329 65 329 84 347 c 128,-1,1
EndSplineSet
EndChar

StartChar: cedilla
Encoding: 184 184 118
Width: 274
GlyphClass: 2
Flags: W
LayerCount: 2
Fore
SplineSet
151 -28 m 2,0,1
 182 -28 182 -28 201.5 -42.5 c 128,-1,2
 221 -57 221 -57 221 -88 c 128,-1,3
 221 -119 221 -119 192.5 -138 c 128,-1,4
 164 -157 164 -157 127 -157 c 0,5,6
 54 -157 54 -157 54 -113 c 0,7,8
 54 -99 54 -99 63 -89.5 c 128,-1,9
 72 -80 72 -80 86 -80 c 1,10,11
 86 -105 86 -105 130 -105 c 0,12,13
 147 -105 147 -105 158 -98 c 128,-1,14
 169 -91 169 -91 169 -79 c 0,15,16
 169 -57 169 -57 134 -57 c 2,17,-1
 112 -57 l 2,18,19
 89 -57 89 -57 89 -37 c 0,20,21
 89 -32 89 -32 92 -24 c 2,22,-1
 107 14 l 1,23,-1
 151 14 l 1,24,-1
 138 -28 l 1,25,-1
 151 -28 l 2,0,1
EndSplineSet
EndChar

StartChar: onesuperior
Encoding: 185 185 119
Width: 232
GlyphClass: 2
Flags: W
LayerCount: 2
Fore
SplineSet
77 675 m 2,0,-1
 139 675 l 2,1,2
 169 675 169 675 169 646 c 2,3,-1
 169 357 l 2,4,5
 169 328 169 328 137.5 328 c 128,-1,6
 106 328 106 328 106 357 c 2,7,-1
 106 617 l 1,8,-1
 77 617 l 2,9,10
 49 617 49 617 49 646 c 128,-1,11
 49 675 49 675 77 675 c 2,0,-1
EndSplineSet
EndChar

StartChar: guillemotright
Encoding: 187 187 120
Width: 537
GlyphClass: 2
Flags: W
LayerCount: 2
Fore
SplineSet
341.5 447.5 m 128,-1,1
 363 424 363 424 400.5 374 c 128,-1,2
 438 324 438 324 453.5 304 c 128,-1,3
 469 284 469 284 469 259.5 c 128,-1,4
 469 235 469 235 453.5 214.5 c 128,-1,5
 438 194 438 194 400.5 144.5 c 128,-1,6
 363 95 363 95 341.5 71 c 128,-1,7
 320 47 320 47 303 47 c 128,-1,8
 286 47 286 47 274 57.5 c 128,-1,9
 262 68 262 68 262 80 c 128,-1,10
 262 92 262 92 271 104 c 2,11,-1
 390 259 l 1,12,-1
 271 414 l 2,13,14
 262 426 262 426 262 438 c 128,-1,15
 262 450 262 450 274 460.5 c 128,-1,16
 286 471 286 471 303 471 c 128,-1,0
 320 471 320 471 341.5 447.5 c 128,-1,1
147.5 447.5 m 128,-1,18
 169 424 169 424 206.5 374 c 128,-1,19
 244 324 244 324 259.5 304 c 128,-1,20
 275 284 275 284 275 259.5 c 128,-1,21
 275 235 275 235 259.5 214.5 c 128,-1,22
 244 194 244 194 206.5 144.5 c 128,-1,23
 169 95 169 95 147.5 71 c 128,-1,24
 126 47 126 47 109 47 c 128,-1,25
 92 47 92 47 80 57.5 c 128,-1,26
 68 68 68 68 68 80 c 128,-1,27
 68 92 68 92 77 104 c 2,28,-1
 196 259 l 1,29,-1
 77 414 l 2,30,31
 68 426 68 426 68 438 c 128,-1,32
 68 450 68 450 80 460.5 c 128,-1,33
 92 471 92 471 109 471 c 128,-1,17
 126 471 126 471 147.5 447.5 c 128,-1,18
EndSplineSet
EndChar

StartChar: questiondown
Encoding: 191 191 121
Width: 477
GlyphClass: 2
Flags: W
LayerCount: 2
Fore
SplineSet
229 414 m 2,0,-1
 229 426 l 2,1,2
 229 464 229 464 268 464 c 2,3,-1
 273 464 l 2,4,5
 313 464 313 464 313 426 c 2,6,-1
 313 414 l 2,7,8
 313 385 313 385 306.5 371.5 c 128,-1,9
 300 358 300 358 297.5 351 c 128,-1,10
 295 344 295 344 285.5 334.5 c 128,-1,11
 276 325 276 325 272.5 320.5 c 128,-1,12
 269 316 269 316 255.5 306 c 128,-1,13
 242 296 242 296 238 294 c 0,14,15
 228 286 228 286 199.5 266.5 c 128,-1,16
 171 247 171 247 157.5 237 c 128,-1,17
 144 227 144 227 132 209 c 128,-1,18
 120 191 120 191 120 172 c 0,19,20
 120 124 120 124 154.5 95 c 128,-1,21
 189 66 189 66 248 66 c 128,-1,22
 307 66 307 66 337 87.5 c 128,-1,23
 367 109 367 109 383 151 c 1,24,25
 406 151 406 151 421.5 139 c 128,-1,26
 437 127 437 127 437 108 c 0,27,28
 437 62 437 62 384 27 c 128,-1,29
 331 -8 331 -8 237.5 -8 c 128,-1,30
 144 -8 144 -8 92 42 c 128,-1,31
 40 92 40 92 40 169 c 0,32,33
 40 208 40 208 59.5 240 c 128,-1,34
 79 272 79 272 106.5 293 c 128,-1,35
 134 314 134 314 162 332 c 0,36,37
 229 377 229 377 229 414 c 2,0,-1
318 573 m 128,-1,39
 299 555 299 555 271.5 555 c 128,-1,40
 244 555 244 555 225 573 c 128,-1,41
 206 591 206 591 206 620 c 128,-1,42
 206 649 206 649 225 667 c 128,-1,43
 244 685 244 685 271.5 685 c 128,-1,44
 299 685 299 685 318 667 c 128,-1,45
 337 649 337 649 337 620 c 128,-1,38
 337 591 337 591 318 573 c 128,-1,39
EndSplineSet
EndChar

StartChar: Agrave
Encoding: 192 192 122
Width: 687
GlyphClass: 2
Flags: W
LayerCount: 2
Fore
SplineSet
340 678 m 2,0,-1
 351 678 l 2,1,2
 376 678 376 678 383.5 672 c 128,-1,3
 391 666 391 666 393.5 664.5 c 128,-1,4
 396 663 396 663 400.5 656 c 128,-1,5
 405 649 405 649 406.5 647 c 128,-1,6
 408 645 408 645 413 635 c 128,-1,7
 418 625 418 625 420 622 c 0,8,9
 543 399 543 399 647 50 c 0,10,11
 650 38 650 38 650 29 c 0,12,13
 650 0 650 0 619 0 c 2,14,-1
 595 0 l 2,15,16
 578 0 578 0 571.5 6 c 128,-1,17
 565 12 565 12 562 15 c 128,-1,18
 559 18 559 18 556 26.5 c 128,-1,19
 553 35 553 35 552 39 c 0,20,21
 549 45 549 45 532.5 107.5 c 128,-1,22
 516 170 516 170 496 228 c 1,23,-1
 194 228 l 1,24,25
 169 151 169 151 155 97 c 128,-1,26
 141 43 141 43 139.5 39 c 128,-1,27
 138 35 138 35 135 26.5 c 128,-1,28
 132 18 132 18 129 15 c 128,-1,29
 126 12 126 12 121 8 c 0,30,31
 113 0 113 0 96 0 c 2,32,-1
 72 0 l 2,33,34
 41 0 41 0 41 30 c 0,35,36
 41 38 41 38 44 50 c 0,37,38
 148 399 148 399 271 622 c 0,39,40
 273 625 273 625 278 635 c 128,-1,41
 283 645 283 645 284.5 647 c 128,-1,42
 286 649 286 649 290.5 656 c 128,-1,43
 295 663 295 663 297.5 664.5 c 128,-1,44
 300 666 300 666 305 670 c 128,-1,45
 310 674 310 674 314 675 c 0,46,47
 328 678 328 678 340 678 c 2,0,-1
345 583 m 1,48,49
 280 468 280 468 219 300 c 1,50,-1
 472 300 l 1,51,52
 436 399 436 399 345 583 c 1,48,49
227 851 m 2,53,-1
 227 878 l 2,54,55
 227 896 227 896 245 896 c 0,56,57
 254 896 254 896 261 892 c 2,58,-1
 441 785 l 2,59,60
 457 775 457 775 459 758 c 1,61,-1
 459 749 l 2,62,63
 459 734 459 734 442 734 c 0,64,65
 435 734 435 734 429 737 c 2,66,-1
 247 818 l 2,67,68
 227 827 227 827 227 851 c 2,53,-1
EndSplineSet
EndChar

StartChar: Aacute
Encoding: 193 193 123
Width: 687
GlyphClass: 2
Flags: W
LayerCount: 2
Fore
SplineSet
340 678 m 2,0,-1
 351 678 l 2,1,2
 376 678 376 678 383.5 672 c 128,-1,3
 391 666 391 666 393.5 664.5 c 128,-1,4
 396 663 396 663 400.5 656 c 128,-1,5
 405 649 405 649 406.5 647 c 128,-1,6
 408 645 408 645 413 635 c 128,-1,7
 418 625 418 625 420 622 c 0,8,9
 543 399 543 399 647 50 c 0,10,11
 650 38 650 38 650 29 c 0,12,13
 650 0 650 0 619 0 c 2,14,-1
 595 0 l 2,15,16
 578 0 578 0 571.5 6 c 128,-1,17
 565 12 565 12 562 15 c 128,-1,18
 559 18 559 18 556 26.5 c 128,-1,19
 553 35 553 35 552 39 c 0,20,21
 549 45 549 45 532.5 107.5 c 128,-1,22
 516 170 516 170 496 228 c 1,23,-1
 194 228 l 1,24,25
 169 151 169 151 155 97 c 128,-1,26
 141 43 141 43 139.5 39 c 128,-1,27
 138 35 138 35 135 26.5 c 128,-1,28
 132 18 132 18 129 15 c 128,-1,29
 126 12 126 12 121 8 c 0,30,31
 113 0 113 0 96 0 c 2,32,-1
 72 0 l 2,33,34
 41 0 41 0 41 30 c 0,35,36
 41 38 41 38 44 50 c 0,37,38
 148 399 148 399 271 622 c 0,39,40
 273 625 273 625 278 635 c 128,-1,41
 283 645 283 645 284.5 647 c 128,-1,42
 286 649 286 649 290.5 656 c 128,-1,43
 295 663 295 663 297.5 664.5 c 128,-1,44
 300 666 300 666 305 670 c 128,-1,45
 310 674 310 674 314 675 c 0,46,47
 328 678 328 678 340 678 c 2,0,-1
345 583 m 1,48,49
 280 468 280 468 219 300 c 1,50,-1
 472 300 l 1,51,52
 436 399 436 399 345 583 c 1,48,49
243 734 m 0,53,54
 227 734 227 734 227 749 c 2,55,-1
 227 758 l 2,56,57
 227 773 227 773 245 785 c 1,58,-1
 425 892 l 2,59,60
 430 896 430 896 441 896 c 0,61,62
 459 896 459 896 459 878 c 2,63,-1
 459 851 l 2,64,65
 459 827 459 827 437 818 c 2,66,-1
 256 737 l 2,67,68
 250 734 250 734 243 734 c 0,53,54
EndSplineSet
EndChar

StartChar: Acircumflex
Encoding: 194 194 124
Width: 687
GlyphClass: 2
Flags: W
LayerCount: 2
Fore
SplineSet
340 678 m 2,0,-1
 351 678 l 2,1,2
 376 678 376 678 383.5 672 c 128,-1,3
 391 666 391 666 393.5 664.5 c 128,-1,4
 396 663 396 663 400.5 656 c 128,-1,5
 405 649 405 649 406.5 647 c 128,-1,6
 408 645 408 645 413 635 c 128,-1,7
 418 625 418 625 420 622 c 0,8,9
 543 399 543 399 647 50 c 0,10,11
 650 38 650 38 650 29 c 0,12,13
 650 0 650 0 619 0 c 2,14,-1
 595 0 l 2,15,16
 578 0 578 0 571.5 6 c 128,-1,17
 565 12 565 12 562 15 c 128,-1,18
 559 18 559 18 556 26.5 c 128,-1,19
 553 35 553 35 552 39 c 0,20,21
 549 45 549 45 532.5 107.5 c 128,-1,22
 516 170 516 170 496 228 c 1,23,-1
 194 228 l 1,24,25
 169 151 169 151 155 97 c 128,-1,26
 141 43 141 43 139.5 39 c 128,-1,27
 138 35 138 35 135 26.5 c 128,-1,28
 132 18 132 18 129 15 c 128,-1,29
 126 12 126 12 121 8 c 0,30,31
 113 0 113 0 96 0 c 2,32,-1
 72 0 l 2,33,34
 41 0 41 0 41 30 c 0,35,36
 41 38 41 38 44 50 c 0,37,38
 148 399 148 399 271 622 c 0,39,40
 273 625 273 625 278 635 c 128,-1,41
 283 645 283 645 284.5 647 c 128,-1,42
 286 649 286 649 290.5 656 c 128,-1,43
 295 663 295 663 297.5 664.5 c 128,-1,44
 300 666 300 666 305 670 c 128,-1,45
 310 674 310 674 314 675 c 0,46,47
 328 678 328 678 340 678 c 2,0,-1
345 583 m 1,48,49
 280 468 280 468 219 300 c 1,50,-1
 472 300 l 1,51,52
 436 399 436 399 345 583 c 1,48,49
229 746 m 0,53,54
 199 746 199 746 199 770 c 0,55,56
 199 782 199 782 221 797 c 2,57,-1
 310 860 l 2,58,59
 324 870 324 870 342 870 c 128,-1,60
 360 870 360 870 376 859 c 2,61,-1
 465 797 l 2,62,63
 487 782 487 782 487 770 c 0,64,65
 487 746 487 746 457 746 c 0,66,67
 443 746 443 746 429 755 c 2,68,-1
 343 808 l 1,69,-1
 257 755 l 2,70,71
 243 746 243 746 229 746 c 0,53,54
EndSplineSet
EndChar

StartChar: Atilde
Encoding: 195 195 125
Width: 687
GlyphClass: 2
Flags: W
LayerCount: 2
Fore
SplineSet
340 678 m 2,0,-1
 351 678 l 2,1,2
 376 678 376 678 383.5 672 c 128,-1,3
 391 666 391 666 393.5 664.5 c 128,-1,4
 396 663 396 663 400.5 656 c 128,-1,5
 405 649 405 649 406.5 647 c 128,-1,6
 408 645 408 645 413 635 c 128,-1,7
 418 625 418 625 420 622 c 0,8,9
 543 399 543 399 647 50 c 0,10,11
 650 38 650 38 650 29 c 0,12,13
 650 0 650 0 619 0 c 2,14,-1
 595 0 l 2,15,16
 578 0 578 0 571.5 6 c 128,-1,17
 565 12 565 12 562 15 c 128,-1,18
 559 18 559 18 556 26.5 c 128,-1,19
 553 35 553 35 552 39 c 0,20,21
 549 45 549 45 532.5 107.5 c 128,-1,22
 516 170 516 170 496 228 c 1,23,-1
 194 228 l 1,24,25
 169 151 169 151 155 97 c 128,-1,26
 141 43 141 43 139.5 39 c 128,-1,27
 138 35 138 35 135 26.5 c 128,-1,28
 132 18 132 18 129 15 c 128,-1,29
 126 12 126 12 121 8 c 0,30,31
 113 0 113 0 96 0 c 2,32,-1
 72 0 l 2,33,34
 41 0 41 0 41 30 c 0,35,36
 41 38 41 38 44 50 c 0,37,38
 148 399 148 399 271 622 c 0,39,40
 273 625 273 625 278 635 c 128,-1,41
 283 645 283 645 284.5 647 c 128,-1,42
 286 649 286 649 290.5 656 c 128,-1,43
 295 663 295 663 297.5 664.5 c 128,-1,44
 300 666 300 666 305 670 c 128,-1,45
 310 674 310 674 314 675 c 0,46,47
 328 678 328 678 340 678 c 2,0,-1
345 583 m 1,48,49
 280 468 280 468 219 300 c 1,50,-1
 472 300 l 1,51,52
 436 399 436 399 345 583 c 1,48,49
334 765 m 0,53,54
 298 781 298 781 271 781 c 128,-1,55
 244 781 244 781 232.5 767.5 c 128,-1,56
 221 754 221 754 205.5 758 c 128,-1,57
 190 762 190 762 190 779 c 0,58,59
 190 815 190 815 213.5 833.5 c 128,-1,60
 237 852 237 852 274 852 c 0,61,62
 289 852 289 852 298.5 850 c 128,-1,63
 308 848 308 848 311.5 847.5 c 128,-1,64
 315 847 315 847 323 844 c 128,-1,65
 331 841 331 841 333 840 c 128,-1,66
 335 839 335 839 345.5 834.5 c 128,-1,67
 356 830 356 830 358 829 c 0,68,69
 394 813 394 813 421 813 c 128,-1,70
 448 813 448 813 459.5 826.5 c 128,-1,71
 471 840 471 840 486.5 836 c 128,-1,72
 502 832 502 832 502 815 c 0,73,74
 502 779 502 779 478.5 760.5 c 128,-1,75
 455 742 455 742 418 742 c 0,76,77
 403 742 403 742 393.5 744 c 128,-1,78
 384 746 384 746 380.5 746.5 c 128,-1,79
 377 747 377 747 369 750 c 128,-1,80
 361 753 361 753 359 754 c 128,-1,81
 357 755 357 755 346.5 759.5 c 128,-1,82
 336 764 336 764 334 765 c 0,53,54
EndSplineSet
EndChar

StartChar: Adieresis
Encoding: 196 196 126
Width: 687
GlyphClass: 2
Flags: W
LayerCount: 2
Fore
SplineSet
340 678 m 2,0,-1
 351 678 l 2,1,2
 376 678 376 678 383.5 672 c 128,-1,3
 391 666 391 666 393.5 664.5 c 128,-1,4
 396 663 396 663 400.5 656 c 128,-1,5
 405 649 405 649 406.5 647 c 128,-1,6
 408 645 408 645 413 635 c 128,-1,7
 418 625 418 625 420 622 c 0,8,9
 543 399 543 399 647 50 c 0,10,11
 650 38 650 38 650 29 c 0,12,13
 650 0 650 0 619 0 c 2,14,-1
 595 0 l 2,15,16
 578 0 578 0 571.5 6 c 128,-1,17
 565 12 565 12 562 15 c 128,-1,18
 559 18 559 18 556 26.5 c 128,-1,19
 553 35 553 35 552 39 c 0,20,21
 549 45 549 45 532.5 107.5 c 128,-1,22
 516 170 516 170 496 228 c 1,23,-1
 194 228 l 1,24,25
 169 151 169 151 155 97 c 128,-1,26
 141 43 141 43 139.5 39 c 128,-1,27
 138 35 138 35 135 26.5 c 128,-1,28
 132 18 132 18 129 15 c 128,-1,29
 126 12 126 12 121 8 c 0,30,31
 113 0 113 0 96 0 c 2,32,-1
 72 0 l 2,33,34
 41 0 41 0 41 30 c 0,35,36
 41 38 41 38 44 50 c 0,37,38
 148 399 148 399 271 622 c 0,39,40
 273 625 273 625 278 635 c 128,-1,41
 283 645 283 645 284.5 647 c 128,-1,42
 286 649 286 649 290.5 656 c 128,-1,43
 295 663 295 663 297.5 664.5 c 128,-1,44
 300 666 300 666 305 670 c 128,-1,45
 310 674 310 674 314 675 c 0,46,47
 328 678 328 678 340 678 c 2,0,-1
345 583 m 1,48,49
 280 468 280 468 219 300 c 1,50,-1
 472 300 l 1,51,52
 436 399 436 399 345 583 c 1,48,49
210.5 764 m 128,-1,54
 197 777 197 777 197 796.5 c 128,-1,55
 197 816 197 816 210.5 828.5 c 128,-1,56
 224 841 224 841 243 841 c 128,-1,57
 262 841 262 841 275 828.5 c 128,-1,58
 288 816 288 816 288 796.5 c 128,-1,59
 288 777 288 777 275 764 c 128,-1,60
 262 751 262 751 243 751 c 128,-1,53
 224 751 224 751 210.5 764 c 128,-1,54
412 764 m 128,-1,62
 399 777 399 777 399 796.5 c 128,-1,63
 399 816 399 816 412 828.5 c 128,-1,64
 425 841 425 841 444 841 c 128,-1,65
 463 841 463 841 476 828.5 c 128,-1,66
 489 816 489 816 489 796.5 c 128,-1,67
 489 777 489 777 476 764 c 128,-1,68
 463 751 463 751 444 751 c 128,-1,61
 425 751 425 751 412 764 c 128,-1,62
EndSplineSet
EndChar

StartChar: Aring
Encoding: 197 197 127
Width: 687
GlyphClass: 2
Flags: W
LayerCount: 2
Fore
SplineSet
340 678 m 2,0,-1
 351 678 l 2,1,2
 376 678 376 678 383.5 672 c 128,-1,3
 391 666 391 666 393.5 664.5 c 128,-1,4
 396 663 396 663 400.5 656 c 128,-1,5
 405 649 405 649 406.5 647 c 128,-1,6
 408 645 408 645 413 635 c 128,-1,7
 418 625 418 625 420 622 c 0,8,9
 543 399 543 399 647 50 c 0,10,11
 650 38 650 38 650 29 c 0,12,13
 650 0 650 0 619 0 c 2,14,-1
 595 0 l 2,15,16
 578 0 578 0 571.5 6 c 128,-1,17
 565 12 565 12 562 15 c 128,-1,18
 559 18 559 18 556 26.5 c 128,-1,19
 553 35 553 35 552 39 c 0,20,21
 549 45 549 45 532.5 107.5 c 128,-1,22
 516 170 516 170 496 228 c 1,23,-1
 194 228 l 1,24,25
 169 151 169 151 155 97 c 128,-1,26
 141 43 141 43 139.5 39 c 128,-1,27
 138 35 138 35 135 26.5 c 128,-1,28
 132 18 132 18 129 15 c 128,-1,29
 126 12 126 12 121 8 c 0,30,31
 113 0 113 0 96 0 c 2,32,-1
 72 0 l 2,33,34
 41 0 41 0 41 30 c 0,35,36
 41 38 41 38 44 50 c 0,37,38
 148 399 148 399 271 622 c 0,39,40
 273 625 273 625 278 635 c 128,-1,41
 283 645 283 645 284.5 647 c 128,-1,42
 286 649 286 649 290.5 656 c 128,-1,43
 295 663 295 663 297.5 664.5 c 128,-1,44
 300 666 300 666 305 670 c 128,-1,45
 310 674 310 674 314 675 c 0,46,47
 328 678 328 678 340 678 c 2,0,-1
345 583 m 1,48,49
 280 468 280 468 219 300 c 1,50,-1
 472 300 l 1,51,52
 436 399 436 399 345 583 c 1,48,49
256 819 m 128,-1,54
 256 858 256 858 280 881 c 128,-1,55
 304 904 304 904 343 904 c 128,-1,56
 382 904 382 904 406 881 c 128,-1,57
 430 858 430 858 430 819 c 128,-1,58
 430 780 430 780 406 757 c 128,-1,59
 382 734 382 734 343 734 c 128,-1,60
 304 734 304 734 280 757 c 128,-1,53
 256 780 256 780 256 819 c 128,-1,54
301 819 m 128,-1,62
 301 798 301 798 312.5 786.5 c 128,-1,63
 324 775 324 775 342.5 775 c 128,-1,64
 361 775 361 775 373 787.5 c 128,-1,65
 385 800 385 800 385 820 c 128,-1,66
 385 840 385 840 373.5 851.5 c 128,-1,67
 362 863 362 863 343 863 c 128,-1,68
 324 863 324 863 312.5 851.5 c 128,-1,61
 301 840 301 840 301 819 c 128,-1,62
EndSplineSet
EndChar

StartChar: Ccedilla
Encoding: 199 199 128
Width: 699
GlyphClass: 2
Flags: W
LayerCount: 2
Fore
SplineSet
394 687 m 0,0,1
 253 687 253 687 158 597.5 c 128,-1,2
 63 508 63 508 63 341 c 128,-1,3
 63 174 63 174 158 83 c 128,-1,4
 253 -8 253 -8 394 -8 c 0,5,6
 501 -8 501 -8 571 36.5 c 128,-1,7
 641 81 641 81 641 132 c 0,8,9
 641 154 641 154 627.5 167.5 c 128,-1,10
 614 181 614 181 590 181 c 1,11,12
 548 68 548 68 394 68 c 0,13,14
 295 68 295 68 225 138.5 c 128,-1,15
 155 209 155 209 155 341.5 c 128,-1,16
 155 474 155 474 224.5 541.5 c 128,-1,17
 294 609 294 609 394 609 c 0,18,19
 546 609 546 609 577 503 c 1,20,21
 604 503 604 503 620.5 516.5 c 128,-1,22
 637 530 637 530 637 552 c 0,23,24
 637 603 637 603 568.5 645 c 128,-1,25
 500 687 500 687 394 687 c 0,0,1
413 -28 m 2,26,27
 444 -28 444 -28 463.5 -42.5 c 128,-1,28
 483 -57 483 -57 483 -88 c 128,-1,29
 483 -119 483 -119 454.5 -138 c 128,-1,30
 426 -157 426 -157 389 -157 c 0,31,32
 316 -157 316 -157 316 -113 c 0,33,34
 316 -99 316 -99 325 -89.5 c 128,-1,35
 334 -80 334 -80 348 -80 c 1,36,37
 348 -105 348 -105 392 -105 c 0,38,39
 409 -105 409 -105 420 -98 c 128,-1,40
 431 -91 431 -91 431 -79 c 0,41,42
 431 -57 431 -57 396 -57 c 2,43,-1
 374 -57 l 2,44,45
 351 -57 351 -57 351 -37 c 0,46,47
 351 -32 351 -32 354 -24 c 2,48,-1
 369 14 l 1,49,-1
 413 14 l 1,50,-1
 400 -28 l 1,51,-1
 413 -28 l 2,26,27
EndSplineSet
EndChar

StartChar: Egrave
Encoding: 200 200 129
Width: 566
GlyphClass: 2
Flags: W
LayerCount: 2
Fore
SplineSet
140 679 m 2,0,-1
 485 679 l 2,1,2
 522 679 522 679 522 641.5 c 128,-1,3
 522 604 522 604 485 604 c 2,4,-1
 188 604 l 1,5,-1
 188 390 l 1,6,-1
 452 390 l 2,7,8
 489 390 489 390 489 352.5 c 128,-1,9
 489 315 489 315 452 315 c 2,10,-1
 188 315 l 1,11,-1
 188 75 l 1,12,-1
 485 75 l 2,13,14
 522 75 522 75 522 37.5 c 128,-1,15
 522 0 522 0 485 0 c 2,16,-1
 140 0 l 2,17,18
 101 0 101 0 101 38 c 2,19,-1
 101 641 l 2,20,21
 101 679 101 679 140 679 c 2,0,-1
181 851 m 2,22,-1
 181 878 l 2,23,24
 181 896 181 896 199 896 c 0,25,26
 208 896 208 896 215 892 c 2,27,-1
 395 785 l 2,28,29
 411 775 411 775 413 758 c 1,30,-1
 413 749 l 2,31,32
 413 734 413 734 396 734 c 0,33,34
 389 734 389 734 383 737 c 2,35,-1
 201 818 l 2,36,37
 181 827 181 827 181 851 c 2,22,-1
EndSplineSet
EndChar

StartChar: Eacute
Encoding: 201 201 130
Width: 566
GlyphClass: 2
Flags: W
LayerCount: 2
Fore
SplineSet
140 679 m 2,0,-1
 485 679 l 2,1,2
 522 679 522 679 522 641.5 c 128,-1,3
 522 604 522 604 485 604 c 2,4,-1
 188 604 l 1,5,-1
 188 390 l 1,6,-1
 452 390 l 2,7,8
 489 390 489 390 489 352.5 c 128,-1,9
 489 315 489 315 452 315 c 2,10,-1
 188 315 l 1,11,-1
 188 75 l 1,12,-1
 485 75 l 2,13,14
 522 75 522 75 522 37.5 c 128,-1,15
 522 0 522 0 485 0 c 2,16,-1
 140 0 l 2,17,18
 101 0 101 0 101 38 c 2,19,-1
 101 641 l 2,20,21
 101 679 101 679 140 679 c 2,0,-1
197 734 m 0,22,23
 181 734 181 734 181 749 c 2,24,-1
 181 758 l 2,25,26
 181 773 181 773 199 785 c 1,27,-1
 379 892 l 2,28,29
 384 896 384 896 395 896 c 0,30,31
 413 896 413 896 413 878 c 2,32,-1
 413 851 l 2,33,34
 413 827 413 827 391 818 c 2,35,-1
 210 737 l 2,36,37
 204 734 204 734 197 734 c 0,22,23
EndSplineSet
EndChar

StartChar: Ecircumflex
Encoding: 202 202 131
Width: 566
GlyphClass: 2
Flags: W
LayerCount: 2
Fore
SplineSet
140 679 m 2,0,-1
 485 679 l 2,1,2
 522 679 522 679 522 641.5 c 128,-1,3
 522 604 522 604 485 604 c 2,4,-1
 188 604 l 1,5,-1
 188 390 l 1,6,-1
 452 390 l 2,7,8
 489 390 489 390 489 352.5 c 128,-1,9
 489 315 489 315 452 315 c 2,10,-1
 188 315 l 1,11,-1
 188 75 l 1,12,-1
 485 75 l 2,13,14
 522 75 522 75 522 37.5 c 128,-1,15
 522 0 522 0 485 0 c 2,16,-1
 140 0 l 2,17,18
 101 0 101 0 101 38 c 2,19,-1
 101 641 l 2,20,21
 101 679 101 679 140 679 c 2,0,-1
183 746 m 0,22,23
 153 746 153 746 153 770 c 0,24,25
 153 782 153 782 175 797 c 2,26,-1
 264 860 l 2,27,28
 278 870 278 870 296 870 c 128,-1,29
 314 870 314 870 330 859 c 2,30,-1
 419 797 l 2,31,32
 441 782 441 782 441 770 c 0,33,34
 441 746 441 746 411 746 c 0,35,36
 397 746 397 746 383 755 c 2,37,-1
 297 808 l 1,38,-1
 211 755 l 2,39,40
 197 746 197 746 183 746 c 0,22,23
EndSplineSet
EndChar

StartChar: Edieresis
Encoding: 203 203 132
Width: 566
GlyphClass: 2
Flags: W
LayerCount: 2
Fore
SplineSet
140 679 m 2,0,-1
 485 679 l 2,1,2
 522 679 522 679 522 641.5 c 128,-1,3
 522 604 522 604 485 604 c 2,4,-1
 188 604 l 1,5,-1
 188 390 l 1,6,-1
 452 390 l 2,7,8
 489 390 489 390 489 352.5 c 128,-1,9
 489 315 489 315 452 315 c 2,10,-1
 188 315 l 1,11,-1
 188 75 l 1,12,-1
 485 75 l 2,13,14
 522 75 522 75 522 37.5 c 128,-1,15
 522 0 522 0 485 0 c 2,16,-1
 140 0 l 2,17,18
 101 0 101 0 101 38 c 2,19,-1
 101 641 l 2,20,21
 101 679 101 679 140 679 c 2,0,-1
164.5 764 m 128,-1,23
 151 777 151 777 151 796.5 c 128,-1,24
 151 816 151 816 164.5 828.5 c 128,-1,25
 178 841 178 841 197 841 c 128,-1,26
 216 841 216 841 229 828.5 c 128,-1,27
 242 816 242 816 242 796.5 c 128,-1,28
 242 777 242 777 229 764 c 128,-1,29
 216 751 216 751 197 751 c 128,-1,22
 178 751 178 751 164.5 764 c 128,-1,23
366 764 m 128,-1,31
 353 777 353 777 353 796.5 c 128,-1,32
 353 816 353 816 366 828.5 c 128,-1,33
 379 841 379 841 398 841 c 128,-1,34
 417 841 417 841 430 828.5 c 128,-1,35
 443 816 443 816 443 796.5 c 128,-1,36
 443 777 443 777 430 764 c 128,-1,37
 417 751 417 751 398 751 c 128,-1,30
 379 751 379 751 366 764 c 128,-1,31
EndSplineSet
EndChar

StartChar: Igrave
Encoding: 204 204 133
Width: 281
GlyphClass: 2
Flags: W
LayerCount: 2
Fore
SplineSet
138 679 m 2,0,-1
 147 679 l 2,1,2
 187 679 187 679 187 640 c 2,3,-1
 187 38 l 2,4,5
 187 0 187 0 147 0 c 2,6,-1
 138 0 l 2,7,8
 100 0 100 0 100 38 c 2,9,-1
 100 640 l 2,10,11
 100 679 100 679 138 679 c 2,0,-1
26 850 m 2,12,-1
 26 877 l 2,13,14
 26 895 26 895 44 895 c 0,15,16
 53 895 53 895 60 891 c 2,17,-1
 240 784 l 2,18,19
 256 774 256 774 258 757 c 1,20,-1
 258 748 l 2,21,22
 258 733 258 733 241 733 c 0,23,24
 234 733 234 733 228 736 c 2,25,-1
 46 817 l 2,26,27
 26 826 26 826 26 850 c 2,12,-1
EndSplineSet
EndChar

StartChar: Iacute
Encoding: 205 205 134
Width: 281
GlyphClass: 2
Flags: W
LayerCount: 2
Fore
SplineSet
138 679 m 2,0,-1
 147 679 l 2,1,2
 187 679 187 679 187 640 c 2,3,-1
 187 38 l 2,4,5
 187 0 187 0 147 0 c 2,6,-1
 138 0 l 2,7,8
 100 0 100 0 100 38 c 2,9,-1
 100 640 l 2,10,11
 100 679 100 679 138 679 c 2,0,-1
42 733 m 0,12,13
 26 733 26 733 26 748 c 2,14,-1
 26 757 l 2,15,16
 26 772 26 772 44 784 c 1,17,-1
 224 891 l 2,18,19
 229 895 229 895 240 895 c 0,20,21
 258 895 258 895 258 877 c 2,22,-1
 258 850 l 2,23,24
 258 826 258 826 236 817 c 2,25,-1
 55 736 l 2,26,27
 49 733 49 733 42 733 c 0,12,13
EndSplineSet
EndChar

StartChar: Icircumflex
Encoding: 206 206 135
Width: 288
GlyphClass: 2
Flags: W
LayerCount: 2
Fore
SplineSet
139 679 m 2,0,-1
 148 679 l 2,1,2
 188 679 188 679 188 640 c 2,3,-1
 188 38 l 2,4,5
 188 0 188 0 148 0 c 2,6,-1
 139 0 l 2,7,8
 101 0 101 0 101 38 c 2,9,-1
 101 640 l 2,10,11
 101 679 101 679 139 679 c 2,0,-1
31 745 m 0,12,13
 1 745 1 745 1 769 c 0,14,15
 1 781 1 781 23 796 c 2,16,-1
 112 859 l 2,17,18
 126 869 126 869 144 869 c 128,-1,19
 162 869 162 869 178 858 c 2,20,-1
 267 796 l 2,21,22
 289 781 289 781 289 769 c 0,23,24
 289 745 289 745 259 745 c 0,25,26
 245 745 245 745 231 754 c 2,27,-1
 145 807 l 1,28,-1
 59 754 l 2,29,30
 45 745 45 745 31 745 c 0,12,13
EndSplineSet
EndChar

StartChar: Idieresis
Encoding: 207 207 136
Width: 280
GlyphClass: 2
Flags: W
LayerCount: 2
Fore
SplineSet
136 679 m 2,0,-1
 145 679 l 2,1,2
 185 679 185 679 185 640 c 2,3,-1
 185 38 l 2,4,5
 185 0 185 0 145 0 c 2,6,-1
 136 0 l 2,7,8
 98 0 98 0 98 38 c 2,9,-1
 98 640 l 2,10,11
 98 679 98 679 136 679 c 2,0,-1
8.5 763 m 128,-1,13
 -5 776 -5 776 -5 795.5 c 128,-1,14
 -5 815 -5 815 8.5 827.5 c 128,-1,15
 22 840 22 840 41 840 c 128,-1,16
 60 840 60 840 73 827.5 c 128,-1,17
 86 815 86 815 86 795.5 c 128,-1,18
 86 776 86 776 73 763 c 128,-1,19
 60 750 60 750 41 750 c 128,-1,12
 22 750 22 750 8.5 763 c 128,-1,13
210 763 m 128,-1,21
 197 776 197 776 197 795.5 c 128,-1,22
 197 815 197 815 210 827.5 c 128,-1,23
 223 840 223 840 242 840 c 128,-1,24
 261 840 261 840 274 827.5 c 128,-1,25
 287 815 287 815 287 795.5 c 128,-1,26
 287 776 287 776 274 763 c 128,-1,27
 261 750 261 750 242 750 c 128,-1,20
 223 750 223 750 210 763 c 128,-1,21
EndSplineSet
EndChar

StartChar: Ntilde
Encoding: 209 209 137
Width: 757
GlyphClass: 2
Flags: W
LayerCount: 2
Fore
SplineSet
142 679 m 2,0,-1
 162 679 l 2,1,2
 200 679 200 679 226 637 c 1,3,-1
 570 137 l 1,4,-1
 570 640 l 2,5,6
 570 661 570 661 579 670 c 128,-1,7
 588 679 588 679 608 679 c 2,8,-1
 617 679 l 2,9,10
 656 679 656 679 656 640 c 2,11,-1
 656 48 l 2,12,13
 656 27 656 27 646 13.5 c 128,-1,14
 636 0 636 0 617 0 c 2,15,-1
 604 0 l 2,16,17
 566 0 566 0 531 51 c 2,18,-1
 188 550 l 1,19,-1
 188 38 l 2,20,21
 188 0 188 0 152 0 c 2,22,-1
 142 0 l 2,23,24
 102 0 102 0 102 38 c 2,25,-1
 102 630 l 2,26,27
 102 679 102 679 142 679 c 2,0,-1
363 750 m 0,28,29
 327 766 327 766 300 766 c 128,-1,30
 273 766 273 766 261.5 752.5 c 128,-1,31
 250 739 250 739 234.5 743 c 128,-1,32
 219 747 219 747 219 764 c 0,33,34
 219 800 219 800 242.5 818.5 c 128,-1,35
 266 837 266 837 303 837 c 0,36,37
 318 837 318 837 327.5 835 c 128,-1,38
 337 833 337 833 340.5 832.5 c 128,-1,39
 344 832 344 832 352 829 c 128,-1,40
 360 826 360 826 362 825 c 128,-1,41
 364 824 364 824 374.5 819.5 c 128,-1,42
 385 815 385 815 387 814 c 0,43,44
 423 798 423 798 450 798 c 128,-1,45
 477 798 477 798 488.5 811.5 c 128,-1,46
 500 825 500 825 515.5 821 c 128,-1,47
 531 817 531 817 531 800 c 0,48,49
 531 764 531 764 507.5 745.5 c 128,-1,50
 484 727 484 727 447 727 c 0,51,52
 432 727 432 727 422.5 729 c 128,-1,53
 413 731 413 731 409.5 731.5 c 128,-1,54
 406 732 406 732 398 735 c 128,-1,55
 390 738 390 738 388 739 c 128,-1,56
 386 740 386 740 375.5 744.5 c 128,-1,57
 365 749 365 749 363 750 c 0,28,29
EndSplineSet
EndChar

StartChar: Ograve
Encoding: 210 210 138
Width: 767
GlyphClass: 2
Flags: W
LayerCount: 2
Fore
SplineSet
384 687 m 128,-1,1
 446 687 446 687 502 666.5 c 128,-1,2
 558 646 558 646 605.5 606 c 128,-1,3
 653 566 653 566 681.5 496.5 c 128,-1,4
 710 427 710 427 710 338.5 c 128,-1,5
 710 250 710 250 681.5 181.5 c 128,-1,6
 653 113 653 113 605.5 73 c 128,-1,7
 558 33 558 33 502 12.5 c 128,-1,8
 446 -8 446 -8 384 -8 c 128,-1,9
 322 -8 322 -8 265.5 12.5 c 128,-1,10
 209 33 209 33 161.5 73 c 128,-1,11
 114 113 114 113 86 181.5 c 128,-1,12
 58 250 58 250 58 338.5 c 128,-1,13
 58 427 58 427 86 496.5 c 128,-1,14
 114 566 114 566 161.5 606 c 128,-1,15
 209 646 209 646 265.5 666.5 c 128,-1,0
 322 687 322 687 384 687 c 128,-1,1
384 610 m 128,-1,17
 286 610 286 610 215.5 540 c 128,-1,18
 145 470 145 470 145 339.5 c 128,-1,19
 145 209 145 209 215.5 139 c 128,-1,20
 286 69 286 69 384 69 c 128,-1,21
 482 69 482 69 552.5 139 c 128,-1,22
 623 209 623 209 623 339.5 c 128,-1,23
 623 470 623 470 552.5 540 c 128,-1,16
 482 610 482 610 384 610 c 128,-1,17
270 850 m 2,24,-1
 270 877 l 2,25,26
 270 895 270 895 288 895 c 0,27,28
 297 895 297 895 304 891 c 2,29,-1
 484 784 l 2,30,31
 500 774 500 774 502 757 c 1,32,-1
 502 748 l 2,33,34
 502 733 502 733 485 733 c 0,35,36
 478 733 478 733 472 736 c 2,37,-1
 290 817 l 2,38,39
 270 826 270 826 270 850 c 2,24,-1
EndSplineSet
EndChar

StartChar: Oacute
Encoding: 211 211 139
Width: 767
GlyphClass: 2
Flags: W
LayerCount: 2
Fore
SplineSet
384 687 m 128,-1,1
 446 687 446 687 502 666.5 c 128,-1,2
 558 646 558 646 605.5 606 c 128,-1,3
 653 566 653 566 681.5 496.5 c 128,-1,4
 710 427 710 427 710 338.5 c 128,-1,5
 710 250 710 250 681.5 181.5 c 128,-1,6
 653 113 653 113 605.5 73 c 128,-1,7
 558 33 558 33 502 12.5 c 128,-1,8
 446 -8 446 -8 384 -8 c 128,-1,9
 322 -8 322 -8 265.5 12.5 c 128,-1,10
 209 33 209 33 161.5 73 c 128,-1,11
 114 113 114 113 86 181.5 c 128,-1,12
 58 250 58 250 58 338.5 c 128,-1,13
 58 427 58 427 86 496.5 c 128,-1,14
 114 566 114 566 161.5 606 c 128,-1,15
 209 646 209 646 265.5 666.5 c 128,-1,0
 322 687 322 687 384 687 c 128,-1,1
384 610 m 128,-1,17
 286 610 286 610 215.5 540 c 128,-1,18
 145 470 145 470 145 339.5 c 128,-1,19
 145 209 145 209 215.5 139 c 128,-1,20
 286 69 286 69 384 69 c 128,-1,21
 482 69 482 69 552.5 139 c 128,-1,22
 623 209 623 209 623 339.5 c 128,-1,23
 623 470 623 470 552.5 540 c 128,-1,16
 482 610 482 610 384 610 c 128,-1,17
286 733 m 0,24,25
 270 733 270 733 270 748 c 2,26,-1
 270 757 l 2,27,28
 270 772 270 772 288 784 c 1,29,-1
 468 891 l 2,30,31
 473 895 473 895 484 895 c 0,32,33
 502 895 502 895 502 877 c 2,34,-1
 502 850 l 2,35,36
 502 826 502 826 480 817 c 2,37,-1
 299 736 l 2,38,39
 293 733 293 733 286 733 c 0,24,25
EndSplineSet
EndChar

StartChar: Ocircumflex
Encoding: 212 212 140
Width: 767
GlyphClass: 2
Flags: W
LayerCount: 2
Fore
SplineSet
384 687 m 128,-1,1
 446 687 446 687 502 666.5 c 128,-1,2
 558 646 558 646 605.5 606 c 128,-1,3
 653 566 653 566 681.5 496.5 c 128,-1,4
 710 427 710 427 710 338.5 c 128,-1,5
 710 250 710 250 681.5 181.5 c 128,-1,6
 653 113 653 113 605.5 73 c 128,-1,7
 558 33 558 33 502 12.5 c 128,-1,8
 446 -8 446 -8 384 -8 c 128,-1,9
 322 -8 322 -8 265.5 12.5 c 128,-1,10
 209 33 209 33 161.5 73 c 128,-1,11
 114 113 114 113 86 181.5 c 128,-1,12
 58 250 58 250 58 338.5 c 128,-1,13
 58 427 58 427 86 496.5 c 128,-1,14
 114 566 114 566 161.5 606 c 128,-1,15
 209 646 209 646 265.5 666.5 c 128,-1,0
 322 687 322 687 384 687 c 128,-1,1
384 610 m 128,-1,17
 286 610 286 610 215.5 540 c 128,-1,18
 145 470 145 470 145 339.5 c 128,-1,19
 145 209 145 209 215.5 139 c 128,-1,20
 286 69 286 69 384 69 c 128,-1,21
 482 69 482 69 552.5 139 c 128,-1,22
 623 209 623 209 623 339.5 c 128,-1,23
 623 470 623 470 552.5 540 c 128,-1,16
 482 610 482 610 384 610 c 128,-1,17
271 745 m 0,24,25
 241 745 241 745 241 769 c 0,26,27
 241 781 241 781 263 796 c 2,28,-1
 352 859 l 2,29,30
 366 869 366 869 384 869 c 128,-1,31
 402 869 402 869 418 858 c 2,32,-1
 507 796 l 2,33,34
 529 781 529 781 529 769 c 0,35,36
 529 745 529 745 499 745 c 0,37,38
 485 745 485 745 471 754 c 2,39,-1
 385 807 l 1,40,-1
 299 754 l 2,41,42
 285 745 285 745 271 745 c 0,24,25
EndSplineSet
EndChar

StartChar: Otilde
Encoding: 213 213 141
Width: 767
GlyphClass: 2
Flags: W
LayerCount: 2
Fore
SplineSet
384 687 m 128,-1,1
 446 687 446 687 502 666.5 c 128,-1,2
 558 646 558 646 605.5 606 c 128,-1,3
 653 566 653 566 681.5 496.5 c 128,-1,4
 710 427 710 427 710 338.5 c 128,-1,5
 710 250 710 250 681.5 181.5 c 128,-1,6
 653 113 653 113 605.5 73 c 128,-1,7
 558 33 558 33 502 12.5 c 128,-1,8
 446 -8 446 -8 384 -8 c 128,-1,9
 322 -8 322 -8 265.5 12.5 c 128,-1,10
 209 33 209 33 161.5 73 c 128,-1,11
 114 113 114 113 86 181.5 c 128,-1,12
 58 250 58 250 58 338.5 c 128,-1,13
 58 427 58 427 86 496.5 c 128,-1,14
 114 566 114 566 161.5 606 c 128,-1,15
 209 646 209 646 265.5 666.5 c 128,-1,0
 322 687 322 687 384 687 c 128,-1,1
384 610 m 128,-1,17
 286 610 286 610 215.5 540 c 128,-1,18
 145 470 145 470 145 339.5 c 128,-1,19
 145 209 145 209 215.5 139 c 128,-1,20
 286 69 286 69 384 69 c 128,-1,21
 482 69 482 69 552.5 139 c 128,-1,22
 623 209 623 209 623 339.5 c 128,-1,23
 623 470 623 470 552.5 540 c 128,-1,16
 482 610 482 610 384 610 c 128,-1,17
374 765 m 0,24,25
 338 781 338 781 311 781 c 128,-1,26
 284 781 284 781 272.5 767.5 c 128,-1,27
 261 754 261 754 245.5 758 c 128,-1,28
 230 762 230 762 230 779 c 0,29,30
 230 815 230 815 253.5 833.5 c 128,-1,31
 277 852 277 852 314 852 c 0,32,33
 329 852 329 852 338.5 850 c 128,-1,34
 348 848 348 848 351.5 847.5 c 128,-1,35
 355 847 355 847 363 844 c 128,-1,36
 371 841 371 841 373 840 c 128,-1,37
 375 839 375 839 385.5 834.5 c 128,-1,38
 396 830 396 830 398 829 c 0,39,40
 434 813 434 813 461 813 c 128,-1,41
 488 813 488 813 499.5 826.5 c 128,-1,42
 511 840 511 840 526.5 836 c 128,-1,43
 542 832 542 832 542 815 c 0,44,45
 542 779 542 779 518.5 760.5 c 128,-1,46
 495 742 495 742 458 742 c 0,47,48
 443 742 443 742 433.5 744 c 128,-1,49
 424 746 424 746 420.5 746.5 c 128,-1,50
 417 747 417 747 409 750 c 128,-1,51
 401 753 401 753 399 754 c 128,-1,52
 397 755 397 755 386.5 759.5 c 128,-1,53
 376 764 376 764 374 765 c 0,24,25
EndSplineSet
EndChar

StartChar: Odieresis
Encoding: 214 214 142
Width: 767
GlyphClass: 2
Flags: W
LayerCount: 2
Fore
SplineSet
384 687 m 128,-1,1
 446 687 446 687 502 666.5 c 128,-1,2
 558 646 558 646 605.5 606 c 128,-1,3
 653 566 653 566 681.5 496.5 c 128,-1,4
 710 427 710 427 710 338.5 c 128,-1,5
 710 250 710 250 681.5 181.5 c 128,-1,6
 653 113 653 113 605.5 73 c 128,-1,7
 558 33 558 33 502 12.5 c 128,-1,8
 446 -8 446 -8 384 -8 c 128,-1,9
 322 -8 322 -8 265.5 12.5 c 128,-1,10
 209 33 209 33 161.5 73 c 128,-1,11
 114 113 114 113 86 181.5 c 128,-1,12
 58 250 58 250 58 338.5 c 128,-1,13
 58 427 58 427 86 496.5 c 128,-1,14
 114 566 114 566 161.5 606 c 128,-1,15
 209 646 209 646 265.5 666.5 c 128,-1,0
 322 687 322 687 384 687 c 128,-1,1
384 610 m 128,-1,17
 286 610 286 610 215.5 540 c 128,-1,18
 145 470 145 470 145 339.5 c 128,-1,19
 145 209 145 209 215.5 139 c 128,-1,20
 286 69 286 69 384 69 c 128,-1,21
 482 69 482 69 552.5 139 c 128,-1,22
 623 209 623 209 623 339.5 c 128,-1,23
 623 470 623 470 552.5 540 c 128,-1,16
 482 610 482 610 384 610 c 128,-1,17
251.5 763 m 128,-1,25
 238 776 238 776 238 795.5 c 128,-1,26
 238 815 238 815 251.5 827.5 c 128,-1,27
 265 840 265 840 284 840 c 128,-1,28
 303 840 303 840 316 827.5 c 128,-1,29
 329 815 329 815 329 795.5 c 128,-1,30
 329 776 329 776 316 763 c 128,-1,31
 303 750 303 750 284 750 c 128,-1,24
 265 750 265 750 251.5 763 c 128,-1,25
453 763 m 128,-1,33
 440 776 440 776 440 795.5 c 128,-1,34
 440 815 440 815 453 827.5 c 128,-1,35
 466 840 466 840 485 840 c 128,-1,36
 504 840 504 840 517 827.5 c 128,-1,37
 530 815 530 815 530 795.5 c 128,-1,38
 530 776 530 776 517 763 c 128,-1,39
 504 750 504 750 485 750 c 128,-1,32
 466 750 466 750 453 763 c 128,-1,33
EndSplineSet
EndChar

StartChar: multiply
Encoding: 215 215 143
Width: 485
GlyphClass: 2
Flags: W
LayerCount: 2
Fore
SplineSet
105 411.5 m 128,-1,1
 119 426 119 426 132.5 426 c 128,-1,2
 146 426 146 426 159 413 c 2,3,-1
 267 302 l 1,4,-1
 372 412 l 2,5,6
 386 426 386 426 399 426 c 128,-1,7
 412 426 412 426 426.5 412 c 128,-1,8
 441 398 441 398 440 383.5 c 128,-1,9
 439 369 439 369 428 358 c 2,10,-1
 321 250 l 1,11,-1
 428 143 l 2,12,13
 439 132 439 132 440 117.5 c 128,-1,14
 441 103 441 103 427 88.5 c 128,-1,15
 413 74 413 74 399 74 c 128,-1,16
 385 74 385 74 372 88 c 2,17,-1
 267 198 l 1,18,-1
 160 88 l 2,19,20
 146 73 146 73 133 73 c 128,-1,21
 120 73 120 73 105.5 87 c 128,-1,22
 91 101 91 101 91 114 c 128,-1,23
 91 127 91 127 105 141 c 2,24,-1
 214 250 l 1,25,-1
 105 359 l 2,26,27
 90 374 90 374 90.5 385.5 c 128,-1,0
 91 397 91 397 105 411.5 c 128,-1,1
EndSplineSet
EndChar

StartChar: Oslash
Encoding: 216 216 144
Width: 767
GlyphClass: 2
Flags: W
LayerCount: 2
Fore
SplineSet
147 -28 m 2,0,1
 137 -40 137 -40 127 -40 c 128,-1,2
 117 -40 117 -40 103 -29.5 c 128,-1,3
 89 -19 89 -19 89 -9 c 128,-1,4
 89 1 89 1 96 10 c 2,5,-1
 618 679 l 2,6,7
 628 692 628 692 638 692 c 128,-1,8
 648 692 648 692 662.5 681.5 c 128,-1,9
 677 671 677 671 677 661 c 128,-1,10
 677 651 677 651 669 641 c 2,11,-1
 147 -28 l 2,0,1
384 687 m 128,-1,13
 446 687 446 687 502 666.5 c 128,-1,14
 558 646 558 646 605.5 606 c 128,-1,15
 653 566 653 566 681.5 496.5 c 128,-1,16
 710 427 710 427 710 338.5 c 128,-1,17
 710 250 710 250 681.5 181.5 c 128,-1,18
 653 113 653 113 605.5 73 c 128,-1,19
 558 33 558 33 502 12.5 c 128,-1,20
 446 -8 446 -8 384 -8 c 128,-1,21
 322 -8 322 -8 265.5 12.5 c 128,-1,22
 209 33 209 33 161.5 73 c 128,-1,23
 114 113 114 113 86 181.5 c 128,-1,24
 58 250 58 250 58 338.5 c 128,-1,25
 58 427 58 427 86 496.5 c 128,-1,26
 114 566 114 566 161.5 606 c 128,-1,27
 209 646 209 646 265.5 666.5 c 128,-1,12
 322 687 322 687 384 687 c 128,-1,13
384 610 m 128,-1,29
 286 610 286 610 215.5 540 c 128,-1,30
 145 470 145 470 145 339.5 c 128,-1,31
 145 209 145 209 215.5 139 c 128,-1,32
 286 69 286 69 384 69 c 128,-1,33
 482 69 482 69 552.5 139 c 128,-1,34
 623 209 623 209 623 339.5 c 128,-1,35
 623 470 623 470 552.5 540 c 128,-1,28
 482 610 482 610 384 610 c 128,-1,29
EndSplineSet
EndChar

StartChar: Ugrave
Encoding: 217 217 145
Width: 740
GlyphClass: 2
Flags: W
LayerCount: 2
Fore
SplineSet
136 679 m 2,0,-1
 146 679 l 2,1,2
 185 679 185 679 185 640 c 2,3,-1
 185 284 l 2,4,5
 185 66 185 66 370 66 c 128,-1,6
 555 66 555 66 555 284 c 2,7,-1
 555 640 l 2,8,9
 555 679 555 679 594 679 c 2,10,-1
 602 679 l 2,11,12
 643 679 643 679 643 640 c 2,13,-1
 643 288 l 2,14,15
 643 200 643 200 614 130 c 0,16,17
 596 89 596 89 567 59.5 c 128,-1,18
 538 30 538 30 487.5 11 c 128,-1,19
 437 -8 437 -8 370 -8 c 128,-1,20
 303 -8 303 -8 252.5 11 c 128,-1,21
 202 30 202 30 173 59.5 c 128,-1,22
 144 89 144 89 126 130 c 0,23,24
 97 200 97 200 97 288 c 2,25,-1
 97 640 l 2,26,27
 97 679 97 679 136 679 c 2,0,-1
256 850 m 2,28,-1
 256 877 l 2,29,30
 256 895 256 895 274 895 c 0,31,32
 283 895 283 895 290 891 c 2,33,-1
 470 784 l 2,34,35
 486 774 486 774 488 757 c 1,36,-1
 488 748 l 2,37,38
 488 733 488 733 471 733 c 0,39,40
 464 733 464 733 458 736 c 2,41,-1
 276 817 l 2,42,43
 256 826 256 826 256 850 c 2,28,-1
EndSplineSet
EndChar

StartChar: Uacute
Encoding: 218 218 146
Width: 740
GlyphClass: 2
Flags: W
LayerCount: 2
Fore
SplineSet
136 679 m 2,0,-1
 146 679 l 2,1,2
 185 679 185 679 185 640 c 2,3,-1
 185 284 l 2,4,5
 185 66 185 66 370 66 c 128,-1,6
 555 66 555 66 555 284 c 2,7,-1
 555 640 l 2,8,9
 555 679 555 679 594 679 c 2,10,-1
 602 679 l 2,11,12
 643 679 643 679 643 640 c 2,13,-1
 643 288 l 2,14,15
 643 200 643 200 614 130 c 0,16,17
 596 89 596 89 567 59.5 c 128,-1,18
 538 30 538 30 487.5 11 c 128,-1,19
 437 -8 437 -8 370 -8 c 128,-1,20
 303 -8 303 -8 252.5 11 c 128,-1,21
 202 30 202 30 173 59.5 c 128,-1,22
 144 89 144 89 126 130 c 0,23,24
 97 200 97 200 97 288 c 2,25,-1
 97 640 l 2,26,27
 97 679 97 679 136 679 c 2,0,-1
272 733 m 0,28,29
 256 733 256 733 256 748 c 2,30,-1
 256 757 l 2,31,32
 256 772 256 772 274 784 c 1,33,-1
 454 891 l 2,34,35
 459 895 459 895 470 895 c 0,36,37
 488 895 488 895 488 877 c 2,38,-1
 488 850 l 2,39,40
 488 826 488 826 466 817 c 2,41,-1
 285 736 l 2,42,43
 279 733 279 733 272 733 c 0,28,29
EndSplineSet
EndChar

StartChar: Ucircumflex
Encoding: 219 219 147
Width: 740
GlyphClass: 2
Flags: W
LayerCount: 2
Fore
SplineSet
136 679 m 2,0,-1
 146 679 l 2,1,2
 185 679 185 679 185 640 c 2,3,-1
 185 284 l 2,4,5
 185 66 185 66 370 66 c 128,-1,6
 555 66 555 66 555 284 c 2,7,-1
 555 640 l 2,8,9
 555 679 555 679 594 679 c 2,10,-1
 602 679 l 2,11,12
 643 679 643 679 643 640 c 2,13,-1
 643 288 l 2,14,15
 643 200 643 200 614 130 c 0,16,17
 596 89 596 89 567 59.5 c 128,-1,18
 538 30 538 30 487.5 11 c 128,-1,19
 437 -8 437 -8 370 -8 c 128,-1,20
 303 -8 303 -8 252.5 11 c 128,-1,21
 202 30 202 30 173 59.5 c 128,-1,22
 144 89 144 89 126 130 c 0,23,24
 97 200 97 200 97 288 c 2,25,-1
 97 640 l 2,26,27
 97 679 97 679 136 679 c 2,0,-1
257 745 m 0,28,29
 227 745 227 745 227 769 c 0,30,31
 227 781 227 781 249 796 c 2,32,-1
 338 859 l 2,33,34
 352 869 352 869 370 869 c 128,-1,35
 388 869 388 869 404 858 c 2,36,-1
 493 796 l 2,37,38
 515 781 515 781 515 769 c 0,39,40
 515 745 515 745 485 745 c 0,41,42
 471 745 471 745 457 754 c 2,43,-1
 371 807 l 1,44,-1
 285 754 l 2,45,46
 271 745 271 745 257 745 c 0,28,29
EndSplineSet
EndChar

StartChar: Udieresis
Encoding: 220 220 148
Width: 740
GlyphClass: 2
Flags: W
LayerCount: 2
Fore
SplineSet
136 679 m 2,0,-1
 146 679 l 2,1,2
 185 679 185 679 185 640 c 2,3,-1
 185 284 l 2,4,5
 185 66 185 66 370 66 c 128,-1,6
 555 66 555 66 555 284 c 2,7,-1
 555 640 l 2,8,9
 555 679 555 679 594 679 c 2,10,-1
 602 679 l 2,11,12
 643 679 643 679 643 640 c 2,13,-1
 643 288 l 2,14,15
 643 200 643 200 614 130 c 0,16,17
 596 89 596 89 567 59.5 c 128,-1,18
 538 30 538 30 487.5 11 c 128,-1,19
 437 -8 437 -8 370 -8 c 128,-1,20
 303 -8 303 -8 252.5 11 c 128,-1,21
 202 30 202 30 173 59.5 c 128,-1,22
 144 89 144 89 126 130 c 0,23,24
 97 200 97 200 97 288 c 2,25,-1
 97 640 l 2,26,27
 97 679 97 679 136 679 c 2,0,-1
237.5 763 m 128,-1,29
 224 776 224 776 224 795.5 c 128,-1,30
 224 815 224 815 237.5 827.5 c 128,-1,31
 251 840 251 840 270 840 c 128,-1,32
 289 840 289 840 302 827.5 c 128,-1,33
 315 815 315 815 315 795.5 c 128,-1,34
 315 776 315 776 302 763 c 128,-1,35
 289 750 289 750 270 750 c 128,-1,28
 251 750 251 750 237.5 763 c 128,-1,29
439 763 m 128,-1,37
 426 776 426 776 426 795.5 c 128,-1,38
 426 815 426 815 439 827.5 c 128,-1,39
 452 840 452 840 471 840 c 128,-1,40
 490 840 490 840 503 827.5 c 128,-1,41
 516 815 516 815 516 795.5 c 128,-1,42
 516 776 516 776 503 763 c 128,-1,43
 490 750 490 750 471 750 c 128,-1,36
 452 750 452 750 439 763 c 128,-1,37
EndSplineSet
EndChar

StartChar: Yacute
Encoding: 221 221 149
Width: 631
GlyphClass: 2
Flags: W
LayerCount: 2
Fore
SplineSet
72 679 m 2,0,-1
 93 679 l 2,1,2
 106 679 106 679 112 673 c 128,-1,3
 118 667 118 667 121.5 663 c 128,-1,4
 125 659 125 659 129 651.5 c 128,-1,5
 133 644 133 644 135 639 c 128,-1,6
 137 634 137 634 141.5 624 c 128,-1,7
 146 614 146 614 148 609 c 0,8,9
 215 460 215 460 310 337 c 1,10,-1
 321 337 l 1,11,12
 416 460 416 460 483 609 c 0,13,14
 485 614 485 614 489.5 624 c 128,-1,15
 494 634 494 634 496 639 c 128,-1,16
 498 644 498 644 502 651.5 c 128,-1,17
 506 659 506 659 509.5 663 c 128,-1,18
 513 667 513 667 518 672 c 0,19,20
 525 679 525 679 538 679 c 2,21,-1
 559 679 l 2,22,23
 591 679 591 679 591 651 c 0,24,25
 591 637 591 637 585 622 c 128,-1,26
 579 607 579 607 569 585.5 c 128,-1,27
 559 564 559 564 551 546.5 c 128,-1,28
 543 529 543 529 530.5 507 c 128,-1,29
 518 485 518 485 510.5 471.5 c 128,-1,30
 503 458 503 458 487 434.5 c 128,-1,31
 471 411 471 411 464.5 400.5 c 128,-1,32
 458 390 458 390 439 364 c 128,-1,33
 420 338 420 338 414 330 c 0,34,35
 369 270 369 270 359 256 c 1,36,-1
 359 38 l 2,37,38
 359 0 359 0 320 0 c 2,39,-1
 311 0 l 2,40,41
 272 0 272 0 272 38 c 2,42,-1
 272 256 l 1,43,44
 262 270 262 270 236.5 304 c 128,-1,45
 211 338 211 338 192 364 c 128,-1,46
 173 390 173 390 166.5 400.5 c 128,-1,47
 160 411 160 411 144 434.5 c 128,-1,48
 128 458 128 458 120.5 471.5 c 128,-1,49
 113 485 113 485 100.5 507 c 128,-1,50
 88 529 88 529 80 546.5 c 128,-1,51
 72 564 72 564 62 585.5 c 128,-1,52
 52 607 52 607 46 622 c 128,-1,53
 40 637 40 637 40 651 c 0,54,55
 40 679 40 679 72 679 c 2,0,-1
215 748 m 0,56,57
 199 748 199 748 199 763 c 2,58,-1
 199 772 l 2,59,60
 199 787 199 787 217 799 c 1,61,-1
 397 906 l 2,62,63
 402 910 402 910 413 910 c 0,64,65
 431 910 431 910 431 892 c 2,66,-1
 431 865 l 2,67,68
 431 841 431 841 409 832 c 2,69,-1
 228 751 l 2,70,71
 222 748 222 748 215 748 c 0,56,57
EndSplineSet
EndChar

StartChar: germandbls
Encoding: 223 223 150
Width: 588
GlyphClass: 2
Flags: W
LayerCount: 2
Fore
SplineSet
73 524 m 2,0,1
 73 617 73 617 125 673 c 128,-1,2
 177 729 177 729 270.5 729 c 128,-1,3
 364 729 364 729 423 680 c 128,-1,4
 482 631 482 631 482 545 c 0,5,6
 482 492 482 492 446.5 455.5 c 128,-1,7
 411 419 411 419 326 371 c 1,8,9
 475 298 475 298 500 273 c 0,10,11
 543 230 543 230 550 202 c 128,-1,12
 557 174 557 174 557 146 c 0,13,14
 557 78 557 78 506 35.5 c 128,-1,15
 455 -7 455 -7 382 -7 c 128,-1,16
 309 -7 309 -7 267 17.5 c 128,-1,17
 225 42 225 42 225 81 c 128,-1,18
 225 120 225 120 263 127 c 1,19,20
 270 95 270 95 302.5 77 c 128,-1,21
 335 59 335 59 381 59 c 128,-1,22
 427 59 427 59 452 82.5 c 128,-1,23
 477 106 477 106 477 148 c 128,-1,24
 477 190 477 190 448 217 c 128,-1,25
 419 244 419 244 347.5 277.5 c 128,-1,26
 276 311 276 311 259.5 324.5 c 128,-1,27
 243 338 243 338 243 364 c 128,-1,28
 243 390 243 390 267 410.5 c 128,-1,29
 291 431 291 431 320 444.5 c 128,-1,30
 349 458 349 458 373 484.5 c 128,-1,31
 397 511 397 511 397 545 c 0,32,33
 397 603 397 603 359 632 c 128,-1,34
 321 661 321 661 269 661 c 128,-1,35
 217 661 217 661 186 626.5 c 128,-1,36
 155 592 155 592 155 526 c 2,37,-1
 155 35 l 2,38,39
 155 -1 155 -1 117 -1 c 2,40,-1
 111 -1 l 2,41,42
 91 -1 91 -1 82 7.5 c 128,-1,43
 73 16 73 16 73 35 c 2,44,-1
 73 524 l 2,0,1
EndSplineSet
EndChar

StartChar: agrave
Encoding: 224 224 151
Width: 538
GlyphClass: 2
Flags: W
LayerCount: 2
Fore
SplineSet
248 501 m 0,0,1
 460 501 460 501 460 304 c 2,2,-1
 460 106 l 2,3,4
 460 51 460 51 502 36 c 1,5,6
 487 -2 487 -2 446 -2 c 0,7,8
 416 -2 416 -2 398.5 19.5 c 128,-1,9
 381 41 381 41 381 76 c 1,10,11
 318 -8 318 -8 218 -8 c 0,12,13
 137 -8 137 -8 90.5 33.5 c 128,-1,14
 44 75 44 75 44 145.5 c 128,-1,15
 44 216 44 216 98.5 260 c 128,-1,16
 153 304 153 304 246 304 c 0,17,18
 302 304 302 304 340 292 c 1,19,20
 371 281 371 281 377 278 c 1,21,-1
 377 322 l 2,22,23
 377 383 377 383 346 408.5 c 128,-1,24
 315 434 315 434 252 434 c 0,25,26
 163 434 163 434 114 366 c 1,27,28
 72 372 72 372 72 405 c 0,29,30
 72 443 72 443 124 472 c 128,-1,31
 176 501 176 501 248 501 c 0,0,1
377 214 m 1,32,33
 314 242 314 242 253 242 c 128,-1,34
 192 242 192 242 159 216 c 128,-1,35
 126 190 126 190 126 148.5 c 128,-1,36
 126 107 126 107 154.5 82.5 c 128,-1,37
 183 58 183 58 238.5 58 c 128,-1,38
 294 58 294 58 335.5 98 c 128,-1,39
 377 138 377 138 377 195 c 2,40,-1
 377 214 l 1,32,33
150 665 m 2,41,-1
 150 692 l 2,42,43
 150 710 150 710 168 710 c 0,44,45
 177 710 177 710 184 706 c 2,46,-1
 364 599 l 2,47,48
 380 589 380 589 382 572 c 1,49,-1
 382 563 l 2,50,51
 382 548 382 548 365 548 c 0,52,53
 358 548 358 548 352 551 c 2,54,-1
 170 632 l 2,55,56
 150 641 150 641 150 665 c 2,41,-1
EndSplineSet
EndChar

StartChar: aacute
Encoding: 225 225 152
Width: 538
GlyphClass: 2
Flags: W
LayerCount: 2
Fore
SplineSet
248 501 m 0,0,1
 460 501 460 501 460 304 c 2,2,-1
 460 106 l 2,3,4
 460 51 460 51 502 36 c 1,5,6
 487 -2 487 -2 446 -2 c 0,7,8
 416 -2 416 -2 398.5 19.5 c 128,-1,9
 381 41 381 41 381 76 c 1,10,11
 318 -8 318 -8 218 -8 c 0,12,13
 137 -8 137 -8 90.5 33.5 c 128,-1,14
 44 75 44 75 44 145.5 c 128,-1,15
 44 216 44 216 98.5 260 c 128,-1,16
 153 304 153 304 246 304 c 0,17,18
 302 304 302 304 340 292 c 1,19,20
 371 281 371 281 377 278 c 1,21,-1
 377 322 l 2,22,23
 377 383 377 383 346 408.5 c 128,-1,24
 315 434 315 434 252 434 c 0,25,26
 163 434 163 434 114 366 c 1,27,28
 72 372 72 372 72 405 c 0,29,30
 72 443 72 443 124 472 c 128,-1,31
 176 501 176 501 248 501 c 0,0,1
377 214 m 1,32,33
 314 242 314 242 253 242 c 128,-1,34
 192 242 192 242 159 216 c 128,-1,35
 126 190 126 190 126 148.5 c 128,-1,36
 126 107 126 107 154.5 82.5 c 128,-1,37
 183 58 183 58 238.5 58 c 128,-1,38
 294 58 294 58 335.5 98 c 128,-1,39
 377 138 377 138 377 195 c 2,40,-1
 377 214 l 1,32,33
166 548 m 0,41,42
 150 548 150 548 150 563 c 2,43,-1
 150 572 l 2,44,45
 150 587 150 587 168 599 c 1,46,-1
 348 706 l 2,47,48
 353 710 353 710 364 710 c 0,49,50
 382 710 382 710 382 692 c 2,51,-1
 382 665 l 2,52,53
 382 641 382 641 360 632 c 2,54,-1
 179 551 l 2,55,56
 173 548 173 548 166 548 c 0,41,42
EndSplineSet
EndChar

StartChar: acircumflex
Encoding: 226 226 153
Width: 538
GlyphClass: 2
Flags: W
LayerCount: 2
Fore
SplineSet
248 501 m 0,0,1
 460 501 460 501 460 304 c 2,2,-1
 460 106 l 2,3,4
 460 51 460 51 502 36 c 1,5,6
 487 -2 487 -2 446 -2 c 0,7,8
 416 -2 416 -2 398.5 19.5 c 128,-1,9
 381 41 381 41 381 76 c 1,10,11
 318 -8 318 -8 218 -8 c 0,12,13
 137 -8 137 -8 90.5 33.5 c 128,-1,14
 44 75 44 75 44 145.5 c 128,-1,15
 44 216 44 216 98.5 260 c 128,-1,16
 153 304 153 304 246 304 c 0,17,18
 302 304 302 304 340 292 c 1,19,20
 371 281 371 281 377 278 c 1,21,-1
 377 322 l 2,22,23
 377 383 377 383 346 408.5 c 128,-1,24
 315 434 315 434 252 434 c 0,25,26
 163 434 163 434 114 366 c 1,27,28
 72 372 72 372 72 405 c 0,29,30
 72 443 72 443 124 472 c 128,-1,31
 176 501 176 501 248 501 c 0,0,1
377 214 m 1,32,33
 314 242 314 242 253 242 c 128,-1,34
 192 242 192 242 159 216 c 128,-1,35
 126 190 126 190 126 148.5 c 128,-1,36
 126 107 126 107 154.5 82.5 c 128,-1,37
 183 58 183 58 238.5 58 c 128,-1,38
 294 58 294 58 335.5 98 c 128,-1,39
 377 138 377 138 377 195 c 2,40,-1
 377 214 l 1,32,33
151 560 m 0,41,42
 121 560 121 560 121 584 c 0,43,44
 121 596 121 596 143 611 c 2,45,-1
 232 674 l 2,46,47
 246 684 246 684 264 684 c 128,-1,48
 282 684 282 684 298 673 c 2,49,-1
 387 611 l 2,50,51
 409 596 409 596 409 584 c 0,52,53
 409 560 409 560 379 560 c 0,54,55
 365 560 365 560 351 569 c 2,56,-1
 265 622 l 1,57,-1
 179 569 l 2,58,59
 165 560 165 560 151 560 c 0,41,42
EndSplineSet
EndChar

StartChar: atilde
Encoding: 227 227 154
Width: 538
GlyphClass: 2
Flags: W
LayerCount: 2
Fore
SplineSet
248 501 m 0,0,1
 460 501 460 501 460 304 c 2,2,-1
 460 106 l 2,3,4
 460 51 460 51 502 36 c 1,5,6
 487 -2 487 -2 446 -2 c 0,7,8
 416 -2 416 -2 398.5 19.5 c 128,-1,9
 381 41 381 41 381 76 c 1,10,11
 318 -8 318 -8 218 -8 c 0,12,13
 137 -8 137 -8 90.5 33.5 c 128,-1,14
 44 75 44 75 44 145.5 c 128,-1,15
 44 216 44 216 98.5 260 c 128,-1,16
 153 304 153 304 246 304 c 0,17,18
 302 304 302 304 340 292 c 1,19,20
 371 281 371 281 377 278 c 1,21,-1
 377 322 l 2,22,23
 377 383 377 383 346 408.5 c 128,-1,24
 315 434 315 434 252 434 c 0,25,26
 163 434 163 434 114 366 c 1,27,28
 72 372 72 372 72 405 c 0,29,30
 72 443 72 443 124 472 c 128,-1,31
 176 501 176 501 248 501 c 0,0,1
377 214 m 1,32,33
 314 242 314 242 253 242 c 128,-1,34
 192 242 192 242 159 216 c 128,-1,35
 126 190 126 190 126 148.5 c 128,-1,36
 126 107 126 107 154.5 82.5 c 128,-1,37
 183 58 183 58 238.5 58 c 128,-1,38
 294 58 294 58 335.5 98 c 128,-1,39
 377 138 377 138 377 195 c 2,40,-1
 377 214 l 1,32,33
258 565 m 0,41,42
 222 581 222 581 195 581 c 128,-1,43
 168 581 168 581 156.5 567.5 c 128,-1,44
 145 554 145 554 129.5 558 c 128,-1,45
 114 562 114 562 114 579 c 0,46,47
 114 615 114 615 137.5 633.5 c 128,-1,48
 161 652 161 652 198 652 c 0,49,50
 213 652 213 652 222.5 650 c 128,-1,51
 232 648 232 648 235.5 647.5 c 128,-1,52
 239 647 239 647 247 644 c 128,-1,53
 255 641 255 641 257 640 c 128,-1,54
 259 639 259 639 269.5 634.5 c 128,-1,55
 280 630 280 630 282 629 c 0,56,57
 318 613 318 613 345 613 c 128,-1,58
 372 613 372 613 383.5 626.5 c 128,-1,59
 395 640 395 640 410.5 636 c 128,-1,60
 426 632 426 632 426 615 c 0,61,62
 426 579 426 579 402.5 560.5 c 128,-1,63
 379 542 379 542 342 542 c 0,64,65
 327 542 327 542 317.5 544 c 128,-1,66
 308 546 308 546 304.5 546.5 c 128,-1,67
 301 547 301 547 293 550 c 128,-1,68
 285 553 285 553 283 554 c 128,-1,69
 281 555 281 555 270.5 559.5 c 128,-1,70
 260 564 260 564 258 565 c 0,41,42
EndSplineSet
EndChar

StartChar: adieresis
Encoding: 228 228 155
Width: 538
GlyphClass: 2
Flags: W
LayerCount: 2
Fore
SplineSet
248 501 m 0,0,1
 460 501 460 501 460 304 c 2,2,-1
 460 106 l 2,3,4
 460 51 460 51 502 36 c 1,5,6
 487 -2 487 -2 446 -2 c 0,7,8
 416 -2 416 -2 398.5 19.5 c 128,-1,9
 381 41 381 41 381 76 c 1,10,11
 318 -8 318 -8 218 -8 c 0,12,13
 137 -8 137 -8 90.5 33.5 c 128,-1,14
 44 75 44 75 44 145.5 c 128,-1,15
 44 216 44 216 98.5 260 c 128,-1,16
 153 304 153 304 246 304 c 0,17,18
 302 304 302 304 340 292 c 1,19,20
 371 281 371 281 377 278 c 1,21,-1
 377 322 l 2,22,23
 377 383 377 383 346 408.5 c 128,-1,24
 315 434 315 434 252 434 c 0,25,26
 163 434 163 434 114 366 c 1,27,28
 72 372 72 372 72 405 c 0,29,30
 72 443 72 443 124 472 c 128,-1,31
 176 501 176 501 248 501 c 0,0,1
377 214 m 1,32,33
 314 242 314 242 253 242 c 128,-1,34
 192 242 192 242 159 216 c 128,-1,35
 126 190 126 190 126 148.5 c 128,-1,36
 126 107 126 107 154.5 82.5 c 128,-1,37
 183 58 183 58 238.5 58 c 128,-1,38
 294 58 294 58 335.5 98 c 128,-1,39
 377 138 377 138 377 195 c 2,40,-1
 377 214 l 1,32,33
132.5 578 m 128,-1,42
 119 591 119 591 119 610.5 c 128,-1,43
 119 630 119 630 132.5 642.5 c 128,-1,44
 146 655 146 655 165 655 c 128,-1,45
 184 655 184 655 197 642.5 c 128,-1,46
 210 630 210 630 210 610.5 c 128,-1,47
 210 591 210 591 197 578 c 128,-1,48
 184 565 184 565 165 565 c 128,-1,41
 146 565 146 565 132.5 578 c 128,-1,42
334 578 m 128,-1,50
 321 591 321 591 321 610.5 c 128,-1,51
 321 630 321 630 334 642.5 c 128,-1,52
 347 655 347 655 366 655 c 128,-1,53
 385 655 385 655 398 642.5 c 128,-1,54
 411 630 411 630 411 610.5 c 128,-1,55
 411 591 411 591 398 578 c 128,-1,56
 385 565 385 565 366 565 c 128,-1,49
 347 565 347 565 334 578 c 128,-1,50
EndSplineSet
EndChar

StartChar: aring
Encoding: 229 229 156
Width: 538
GlyphClass: 2
Flags: W
LayerCount: 2
Fore
SplineSet
248 501 m 0,0,1
 460 501 460 501 460 304 c 2,2,-1
 460 106 l 2,3,4
 460 51 460 51 502 36 c 1,5,6
 487 -2 487 -2 446 -2 c 0,7,8
 416 -2 416 -2 398.5 19.5 c 128,-1,9
 381 41 381 41 381 76 c 1,10,11
 318 -8 318 -8 218 -8 c 0,12,13
 137 -8 137 -8 90.5 33.5 c 128,-1,14
 44 75 44 75 44 145.5 c 128,-1,15
 44 216 44 216 98.5 260 c 128,-1,16
 153 304 153 304 246 304 c 0,17,18
 302 304 302 304 340 292 c 1,19,20
 371 281 371 281 377 278 c 1,21,-1
 377 322 l 2,22,23
 377 383 377 383 346 408.5 c 128,-1,24
 315 434 315 434 252 434 c 0,25,26
 163 434 163 434 114 366 c 1,27,28
 72 372 72 372 72 405 c 0,29,30
 72 443 72 443 124 472 c 128,-1,31
 176 501 176 501 248 501 c 0,0,1
377 214 m 1,32,33
 314 242 314 242 253 242 c 128,-1,34
 192 242 192 242 159 216 c 128,-1,35
 126 190 126 190 126 148.5 c 128,-1,36
 126 107 126 107 154.5 82.5 c 128,-1,37
 183 58 183 58 238.5 58 c 128,-1,38
 294 58 294 58 335.5 98 c 128,-1,39
 377 138 377 138 377 195 c 2,40,-1
 377 214 l 1,32,33
180 619 m 128,-1,42
 180 658 180 658 204 681 c 128,-1,43
 228 704 228 704 267 704 c 128,-1,44
 306 704 306 704 330 681 c 128,-1,45
 354 658 354 658 354 619 c 128,-1,46
 354 580 354 580 330 557 c 128,-1,47
 306 534 306 534 267 534 c 128,-1,48
 228 534 228 534 204 557 c 128,-1,41
 180 580 180 580 180 619 c 128,-1,42
225 619 m 128,-1,50
 225 598 225 598 236.5 586.5 c 128,-1,51
 248 575 248 575 266.5 575 c 128,-1,52
 285 575 285 575 297 587.5 c 128,-1,53
 309 600 309 600 309 620 c 128,-1,54
 309 640 309 640 297.5 651.5 c 128,-1,55
 286 663 286 663 267 663 c 128,-1,56
 248 663 248 663 236.5 651.5 c 128,-1,49
 225 640 225 640 225 619 c 128,-1,50
EndSplineSet
EndChar

StartChar: ccedilla
Encoding: 231 231 157
Width: 518
GlyphClass: 2
Flags: W
LayerCount: 2
Fore
SplineSet
201 488 m 128,-1,1
 159 474 159 474 122.5 445 c 128,-1,2
 86 416 86 416 64.5 364.5 c 128,-1,3
 43 313 43 313 43 246.5 c 128,-1,4
 43 180 43 180 64 130 c 128,-1,5
 85 80 85 80 121 50.5 c 128,-1,6
 157 21 157 21 199.5 6.5 c 128,-1,7
 242 -8 242 -8 303.5 -8 c 128,-1,8
 365 -8 365 -8 413 20.5 c 128,-1,9
 461 49 461 49 461 84 c 0,10,11
 461 102 461 102 448 113.5 c 128,-1,12
 435 125 435 125 416 125 c 1,13,14
 381 60 381 60 281 60 c 0,15,16
 218 60 218 60 173 108 c 128,-1,17
 128 156 128 156 128 247 c 128,-1,18
 128 338 128 338 172 385.5 c 128,-1,19
 216 433 216 433 283 433 c 0,20,21
 331 433 331 433 366 414.5 c 128,-1,22
 401 396 401 396 411 374 c 1,23,24
 454 379 454 379 454 417 c 0,25,26
 454 448 454 448 408.5 475 c 128,-1,27
 363 502 363 502 303 502 c 128,-1,0
 243 502 243 502 201 488 c 128,-1,1
302 -28 m 2,28,29
 333 -28 333 -28 352.5 -42.5 c 128,-1,30
 372 -57 372 -57 372 -88 c 128,-1,31
 372 -119 372 -119 343.5 -138 c 128,-1,32
 315 -157 315 -157 278 -157 c 0,33,34
 205 -157 205 -157 205 -113 c 0,35,36
 205 -99 205 -99 214 -89.5 c 128,-1,37
 223 -80 223 -80 237 -80 c 1,38,39
 237 -105 237 -105 281 -105 c 0,40,41
 298 -105 298 -105 309 -98 c 128,-1,42
 320 -91 320 -91 320 -79 c 0,43,44
 320 -57 320 -57 285 -57 c 2,45,-1
 263 -57 l 2,46,47
 240 -57 240 -57 240 -37 c 0,48,49
 240 -32 240 -32 243 -24 c 2,50,-1
 258 14 l 1,51,-1
 302 14 l 1,52,-1
 289 -28 l 1,53,-1
 302 -28 l 2,28,29
EndSplineSet
EndChar

StartChar: egrave
Encoding: 232 232 158
Width: 515
GlyphClass: 2
Flags: W
LayerCount: 2
Fore
SplineSet
112 436 m 128,-1,1
 182 502 182 502 273 502 c 128,-1,2
 364 502 364 502 417 455.5 c 128,-1,3
 470 409 470 409 470 340 c 128,-1,4
 470 271 470 271 415.5 232.5 c 128,-1,5
 361 194 361 194 275 194 c 128,-1,6
 189 194 189 194 120 221 c 1,7,8
 120 148 120 148 170 103.5 c 128,-1,9
 220 59 220 59 292 59 c 0,10,11
 404 59 404 59 432 128 c 1,12,13
 449 128 449 128 461 118.5 c 128,-1,14
 473 109 473 109 473 91 c 0,15,16
 473 56 473 56 421.5 24 c 128,-1,17
 370 -8 370 -8 291 -8 c 0,18,19
 185 -8 185 -8 113.5 56 c 128,-1,20
 42 120 42 120 42 245 c 128,-1,0
 42 370 42 370 112 436 c 128,-1,1
360.5 409 m 128,-1,22
 327 436 327 436 268.5 436 c 128,-1,23
 210 436 210 436 166 389 c 128,-1,24
 122 342 122 342 121 283 c 1,25,26
 193 259 193 259 264 259 c 0,27,28
 394 259 394 259 394 343 c 0,29,21
 394 382 394 382 360.5 409 c 128,-1,22
142 665 m 2,30,-1
 142 692 l 2,31,32
 142 710 142 710 160 710 c 0,33,34
 169 710 169 710 176 706 c 2,35,-1
 356 599 l 2,36,37
 372 589 372 589 374 572 c 1,38,-1
 374 563 l 2,39,40
 374 548 374 548 357 548 c 0,41,42
 350 548 350 548 344 551 c 2,43,-1
 162 632 l 2,44,45
 142 641 142 641 142 665 c 2,30,-1
EndSplineSet
EndChar

StartChar: eacute
Encoding: 233 233 159
Width: 515
GlyphClass: 2
Flags: W
LayerCount: 2
Fore
SplineSet
112 436 m 128,-1,1
 182 502 182 502 273 502 c 128,-1,2
 364 502 364 502 417 455.5 c 128,-1,3
 470 409 470 409 470 340 c 128,-1,4
 470 271 470 271 415.5 232.5 c 128,-1,5
 361 194 361 194 275 194 c 128,-1,6
 189 194 189 194 120 221 c 1,7,8
 120 148 120 148 170 103.5 c 128,-1,9
 220 59 220 59 292 59 c 0,10,11
 404 59 404 59 432 128 c 1,12,13
 449 128 449 128 461 118.5 c 128,-1,14
 473 109 473 109 473 91 c 0,15,16
 473 56 473 56 421.5 24 c 128,-1,17
 370 -8 370 -8 291 -8 c 0,18,19
 185 -8 185 -8 113.5 56 c 128,-1,20
 42 120 42 120 42 245 c 128,-1,0
 42 370 42 370 112 436 c 128,-1,1
360.5 409 m 128,-1,22
 327 436 327 436 268.5 436 c 128,-1,23
 210 436 210 436 166 389 c 128,-1,24
 122 342 122 342 121 283 c 1,25,26
 193 259 193 259 264 259 c 0,27,28
 394 259 394 259 394 343 c 0,29,21
 394 382 394 382 360.5 409 c 128,-1,22
158 548 m 0,30,31
 142 548 142 548 142 563 c 2,32,-1
 142 572 l 2,33,34
 142 587 142 587 160 599 c 1,35,-1
 340 706 l 2,36,37
 345 710 345 710 356 710 c 0,38,39
 374 710 374 710 374 692 c 2,40,-1
 374 665 l 2,41,42
 374 641 374 641 352 632 c 2,43,-1
 171 551 l 2,44,45
 165 548 165 548 158 548 c 0,30,31
EndSplineSet
EndChar

StartChar: ecircumflex
Encoding: 234 234 160
Width: 515
GlyphClass: 2
Flags: W
LayerCount: 2
Fore
SplineSet
112 436 m 128,-1,1
 182 502 182 502 273 502 c 128,-1,2
 364 502 364 502 417 455.5 c 128,-1,3
 470 409 470 409 470 340 c 128,-1,4
 470 271 470 271 415.5 232.5 c 128,-1,5
 361 194 361 194 275 194 c 128,-1,6
 189 194 189 194 120 221 c 1,7,8
 120 148 120 148 170 103.5 c 128,-1,9
 220 59 220 59 292 59 c 0,10,11
 404 59 404 59 432 128 c 1,12,13
 449 128 449 128 461 118.5 c 128,-1,14
 473 109 473 109 473 91 c 0,15,16
 473 56 473 56 421.5 24 c 128,-1,17
 370 -8 370 -8 291 -8 c 0,18,19
 185 -8 185 -8 113.5 56 c 128,-1,20
 42 120 42 120 42 245 c 128,-1,0
 42 370 42 370 112 436 c 128,-1,1
360.5 409 m 128,-1,22
 327 436 327 436 268.5 436 c 128,-1,23
 210 436 210 436 166 389 c 128,-1,24
 122 342 122 342 121 283 c 1,25,26
 193 259 193 259 264 259 c 0,27,28
 394 259 394 259 394 343 c 0,29,21
 394 382 394 382 360.5 409 c 128,-1,22
164 560 m 0,30,31
 134 560 134 560 134 584 c 0,32,33
 134 596 134 596 156 611 c 2,34,-1
 245 674 l 2,35,36
 259 684 259 684 277 684 c 128,-1,37
 295 684 295 684 311 673 c 2,38,-1
 400 611 l 2,39,40
 422 596 422 596 422 584 c 0,41,42
 422 560 422 560 392 560 c 0,43,44
 378 560 378 560 364 569 c 2,45,-1
 278 622 l 1,46,-1
 192 569 l 2,47,48
 178 560 178 560 164 560 c 0,30,31
EndSplineSet
EndChar

StartChar: edieresis
Encoding: 235 235 161
Width: 515
GlyphClass: 2
Flags: W
LayerCount: 2
Fore
SplineSet
112 436 m 128,-1,1
 182 502 182 502 273 502 c 128,-1,2
 364 502 364 502 417 455.5 c 128,-1,3
 470 409 470 409 470 340 c 128,-1,4
 470 271 470 271 415.5 232.5 c 128,-1,5
 361 194 361 194 275 194 c 128,-1,6
 189 194 189 194 120 221 c 1,7,8
 120 148 120 148 170 103.5 c 128,-1,9
 220 59 220 59 292 59 c 0,10,11
 404 59 404 59 432 128 c 1,12,13
 449 128 449 128 461 118.5 c 128,-1,14
 473 109 473 109 473 91 c 0,15,16
 473 56 473 56 421.5 24 c 128,-1,17
 370 -8 370 -8 291 -8 c 0,18,19
 185 -8 185 -8 113.5 56 c 128,-1,20
 42 120 42 120 42 245 c 128,-1,0
 42 370 42 370 112 436 c 128,-1,1
360.5 409 m 128,-1,22
 327 436 327 436 268.5 436 c 128,-1,23
 210 436 210 436 166 389 c 128,-1,24
 122 342 122 342 121 283 c 1,25,26
 193 259 193 259 264 259 c 0,27,28
 394 259 394 259 394 343 c 0,29,21
 394 382 394 382 360.5 409 c 128,-1,22
135.5 578 m 128,-1,31
 122 591 122 591 122 610.5 c 128,-1,32
 122 630 122 630 135.5 642.5 c 128,-1,33
 149 655 149 655 168 655 c 128,-1,34
 187 655 187 655 200 642.5 c 128,-1,35
 213 630 213 630 213 610.5 c 128,-1,36
 213 591 213 591 200 578 c 128,-1,37
 187 565 187 565 168 565 c 128,-1,30
 149 565 149 565 135.5 578 c 128,-1,31
337 578 m 128,-1,39
 324 591 324 591 324 610.5 c 128,-1,40
 324 630 324 630 337 642.5 c 128,-1,41
 350 655 350 655 369 655 c 128,-1,42
 388 655 388 655 401 642.5 c 128,-1,43
 414 630 414 630 414 610.5 c 128,-1,44
 414 591 414 591 401 578 c 128,-1,45
 388 565 388 565 369 565 c 128,-1,38
 350 565 350 565 337 578 c 128,-1,39
EndSplineSet
EndChar

StartChar: igrave
Encoding: 236 236 162
Width: 271
GlyphClass: 2
Flags: W
LayerCount: 2
Fore
SplineSet
21 676 m 2,0,-1
 21 703 l 2,1,2
 21 721 21 721 39 721 c 0,3,4
 48 721 48 721 55 717 c 2,5,-1
 235 610 l 2,6,7
 251 600 251 600 253 583 c 1,8,-1
 253 574 l 2,9,10
 253 559 253 559 236 559 c 0,11,12
 229 559 229 559 223 562 c 2,13,-1
 41 643 l 2,14,15
 21 652 21 652 21 676 c 2,0,-1
131 493 m 2,16,-1
 137 493 l 2,17,18
 175 493 175 493 175 456 c 2,19,-1
 175 38 l 2,20,21
 175 0 175 0 137 0 c 2,22,-1
 131 0 l 2,23,24
 111 0 111 0 102 9 c 128,-1,25
 93 18 93 18 93 38 c 2,26,-1
 93 456 l 2,27,28
 93 493 93 493 131 493 c 2,16,-1
EndSplineSet
EndChar

StartChar: iacute
Encoding: 237 237 163
Width: 271
GlyphClass: 2
Flags: W
LayerCount: 2
Fore
SplineSet
37 559 m 0,0,1
 21 559 21 559 21 574 c 2,2,-1
 21 583 l 2,3,4
 21 598 21 598 39 610 c 1,5,-1
 219 717 l 2,6,7
 224 721 224 721 235 721 c 0,8,9
 253 721 253 721 253 703 c 2,10,-1
 253 676 l 2,11,12
 253 652 253 652 231 643 c 2,13,-1
 50 562 l 2,14,15
 44 559 44 559 37 559 c 0,0,1
131 493 m 2,16,-1
 137 493 l 2,17,18
 175 493 175 493 175 456 c 2,19,-1
 175 38 l 2,20,21
 175 0 175 0 137 0 c 2,22,-1
 131 0 l 2,23,24
 111 0 111 0 102 9 c 128,-1,25
 93 18 93 18 93 38 c 2,26,-1
 93 456 l 2,27,28
 93 493 93 493 131 493 c 2,16,-1
EndSplineSet
EndChar

StartChar: icircumflex
Encoding: 238 238 164
Width: 282
GlyphClass: 2
Flags: W
LayerCount: 2
Fore
SplineSet
28 571 m 0,0,1
 -2 571 -2 571 -2 595 c 0,2,3
 -2 607 -2 607 20 622 c 2,4,-1
 109 685 l 2,5,6
 123 695 123 695 141 695 c 128,-1,7
 159 695 159 695 175 684 c 2,8,-1
 264 622 l 2,9,10
 286 607 286 607 286 595 c 0,11,12
 286 571 286 571 256 571 c 0,13,14
 242 571 242 571 228 580 c 2,15,-1
 142 633 l 1,16,-1
 56 580 l 2,17,18
 42 571 42 571 28 571 c 0,0,1
138 493 m 2,19,-1
 144 493 l 2,20,21
 182 493 182 493 182 456 c 2,22,-1
 182 38 l 2,23,24
 182 0 182 0 144 0 c 2,25,-1
 138 0 l 2,26,27
 118 0 118 0 109 9 c 128,-1,28
 100 18 100 18 100 38 c 2,29,-1
 100 456 l 2,30,31
 100 493 100 493 138 493 c 2,19,-1
EndSplineSet
EndChar

StartChar: idieresis
Encoding: 239 239 165
Width: 266
GlyphClass: 2
Flags: W
LayerCount: 2
Fore
SplineSet
1.5 589 m 128,-1,1
 -12 602 -12 602 -12 621.5 c 128,-1,2
 -12 641 -12 641 1.5 653.5 c 128,-1,3
 15 666 15 666 34 666 c 128,-1,4
 53 666 53 666 66 653.5 c 128,-1,5
 79 641 79 641 79 621.5 c 128,-1,6
 79 602 79 602 66 589 c 128,-1,7
 53 576 53 576 34 576 c 128,-1,0
 15 576 15 576 1.5 589 c 128,-1,1
203 589 m 128,-1,9
 190 602 190 602 190 621.5 c 128,-1,10
 190 641 190 641 203 653.5 c 128,-1,11
 216 666 216 666 235 666 c 128,-1,12
 254 666 254 666 267 653.5 c 128,-1,13
 280 641 280 641 280 621.5 c 128,-1,14
 280 602 280 602 267 589 c 128,-1,15
 254 576 254 576 235 576 c 128,-1,8
 216 576 216 576 203 589 c 128,-1,9
132 493 m 2,16,-1
 138 493 l 2,17,18
 176 493 176 493 176 456 c 2,19,-1
 176 38 l 2,20,21
 176 0 176 0 138 0 c 2,22,-1
 132 0 l 2,23,24
 112 0 112 0 103 9 c 128,-1,25
 94 18 94 18 94 38 c 2,26,-1
 94 456 l 2,27,28
 94 493 94 493 132 493 c 2,16,-1
EndSplineSet
EndChar

StartChar: ntilde
Encoding: 241 241 166
Width: 557
GlyphClass: 2
Flags: W
LayerCount: 2
Fore
SplineSet
111 493 m 2,0,-1
 118 493 l 2,1,2
 156 493 156 493 156 455 c 2,3,-1
 156 406 l 1,4,5
 175 444 175 444 216 473 c 128,-1,6
 257 502 257 502 310 502 c 0,7,8
 391 502 391 502 442.5 453.5 c 128,-1,9
 494 405 494 405 494 300 c 2,10,-1
 494 38 l 2,11,12
 494 18 494 18 485 9 c 128,-1,13
 476 0 476 0 456 0 c 2,14,-1
 448 0 l 2,15,16
 411 0 411 0 411 38 c 2,17,-1
 411 297 l 2,18,19
 411 370 411 370 380 401 c 128,-1,20
 349 432 349 432 290 432 c 128,-1,21
 231 432 231 432 194 384 c 128,-1,22
 157 336 157 336 157 257 c 2,23,-1
 157 38 l 2,24,25
 157 0 157 0 118 0 c 2,26,-1
 111 0 l 2,27,28
 91 0 91 0 82 9 c 128,-1,29
 73 18 73 18 73 38 c 2,30,-1
 73 455 l 2,31,32
 73 493 73 493 111 493 c 2,0,-1
271 565 m 0,33,34
 235 581 235 581 208 581 c 128,-1,35
 181 581 181 581 169.5 567.5 c 128,-1,36
 158 554 158 554 142.5 558 c 128,-1,37
 127 562 127 562 127 579 c 0,38,39
 127 615 127 615 150.5 633.5 c 128,-1,40
 174 652 174 652 211 652 c 0,41,42
 226 652 226 652 235.5 650 c 128,-1,43
 245 648 245 648 248.5 647.5 c 128,-1,44
 252 647 252 647 260 644 c 128,-1,45
 268 641 268 641 270 640 c 128,-1,46
 272 639 272 639 282.5 634.5 c 128,-1,47
 293 630 293 630 295 629 c 0,48,49
 331 613 331 613 358 613 c 128,-1,50
 385 613 385 613 396.5 626.5 c 128,-1,51
 408 640 408 640 423.5 636 c 128,-1,52
 439 632 439 632 439 615 c 0,53,54
 439 579 439 579 415.5 560.5 c 128,-1,55
 392 542 392 542 355 542 c 0,56,57
 340 542 340 542 330.5 544 c 128,-1,58
 321 546 321 546 317.5 546.5 c 128,-1,59
 314 547 314 547 306 550 c 128,-1,60
 298 553 298 553 296 554 c 128,-1,61
 294 555 294 555 283.5 559.5 c 128,-1,62
 273 564 273 564 271 565 c 0,33,34
EndSplineSet
EndChar

StartChar: ograve
Encoding: 242 242 167
Width: 574
GlyphClass: 2
Flags: W
LayerCount: 2
Fore
SplineSet
287 502 m 128,-1,1
 390 502 390 502 461 435 c 128,-1,2
 532 368 532 368 532 246 c 128,-1,3
 532 124 532 124 461 58 c 128,-1,4
 390 -8 390 -8 287 -8 c 128,-1,5
 184 -8 184 -8 113 58 c 128,-1,6
 42 124 42 124 42 246 c 128,-1,7
 42 368 42 368 113 435 c 128,-1,0
 184 502 184 502 287 502 c 128,-1,1
287 433 m 128,-1,9
 216 433 216 433 171.5 384.5 c 128,-1,10
 127 336 127 336 127 246.5 c 128,-1,11
 127 157 127 157 171.5 108.5 c 128,-1,12
 216 60 216 60 287 60 c 128,-1,13
 358 60 358 60 402.5 108.5 c 128,-1,14
 447 157 447 157 447 246.5 c 128,-1,15
 447 336 447 336 402.5 384.5 c 128,-1,8
 358 433 358 433 287 433 c 128,-1,9
173 665 m 2,16,-1
 173 692 l 2,17,18
 173 710 173 710 191 710 c 0,19,20
 200 710 200 710 207 706 c 2,21,-1
 387 599 l 2,22,23
 403 589 403 589 405 572 c 1,24,-1
 405 563 l 2,25,26
 405 548 405 548 388 548 c 0,27,28
 381 548 381 548 375 551 c 2,29,-1
 193 632 l 2,30,31
 173 641 173 641 173 665 c 2,16,-1
EndSplineSet
EndChar

StartChar: oacute
Encoding: 243 243 168
Width: 574
GlyphClass: 2
Flags: W
LayerCount: 2
Fore
SplineSet
287 502 m 128,-1,1
 390 502 390 502 461 435 c 128,-1,2
 532 368 532 368 532 246 c 128,-1,3
 532 124 532 124 461 58 c 128,-1,4
 390 -8 390 -8 287 -8 c 128,-1,5
 184 -8 184 -8 113 58 c 128,-1,6
 42 124 42 124 42 246 c 128,-1,7
 42 368 42 368 113 435 c 128,-1,0
 184 502 184 502 287 502 c 128,-1,1
287 433 m 128,-1,9
 216 433 216 433 171.5 384.5 c 128,-1,10
 127 336 127 336 127 246.5 c 128,-1,11
 127 157 127 157 171.5 108.5 c 128,-1,12
 216 60 216 60 287 60 c 128,-1,13
 358 60 358 60 402.5 108.5 c 128,-1,14
 447 157 447 157 447 246.5 c 128,-1,15
 447 336 447 336 402.5 384.5 c 128,-1,8
 358 433 358 433 287 433 c 128,-1,9
189 548 m 0,16,17
 173 548 173 548 173 563 c 2,18,-1
 173 572 l 2,19,20
 173 587 173 587 191 599 c 1,21,-1
 371 706 l 2,22,23
 376 710 376 710 387 710 c 0,24,25
 405 710 405 710 405 692 c 2,26,-1
 405 665 l 2,27,28
 405 641 405 641 383 632 c 2,29,-1
 202 551 l 2,30,31
 196 548 196 548 189 548 c 0,16,17
EndSplineSet
EndChar

StartChar: ocircumflex
Encoding: 244 244 169
Width: 574
GlyphClass: 2
Flags: W
LayerCount: 2
Fore
SplineSet
287 502 m 128,-1,1
 390 502 390 502 461 435 c 128,-1,2
 532 368 532 368 532 246 c 128,-1,3
 532 124 532 124 461 58 c 128,-1,4
 390 -8 390 -8 287 -8 c 128,-1,5
 184 -8 184 -8 113 58 c 128,-1,6
 42 124 42 124 42 246 c 128,-1,7
 42 368 42 368 113 435 c 128,-1,0
 184 502 184 502 287 502 c 128,-1,1
287 433 m 128,-1,9
 216 433 216 433 171.5 384.5 c 128,-1,10
 127 336 127 336 127 246.5 c 128,-1,11
 127 157 127 157 171.5 108.5 c 128,-1,12
 216 60 216 60 287 60 c 128,-1,13
 358 60 358 60 402.5 108.5 c 128,-1,14
 447 157 447 157 447 246.5 c 128,-1,15
 447 336 447 336 402.5 384.5 c 128,-1,8
 358 433 358 433 287 433 c 128,-1,9
174 560 m 0,16,17
 144 560 144 560 144 584 c 0,18,19
 144 596 144 596 166 611 c 2,20,-1
 255 674 l 2,21,22
 269 684 269 684 287 684 c 128,-1,23
 305 684 305 684 321 673 c 2,24,-1
 410 611 l 2,25,26
 432 596 432 596 432 584 c 0,27,28
 432 560 432 560 402 560 c 0,29,30
 388 560 388 560 374 569 c 2,31,-1
 288 622 l 1,32,-1
 202 569 l 2,33,34
 188 560 188 560 174 560 c 0,16,17
EndSplineSet
EndChar

StartChar: otilde
Encoding: 245 245 170
Width: 574
GlyphClass: 2
Flags: W
LayerCount: 2
Fore
SplineSet
287 502 m 128,-1,1
 390 502 390 502 461 435 c 128,-1,2
 532 368 532 368 532 246 c 128,-1,3
 532 124 532 124 461 58 c 128,-1,4
 390 -8 390 -8 287 -8 c 128,-1,5
 184 -8 184 -8 113 58 c 128,-1,6
 42 124 42 124 42 246 c 128,-1,7
 42 368 42 368 113 435 c 128,-1,0
 184 502 184 502 287 502 c 128,-1,1
287 433 m 128,-1,9
 216 433 216 433 171.5 384.5 c 128,-1,10
 127 336 127 336 127 246.5 c 128,-1,11
 127 157 127 157 171.5 108.5 c 128,-1,12
 216 60 216 60 287 60 c 128,-1,13
 358 60 358 60 402.5 108.5 c 128,-1,14
 447 157 447 157 447 246.5 c 128,-1,15
 447 336 447 336 402.5 384.5 c 128,-1,8
 358 433 358 433 287 433 c 128,-1,9
278 565 m 0,16,17
 242 581 242 581 215 581 c 128,-1,18
 188 581 188 581 176.5 567.5 c 128,-1,19
 165 554 165 554 149.5 558 c 128,-1,20
 134 562 134 562 134 579 c 0,21,22
 134 615 134 615 157.5 633.5 c 128,-1,23
 181 652 181 652 218 652 c 0,24,25
 233 652 233 652 242.5 650 c 128,-1,26
 252 648 252 648 255.5 647.5 c 128,-1,27
 259 647 259 647 267 644 c 128,-1,28
 275 641 275 641 277 640 c 128,-1,29
 279 639 279 639 289.5 634.5 c 128,-1,30
 300 630 300 630 302 629 c 0,31,32
 338 613 338 613 365 613 c 128,-1,33
 392 613 392 613 403.5 626.5 c 128,-1,34
 415 640 415 640 430.5 636 c 128,-1,35
 446 632 446 632 446 615 c 0,36,37
 446 579 446 579 422.5 560.5 c 128,-1,38
 399 542 399 542 362 542 c 0,39,40
 347 542 347 542 337.5 544 c 128,-1,41
 328 546 328 546 324.5 546.5 c 128,-1,42
 321 547 321 547 313 550 c 128,-1,43
 305 553 305 553 303 554 c 128,-1,44
 301 555 301 555 290.5 559.5 c 128,-1,45
 280 564 280 564 278 565 c 0,16,17
EndSplineSet
EndChar

StartChar: odieresis
Encoding: 246 246 171
Width: 574
GlyphClass: 2
Flags: W
LayerCount: 2
Fore
SplineSet
287 502 m 128,-1,1
 390 502 390 502 461 435 c 128,-1,2
 532 368 532 368 532 246 c 128,-1,3
 532 124 532 124 461 58 c 128,-1,4
 390 -8 390 -8 287 -8 c 128,-1,5
 184 -8 184 -8 113 58 c 128,-1,6
 42 124 42 124 42 246 c 128,-1,7
 42 368 42 368 113 435 c 128,-1,0
 184 502 184 502 287 502 c 128,-1,1
287 433 m 128,-1,9
 216 433 216 433 171.5 384.5 c 128,-1,10
 127 336 127 336 127 246.5 c 128,-1,11
 127 157 127 157 171.5 108.5 c 128,-1,12
 216 60 216 60 287 60 c 128,-1,13
 358 60 358 60 402.5 108.5 c 128,-1,14
 447 157 447 157 447 246.5 c 128,-1,15
 447 336 447 336 402.5 384.5 c 128,-1,8
 358 433 358 433 287 433 c 128,-1,9
154.5 578 m 128,-1,17
 141 591 141 591 141 610.5 c 128,-1,18
 141 630 141 630 154.5 642.5 c 128,-1,19
 168 655 168 655 187 655 c 128,-1,20
 206 655 206 655 219 642.5 c 128,-1,21
 232 630 232 630 232 610.5 c 128,-1,22
 232 591 232 591 219 578 c 128,-1,23
 206 565 206 565 187 565 c 128,-1,16
 168 565 168 565 154.5 578 c 128,-1,17
356 578 m 128,-1,25
 343 591 343 591 343 610.5 c 128,-1,26
 343 630 343 630 356 642.5 c 128,-1,27
 369 655 369 655 388 655 c 128,-1,28
 407 655 407 655 420 642.5 c 128,-1,29
 433 630 433 630 433 610.5 c 128,-1,30
 433 591 433 591 420 578 c 128,-1,31
 407 565 407 565 388 565 c 128,-1,24
 369 565 369 565 356 578 c 128,-1,25
EndSplineSet
EndChar

StartChar: divide
Encoding: 247 247 172
Width: 551
GlyphClass: 2
Flags: W
LayerCount: 2
Fore
SplineSet
229 157 m 128,-1,1
 248 175 248 175 275.5 175 c 128,-1,2
 303 175 303 175 322 157 c 128,-1,3
 341 139 341 139 341 110 c 128,-1,4
 341 81 341 81 322 63 c 128,-1,5
 303 45 303 45 275.5 45 c 128,-1,6
 248 45 248 45 229 63 c 128,-1,7
 210 81 210 81 210 110 c 128,-1,0
 210 139 210 139 229 157 c 128,-1,1
229 467 m 128,-1,9
 248 485 248 485 275.5 485 c 128,-1,10
 303 485 303 485 322 467 c 128,-1,11
 341 449 341 449 341 420 c 128,-1,12
 341 391 341 391 322 373 c 128,-1,13
 303 355 303 355 275.5 355 c 128,-1,14
 248 355 248 355 229 373 c 128,-1,15
 210 391 210 391 210 420 c 128,-1,8
 210 449 210 449 229 467 c 128,-1,9
95 297 m 2,16,-1
 455 297 l 2,17,18
 492 297 492 297 492 264 c 128,-1,19
 492 231 492 231 455 231 c 2,20,-1
 95 231 l 2,21,22
 58 231 58 231 58 264 c 128,-1,23
 58 297 58 297 95 297 c 2,16,-1
EndSplineSet
EndChar

StartChar: oslash
Encoding: 248 248 173
Width: 574
GlyphClass: 2
Flags: W
LayerCount: 2
Fore
SplineSet
116 -29 m 2,0,1
 106 -41 106 -41 96 -41 c 128,-1,2
 86 -41 86 -41 72 -30.5 c 128,-1,3
 58 -20 58 -20 58 -10 c 128,-1,4
 58 0 58 0 65 9 c 2,5,-1
 447 516 l 2,6,7
 457 529 457 529 467 529 c 128,-1,8
 477 529 477 529 491.5 518.5 c 128,-1,9
 506 508 506 508 506 498 c 128,-1,10
 506 488 506 488 498 478 c 2,11,-1
 116 -29 l 2,0,1
287 502 m 128,-1,13
 390 502 390 502 461 435 c 128,-1,14
 532 368 532 368 532 246 c 128,-1,15
 532 124 532 124 461 58 c 128,-1,16
 390 -8 390 -8 287 -8 c 128,-1,17
 184 -8 184 -8 113 58 c 128,-1,18
 42 124 42 124 42 246 c 128,-1,19
 42 368 42 368 113 435 c 128,-1,12
 184 502 184 502 287 502 c 128,-1,13
287 433 m 128,-1,21
 216 433 216 433 171.5 384.5 c 128,-1,22
 127 336 127 336 127 246.5 c 128,-1,23
 127 157 127 157 171.5 108.5 c 128,-1,24
 216 60 216 60 287 60 c 128,-1,25
 358 60 358 60 402.5 108.5 c 128,-1,26
 447 157 447 157 447 246.5 c 128,-1,27
 447 336 447 336 402.5 384.5 c 128,-1,20
 358 433 358 433 287 433 c 128,-1,21
EndSplineSet
EndChar

StartChar: ugrave
Encoding: 249 249 174
Width: 559
GlyphClass: 2
Flags: W
LayerCount: 2
Fore
SplineSet
99 492 m 2,0,-1
 106 492 l 2,1,2
 144 492 144 492 144 455 c 2,3,-1
 144 198 l 2,4,5
 144 61 144 61 265 61 c 0,6,7
 311 61 311 61 342 88 c 0,8,9
 398 136 398 136 398 232 c 2,10,-1
 398 455 l 2,11,12
 398 492 398 492 437 492 c 2,13,-1
 444 492 l 2,14,15
 464 492 464 492 472.5 483.5 c 128,-1,16
 481 475 481 475 481 455 c 2,17,-1
 481 37 l 2,18,19
 481 17 481 17 472 8.5 c 128,-1,20
 463 0 463 0 443 0 c 2,21,-1
 437 0 l 2,22,23
 398 0 398 0 398 37 c 2,24,-1
 398 87 l 1,25,26
 384 55 384 55 338.5 23.5 c 128,-1,27
 293 -8 293 -8 241 -8 c 0,28,29
 61 -8 61 -8 61 193 c 2,30,-1
 61 455 l 2,31,32
 61 492 61 492 99 492 c 2,0,-1
153 665 m 2,33,-1
 153 692 l 2,34,35
 153 710 153 710 171 710 c 0,36,37
 180 710 180 710 187 706 c 2,38,-1
 367 599 l 2,39,40
 383 589 383 589 385 572 c 1,41,-1
 385 563 l 2,42,43
 385 548 385 548 368 548 c 0,44,45
 361 548 361 548 355 551 c 2,46,-1
 173 632 l 2,47,48
 153 641 153 641 153 665 c 2,33,-1
EndSplineSet
EndChar

StartChar: uacute
Encoding: 250 250 175
Width: 559
GlyphClass: 2
Flags: W
LayerCount: 2
Fore
SplineSet
99 492 m 2,0,-1
 106 492 l 2,1,2
 144 492 144 492 144 455 c 2,3,-1
 144 198 l 2,4,5
 144 61 144 61 265 61 c 0,6,7
 311 61 311 61 342 88 c 0,8,9
 398 136 398 136 398 232 c 2,10,-1
 398 455 l 2,11,12
 398 492 398 492 437 492 c 2,13,-1
 444 492 l 2,14,15
 464 492 464 492 472.5 483.5 c 128,-1,16
 481 475 481 475 481 455 c 2,17,-1
 481 37 l 2,18,19
 481 17 481 17 472 8.5 c 128,-1,20
 463 0 463 0 443 0 c 2,21,-1
 437 0 l 2,22,23
 398 0 398 0 398 37 c 2,24,-1
 398 87 l 1,25,26
 384 55 384 55 338.5 23.5 c 128,-1,27
 293 -8 293 -8 241 -8 c 0,28,29
 61 -8 61 -8 61 193 c 2,30,-1
 61 455 l 2,31,32
 61 492 61 492 99 492 c 2,0,-1
184 548 m 0,33,34
 168 548 168 548 168 563 c 2,35,-1
 168 572 l 2,36,37
 168 587 168 587 186 599 c 1,38,-1
 366 706 l 2,39,40
 371 710 371 710 382 710 c 0,41,42
 400 710 400 710 400 692 c 2,43,-1
 400 665 l 2,44,45
 400 641 400 641 378 632 c 2,46,-1
 197 551 l 2,47,48
 191 548 191 548 184 548 c 0,33,34
EndSplineSet
EndChar

StartChar: ucircumflex
Encoding: 251 251 176
Width: 559
GlyphClass: 2
Flags: W
LayerCount: 2
Fore
SplineSet
99 492 m 2,0,-1
 106 492 l 2,1,2
 144 492 144 492 144 455 c 2,3,-1
 144 198 l 2,4,5
 144 61 144 61 265 61 c 0,6,7
 311 61 311 61 342 88 c 0,8,9
 398 136 398 136 398 232 c 2,10,-1
 398 455 l 2,11,12
 398 492 398 492 437 492 c 2,13,-1
 444 492 l 2,14,15
 464 492 464 492 472.5 483.5 c 128,-1,16
 481 475 481 475 481 455 c 2,17,-1
 481 37 l 2,18,19
 481 17 481 17 472 8.5 c 128,-1,20
 463 0 463 0 443 0 c 2,21,-1
 437 0 l 2,22,23
 398 0 398 0 398 37 c 2,24,-1
 398 87 l 1,25,26
 384 55 384 55 338.5 23.5 c 128,-1,27
 293 -8 293 -8 241 -8 c 0,28,29
 61 -8 61 -8 61 193 c 2,30,-1
 61 455 l 2,31,32
 61 492 61 492 99 492 c 2,0,-1
161 560 m 0,33,34
 131 560 131 560 131 584 c 0,35,36
 131 596 131 596 153 611 c 2,37,-1
 242 674 l 2,38,39
 256 684 256 684 274 684 c 128,-1,40
 292 684 292 684 308 673 c 2,41,-1
 397 611 l 2,42,43
 419 596 419 596 419 584 c 0,44,45
 419 560 419 560 389 560 c 0,46,47
 375 560 375 560 361 569 c 2,48,-1
 275 622 l 1,49,-1
 189 569 l 2,50,51
 175 560 175 560 161 560 c 0,33,34
EndSplineSet
EndChar

StartChar: udieresis
Encoding: 252 252 177
Width: 559
GlyphClass: 2
Flags: W
LayerCount: 2
Fore
SplineSet
99 492 m 2,0,-1
 106 492 l 2,1,2
 144 492 144 492 144 455 c 2,3,-1
 144 198 l 2,4,5
 144 61 144 61 265 61 c 0,6,7
 311 61 311 61 342 88 c 0,8,9
 398 136 398 136 398 232 c 2,10,-1
 398 455 l 2,11,12
 398 492 398 492 437 492 c 2,13,-1
 444 492 l 2,14,15
 464 492 464 492 472.5 483.5 c 128,-1,16
 481 475 481 475 481 455 c 2,17,-1
 481 37 l 2,18,19
 481 17 481 17 472 8.5 c 128,-1,20
 463 0 463 0 443 0 c 2,21,-1
 437 0 l 2,22,23
 398 0 398 0 398 37 c 2,24,-1
 398 87 l 1,25,26
 384 55 384 55 338.5 23.5 c 128,-1,27
 293 -8 293 -8 241 -8 c 0,28,29
 61 -8 61 -8 61 193 c 2,30,-1
 61 455 l 2,31,32
 61 492 61 492 99 492 c 2,0,-1
142.5 578 m 128,-1,34
 129 591 129 591 129 610.5 c 128,-1,35
 129 630 129 630 142.5 642.5 c 128,-1,36
 156 655 156 655 175 655 c 128,-1,37
 194 655 194 655 207 642.5 c 128,-1,38
 220 630 220 630 220 610.5 c 128,-1,39
 220 591 220 591 207 578 c 128,-1,40
 194 565 194 565 175 565 c 128,-1,33
 156 565 156 565 142.5 578 c 128,-1,34
344 578 m 128,-1,42
 331 591 331 591 331 610.5 c 128,-1,43
 331 630 331 630 344 642.5 c 128,-1,44
 357 655 357 655 376 655 c 128,-1,45
 395 655 395 655 408 642.5 c 128,-1,46
 421 630 421 630 421 610.5 c 128,-1,47
 421 591 421 591 408 578 c 128,-1,48
 395 565 395 565 376 565 c 128,-1,41
 357 565 357 565 344 578 c 128,-1,42
EndSplineSet
EndChar

StartChar: yacute
Encoding: 253 253 178
Width: 517
GlyphClass: 2
Flags: W
LayerCount: 2
Fore
SplineSet
58 492 m 2,0,-1
 77 492 l 2,1,2
 109 492 109 492 116 461 c 0,3,4
 177 221 177 221 251 73 c 1,5,-1
 260 73 l 1,6,7
 344 280 344 280 395 461 c 0,8,9
 404 492 404 492 434 492 c 2,10,-1
 450 492 l 2,11,12
 481 492 481 492 481 470 c 0,13,14
 481 464 481 464 478 456 c 0,15,16
 362 94 362 94 226 -194 c 0,17,18
 218 -211 218 -211 209.5 -218.5 c 128,-1,19
 201 -226 201 -226 183 -226 c 2,20,-1
 158 -226 l 2,21,22
 134 -226 134 -226 134 -203 c 0,23,24
 134 -196 134 -196 145 -174 c 0,25,26
 219 -31 219 -31 232 1 c 1,27,-1
 230 1 l 1,28,29
 212 4 212 4 207 9.5 c 128,-1,30
 202 15 202 15 200 16.5 c 128,-1,31
 198 18 198 18 195 23.5 c 128,-1,32
 192 29 192 29 191 30.5 c 128,-1,33
 190 32 190 32 186.5 39.5 c 128,-1,34
 183 47 183 47 182 49 c 0,35,36
 105 203 105 203 30 456 c 0,37,38
 27 464 27 464 27 470 c 0,39,40
 27 492 27 492 58 492 c 2,0,-1
158 548 m 0,41,42
 142 548 142 548 142 563 c 2,43,-1
 142 572 l 2,44,45
 142 587 142 587 160 599 c 1,46,-1
 340 706 l 2,47,48
 345 710 345 710 356 710 c 0,49,50
 374 710 374 710 374 692 c 2,51,-1
 374 665 l 2,52,53
 374 641 374 641 352 632 c 2,54,-1
 171 551 l 2,55,56
 165 548 165 548 158 548 c 0,41,42
EndSplineSet
EndChar

StartChar: ydieresis
Encoding: 255 255 179
Width: 517
GlyphClass: 2
Flags: W
LayerCount: 2
Fore
SplineSet
58 492 m 2,0,-1
 77 492 l 2,1,2
 109 492 109 492 116 461 c 0,3,4
 177 221 177 221 251 73 c 1,5,-1
 260 73 l 1,6,7
 344 280 344 280 395 461 c 0,8,9
 404 492 404 492 434 492 c 2,10,-1
 450 492 l 2,11,12
 481 492 481 492 481 470 c 0,13,14
 481 464 481 464 478 456 c 0,15,16
 362 94 362 94 226 -194 c 0,17,18
 218 -211 218 -211 209.5 -218.5 c 128,-1,19
 201 -226 201 -226 183 -226 c 2,20,-1
 158 -226 l 2,21,22
 134 -226 134 -226 134 -203 c 0,23,24
 134 -196 134 -196 145 -174 c 0,25,26
 219 -31 219 -31 232 1 c 1,27,-1
 230 1 l 1,28,29
 212 4 212 4 207 9.5 c 128,-1,30
 202 15 202 15 200 16.5 c 128,-1,31
 198 18 198 18 195 23.5 c 128,-1,32
 192 29 192 29 191 30.5 c 128,-1,33
 190 32 190 32 186.5 39.5 c 128,-1,34
 183 47 183 47 182 49 c 0,35,36
 105 203 105 203 30 456 c 0,37,38
 27 464 27 464 27 470 c 0,39,40
 27 492 27 492 58 492 c 2,0,-1
125.5 578 m 128,-1,42
 112 591 112 591 112 610.5 c 128,-1,43
 112 630 112 630 125.5 642.5 c 128,-1,44
 139 655 139 655 158 655 c 128,-1,45
 177 655 177 655 190 642.5 c 128,-1,46
 203 630 203 630 203 610.5 c 128,-1,47
 203 591 203 591 190 578 c 128,-1,48
 177 565 177 565 158 565 c 128,-1,41
 139 565 139 565 125.5 578 c 128,-1,42
327 578 m 128,-1,50
 314 591 314 591 314 610.5 c 128,-1,51
 314 630 314 630 327 642.5 c 128,-1,52
 340 655 340 655 359 655 c 128,-1,53
 378 655 378 655 391 642.5 c 128,-1,54
 404 630 404 630 404 610.5 c 128,-1,55
 404 591 404 591 391 578 c 128,-1,56
 378 565 378 565 359 565 c 128,-1,49
 340 565 340 565 327 578 c 128,-1,50
EndSplineSet
EndChar

StartChar: Amacron
Encoding: 256 256 180
Width: 687
GlyphClass: 2
Flags: W
LayerCount: 2
Fore
SplineSet
340 678 m 2,0,-1
 351 678 l 2,1,2
 376 678 376 678 383.5 672 c 128,-1,3
 391 666 391 666 393.5 664.5 c 128,-1,4
 396 663 396 663 400.5 656 c 128,-1,5
 405 649 405 649 406.5 647 c 128,-1,6
 408 645 408 645 413 635 c 128,-1,7
 418 625 418 625 420 622 c 0,8,9
 543 399 543 399 647 50 c 0,10,11
 650 38 650 38 650 29 c 0,12,13
 650 0 650 0 619 0 c 2,14,-1
 595 0 l 2,15,16
 578 0 578 0 571.5 6 c 128,-1,17
 565 12 565 12 562 15 c 128,-1,18
 559 18 559 18 556 26.5 c 128,-1,19
 553 35 553 35 552 39 c 0,20,21
 549 45 549 45 532.5 107.5 c 128,-1,22
 516 170 516 170 496 228 c 1,23,-1
 194 228 l 1,24,25
 169 151 169 151 155 97 c 128,-1,26
 141 43 141 43 139.5 39 c 128,-1,27
 138 35 138 35 135 26.5 c 128,-1,28
 132 18 132 18 129 15 c 128,-1,29
 126 12 126 12 121 8 c 0,30,31
 113 0 113 0 96 0 c 2,32,-1
 72 0 l 2,33,34
 41 0 41 0 41 30 c 0,35,36
 41 38 41 38 44 50 c 0,37,38
 148 399 148 399 271 622 c 0,39,40
 273 625 273 625 278 635 c 128,-1,41
 283 645 283 645 284.5 647 c 128,-1,42
 286 649 286 649 290.5 656 c 128,-1,43
 295 663 295 663 297.5 664.5 c 128,-1,44
 300 666 300 666 305 670 c 128,-1,45
 310 674 310 674 314 675 c 0,46,47
 328 678 328 678 340 678 c 2,0,-1
345 583 m 1,48,49
 280 468 280 468 219 300 c 1,50,-1
 472 300 l 1,51,52
 436 399 436 399 345 583 c 1,48,49
209 827 m 2,53,-1
 475 827 l 2,54,55
 512 827 512 827 512 794 c 128,-1,56
 512 761 512 761 475 761 c 2,57,-1
 209 761 l 2,58,59
 172 761 172 761 172 794 c 128,-1,60
 172 827 172 827 209 827 c 2,53,-1
EndSplineSet
EndChar

StartChar: amacron
Encoding: 257 257 181
Width: 538
GlyphClass: 2
Flags: W
LayerCount: 2
Fore
SplineSet
248 501 m 0,0,1
 460 501 460 501 460 304 c 2,2,-1
 460 106 l 2,3,4
 460 51 460 51 502 36 c 1,5,6
 487 -2 487 -2 446 -2 c 0,7,8
 416 -2 416 -2 398.5 19.5 c 128,-1,9
 381 41 381 41 381 76 c 1,10,11
 318 -8 318 -8 218 -8 c 0,12,13
 137 -8 137 -8 90.5 33.5 c 128,-1,14
 44 75 44 75 44 145.5 c 128,-1,15
 44 216 44 216 98.5 260 c 128,-1,16
 153 304 153 304 246 304 c 0,17,18
 302 304 302 304 340 292 c 1,19,20
 371 281 371 281 377 278 c 1,21,-1
 377 322 l 2,22,23
 377 383 377 383 346 408.5 c 128,-1,24
 315 434 315 434 252 434 c 0,25,26
 163 434 163 434 114 366 c 1,27,28
 72 372 72 372 72 405 c 0,29,30
 72 443 72 443 124 472 c 128,-1,31
 176 501 176 501 248 501 c 0,0,1
377 214 m 1,32,33
 314 242 314 242 253 242 c 128,-1,34
 192 242 192 242 159 216 c 128,-1,35
 126 190 126 190 126 148.5 c 128,-1,36
 126 107 126 107 154.5 82.5 c 128,-1,37
 183 58 183 58 238.5 58 c 128,-1,38
 294 58 294 58 335.5 98 c 128,-1,39
 377 138 377 138 377 195 c 2,40,-1
 377 214 l 1,32,33
133 627 m 2,41,-1
 399 627 l 2,42,43
 436 627 436 627 436 594 c 128,-1,44
 436 561 436 561 399 561 c 2,45,-1
 133 561 l 2,46,47
 96 561 96 561 96 594 c 128,-1,48
 96 627 96 627 133 627 c 2,41,-1
EndSplineSet
EndChar

StartChar: Abreve
Encoding: 258 258 182
Width: 687
GlyphClass: 2
Flags: W
LayerCount: 2
Fore
SplineSet
340 678 m 2,0,-1
 351 678 l 2,1,2
 376 678 376 678 383.5 672 c 128,-1,3
 391 666 391 666 393.5 664.5 c 128,-1,4
 396 663 396 663 400.5 656 c 128,-1,5
 405 649 405 649 406.5 647 c 128,-1,6
 408 645 408 645 413 635 c 128,-1,7
 418 625 418 625 420 622 c 0,8,9
 543 399 543 399 647 50 c 0,10,11
 650 38 650 38 650 29 c 0,12,13
 650 0 650 0 619 0 c 2,14,-1
 595 0 l 2,15,16
 578 0 578 0 571.5 6 c 128,-1,17
 565 12 565 12 562 15 c 128,-1,18
 559 18 559 18 556 26.5 c 128,-1,19
 553 35 553 35 552 39 c 0,20,21
 549 45 549 45 532.5 107.5 c 128,-1,22
 516 170 516 170 496 228 c 1,23,-1
 194 228 l 1,24,25
 169 151 169 151 155 97 c 128,-1,26
 141 43 141 43 139.5 39 c 128,-1,27
 138 35 138 35 135 26.5 c 128,-1,28
 132 18 132 18 129 15 c 128,-1,29
 126 12 126 12 121 8 c 0,30,31
 113 0 113 0 96 0 c 2,32,-1
 72 0 l 2,33,34
 41 0 41 0 41 30 c 0,35,36
 41 38 41 38 44 50 c 0,37,38
 148 399 148 399 271 622 c 0,39,40
 273 625 273 625 278 635 c 128,-1,41
 283 645 283 645 284.5 647 c 128,-1,42
 286 649 286 649 290.5 656 c 128,-1,43
 295 663 295 663 297.5 664.5 c 128,-1,44
 300 666 300 666 305 670 c 128,-1,45
 310 674 310 674 314 675 c 0,46,47
 328 678 328 678 340 678 c 2,0,-1
345 583 m 1,48,49
 280 468 280 468 219 300 c 1,50,-1
 472 300 l 1,51,52
 436 399 436 399 345 583 c 1,48,49
295.5 815 m 128,-1,54
 318 800 318 800 342.5 800 c 128,-1,55
 367 800 367 800 389 815 c 128,-1,56
 411 830 411 830 427.5 845 c 128,-1,57
 444 860 444 860 454 860 c 0,58,59
 479 860 479 860 479 832 c 128,-1,60
 479 804 479 804 437.5 775 c 128,-1,61
 396 746 396 746 343 746 c 128,-1,62
 290 746 290 746 248 775.5 c 128,-1,63
 206 805 206 805 206 836 c 0,64,65
 206 847 206 847 213.5 853.5 c 128,-1,66
 221 860 221 860 231.5 860 c 128,-1,67
 242 860 242 860 257.5 845 c 128,-1,53
 273 830 273 830 295.5 815 c 128,-1,54
EndSplineSet
EndChar

StartChar: abreve
Encoding: 259 259 183
Width: 538
GlyphClass: 2
Flags: W
LayerCount: 2
Fore
SplineSet
248 501 m 0,0,1
 460 501 460 501 460 304 c 2,2,-1
 460 106 l 2,3,4
 460 51 460 51 502 36 c 1,5,6
 487 -2 487 -2 446 -2 c 0,7,8
 416 -2 416 -2 398.5 19.5 c 128,-1,9
 381 41 381 41 381 76 c 1,10,11
 318 -8 318 -8 218 -8 c 0,12,13
 137 -8 137 -8 90.5 33.5 c 128,-1,14
 44 75 44 75 44 145.5 c 128,-1,15
 44 216 44 216 98.5 260 c 128,-1,16
 153 304 153 304 246 304 c 0,17,18
 302 304 302 304 340 292 c 1,19,20
 371 281 371 281 377 278 c 1,21,-1
 377 322 l 2,22,23
 377 383 377 383 346 408.5 c 128,-1,24
 315 434 315 434 252 434 c 0,25,26
 163 434 163 434 114 366 c 1,27,28
 72 372 72 372 72 405 c 0,29,30
 72 443 72 443 124 472 c 128,-1,31
 176 501 176 501 248 501 c 0,0,1
377 214 m 1,32,33
 314 242 314 242 253 242 c 128,-1,34
 192 242 192 242 159 216 c 128,-1,35
 126 190 126 190 126 148.5 c 128,-1,36
 126 107 126 107 154.5 82.5 c 128,-1,37
 183 58 183 58 238.5 58 c 128,-1,38
 294 58 294 58 335.5 98 c 128,-1,39
 377 138 377 138 377 195 c 2,40,-1
 377 214 l 1,32,33
217 629 m 128,-1,42
 239 614 239 614 264 614 c 128,-1,43
 289 614 289 614 311 629 c 128,-1,44
 333 644 333 644 349.5 659 c 128,-1,45
 366 674 366 674 376 674 c 0,46,47
 401 674 401 674 401 646 c 128,-1,48
 401 618 401 618 359.5 589 c 128,-1,49
 318 560 318 560 265 560 c 128,-1,50
 212 560 212 560 170 589.5 c 128,-1,51
 128 619 128 619 128 650 c 0,52,53
 128 661 128 661 135.5 667.5 c 128,-1,54
 143 674 143 674 153.5 674 c 128,-1,55
 164 674 164 674 179.5 659 c 128,-1,41
 195 644 195 644 217 629 c 128,-1,42
EndSplineSet
EndChar

StartChar: Aogonek
Encoding: 260 260 184
Width: 685
GlyphClass: 2
Flags: W
LayerCount: 2
Fore
SplineSet
340 678 m 2,0,-1
 351 678 l 2,1,2
 376 678 376 678 383.5 672 c 128,-1,3
 391 666 391 666 393.5 664.5 c 128,-1,4
 396 663 396 663 400.5 656 c 128,-1,5
 405 649 405 649 406.5 647 c 128,-1,6
 408 645 408 645 413 635 c 128,-1,7
 418 625 418 625 420 622 c 0,8,9
 543 399 543 399 647 50 c 0,10,11
 650 38 650 38 650 29 c 0,12,13
 650 0 650 0 619 0 c 2,14,-1
 595 0 l 2,15,16
 578 0 578 0 571.5 6 c 128,-1,17
 565 12 565 12 562 15 c 128,-1,18
 559 18 559 18 556 26.5 c 128,-1,19
 553 35 553 35 552 39 c 0,20,21
 549 45 549 45 532.5 107.5 c 128,-1,22
 516 170 516 170 496 228 c 1,23,-1
 194 228 l 1,24,25
 169 151 169 151 155 97 c 128,-1,26
 141 43 141 43 139.5 39 c 128,-1,27
 138 35 138 35 135 26.5 c 128,-1,28
 132 18 132 18 129 15 c 128,-1,29
 126 12 126 12 121 8 c 0,30,31
 113 0 113 0 96 0 c 2,32,-1
 72 0 l 2,33,34
 41 0 41 0 41 30 c 0,35,36
 41 38 41 38 44 50 c 0,37,38
 148 399 148 399 271 622 c 0,39,40
 273 625 273 625 278 635 c 128,-1,41
 283 645 283 645 284.5 647 c 128,-1,42
 286 649 286 649 290.5 656 c 128,-1,43
 295 663 295 663 297.5 664.5 c 128,-1,44
 300 666 300 666 305 670 c 128,-1,45
 310 674 310 674 314 675 c 0,46,47
 328 678 328 678 340 678 c 2,0,-1
345 583 m 1,48,49
 280 468 280 468 219 300 c 1,50,-1
 472 300 l 1,51,52
 436 399 436 399 345 583 c 1,48,49
599 34 m 1,53,-1
 599 0 l 1,54,55
 574 0 574 0 560 -14 c 128,-1,56
 546 -28 546 -28 546 -50 c 0,57,58
 546 -91 546 -91 595 -91 c 0,59,60
 629 -91 629 -91 629 -75 c 1,61,62
 638 -75 638 -75 646 -83 c 128,-1,63
 654 -91 654 -91 654 -107.5 c 128,-1,64
 654 -124 654 -124 634.5 -136 c 128,-1,65
 615 -148 615 -148 578 -148 c 128,-1,66
 541 -148 541 -148 514.5 -124 c 128,-1,67
 488 -100 488 -100 488 -60.5 c 128,-1,68
 488 -21 488 -21 518 6.5 c 128,-1,69
 548 34 548 34 599 34 c 1,53,-1
EndSplineSet
EndChar

StartChar: aogonek
Encoding: 261 261 185
Width: 538
GlyphClass: 2
Flags: W
LayerCount: 2
Fore
SplineSet
248 501 m 0,0,1
 460 501 460 501 460 304 c 2,2,-1
 460 106 l 2,3,4
 460 51 460 51 502 36 c 1,5,6
 487 -2 487 -2 446 -2 c 0,7,8
 416 -2 416 -2 398.5 19.5 c 128,-1,9
 381 41 381 41 381 76 c 1,10,11
 318 -8 318 -8 218 -8 c 0,12,13
 137 -8 137 -8 90.5 33.5 c 128,-1,14
 44 75 44 75 44 145.5 c 128,-1,15
 44 216 44 216 98.5 260 c 128,-1,16
 153 304 153 304 246 304 c 0,17,18
 302 304 302 304 340 292 c 1,19,20
 371 281 371 281 377 278 c 1,21,-1
 377 322 l 2,22,23
 377 383 377 383 346 408.5 c 128,-1,24
 315 434 315 434 252 434 c 0,25,26
 163 434 163 434 114 366 c 1,27,28
 72 372 72 372 72 405 c 0,29,30
 72 443 72 443 124 472 c 128,-1,31
 176 501 176 501 248 501 c 0,0,1
377 214 m 1,32,33
 314 242 314 242 253 242 c 128,-1,34
 192 242 192 242 159 216 c 128,-1,35
 126 190 126 190 126 148.5 c 128,-1,36
 126 107 126 107 154.5 82.5 c 128,-1,37
 183 58 183 58 238.5 58 c 128,-1,38
 294 58 294 58 335.5 98 c 128,-1,39
 377 138 377 138 377 195 c 2,40,-1
 377 214 l 1,32,33
444 30 m 1,41,-1
 444 -4 l 1,42,43
 419 -4 419 -4 405 -18 c 128,-1,44
 391 -32 391 -32 391 -54 c 0,45,46
 391 -95 391 -95 440 -95 c 0,47,48
 474 -95 474 -95 474 -79 c 1,49,50
 483 -79 483 -79 491 -87 c 128,-1,51
 499 -95 499 -95 499 -111.5 c 128,-1,52
 499 -128 499 -128 479.5 -140 c 128,-1,53
 460 -152 460 -152 423 -152 c 128,-1,54
 386 -152 386 -152 359.5 -128 c 128,-1,55
 333 -104 333 -104 333 -64.5 c 128,-1,56
 333 -25 333 -25 363 2.5 c 128,-1,57
 393 30 393 30 444 30 c 1,41,-1
EndSplineSet
EndChar

StartChar: Cacute
Encoding: 262 262 186
Width: 699
GlyphClass: 2
Flags: W
LayerCount: 2
Fore
SplineSet
394 687 m 0,0,1
 500 687 500 687 568.5 645 c 128,-1,2
 637 603 637 603 637 552 c 0,3,4
 637 530 637 530 620.5 516.5 c 128,-1,5
 604 503 604 503 577 503 c 1,6,7
 546 609 546 609 394 609 c 0,8,9
 294 609 294 609 224.5 541.5 c 128,-1,10
 155 474 155 474 155 341.5 c 128,-1,11
 155 209 155 209 225 138.5 c 128,-1,12
 295 68 295 68 394 68 c 0,13,14
 548 68 548 68 590 181 c 1,15,16
 614 181 614 181 627.5 167.5 c 128,-1,17
 641 154 641 154 641 132 c 0,18,19
 641 81 641 81 571 36.5 c 128,-1,20
 501 -8 501 -8 394 -8 c 0,21,22
 253 -8 253 -8 158 83 c 128,-1,23
 63 174 63 174 63 341 c 128,-1,24
 63 508 63 508 158 597.5 c 128,-1,25
 253 687 253 687 394 687 c 0,0,1
267 734 m 0,26,27
 251 734 251 734 251 749 c 2,28,-1
 251 758 l 2,29,30
 251 773 251 773 269 785 c 1,31,-1
 449 892 l 2,32,33
 454 896 454 896 465 896 c 0,34,35
 483 896 483 896 483 878 c 2,36,-1
 483 851 l 2,37,38
 483 827 483 827 461 818 c 2,39,-1
 280 737 l 2,40,41
 274 734 274 734 267 734 c 0,26,27
EndSplineSet
EndChar

StartChar: cacute
Encoding: 263 263 187
Width: 518
GlyphClass: 2
Flags: W
LayerCount: 2
Fore
SplineSet
201 488 m 128,-1,1
 243 502 243 502 303 502 c 128,-1,2
 363 502 363 502 408.5 475 c 128,-1,3
 454 448 454 448 454 417 c 0,4,5
 454 379 454 379 411 374 c 1,6,7
 401 396 401 396 366 414.5 c 128,-1,8
 331 433 331 433 283 433 c 0,9,10
 216 433 216 433 172 385.5 c 128,-1,11
 128 338 128 338 128 247 c 128,-1,12
 128 156 128 156 173 108 c 128,-1,13
 218 60 218 60 281 60 c 0,14,15
 381 60 381 60 416 125 c 1,16,17
 435 125 435 125 448 113.5 c 128,-1,18
 461 102 461 102 461 84 c 0,19,20
 461 49 461 49 413 20.5 c 128,-1,21
 365 -8 365 -8 303.5 -8 c 128,-1,22
 242 -8 242 -8 199.5 6.5 c 128,-1,23
 157 21 157 21 121 50.5 c 128,-1,24
 85 80 85 80 64 130 c 128,-1,25
 43 180 43 180 43 246.5 c 128,-1,26
 43 313 43 313 64.5 364.5 c 128,-1,27
 86 416 86 416 122.5 445 c 128,-1,0
 159 474 159 474 201 488 c 128,-1,1
165 548 m 0,28,29
 149 548 149 548 149 563 c 2,30,-1
 149 572 l 2,31,32
 149 587 149 587 167 599 c 1,33,-1
 347 706 l 2,34,35
 352 710 352 710 363 710 c 0,36,37
 381 710 381 710 381 692 c 2,38,-1
 381 665 l 2,39,40
 381 641 381 641 359 632 c 2,41,-1
 178 551 l 2,42,43
 172 548 172 548 165 548 c 0,28,29
EndSplineSet
EndChar

StartChar: Ccircumflex
Encoding: 264 264 188
Width: 699
GlyphClass: 2
Flags: W
LayerCount: 2
Fore
SplineSet
394 687 m 0,0,1
 500 687 500 687 568.5 645 c 128,-1,2
 637 603 637 603 637 552 c 0,3,4
 637 530 637 530 620.5 516.5 c 128,-1,5
 604 503 604 503 577 503 c 1,6,7
 546 609 546 609 394 609 c 0,8,9
 294 609 294 609 224.5 541.5 c 128,-1,10
 155 474 155 474 155 341.5 c 128,-1,11
 155 209 155 209 225 138.5 c 128,-1,12
 295 68 295 68 394 68 c 0,13,14
 548 68 548 68 590 181 c 1,15,16
 614 181 614 181 627.5 167.5 c 128,-1,17
 641 154 641 154 641 132 c 0,18,19
 641 81 641 81 571 36.5 c 128,-1,20
 501 -8 501 -8 394 -8 c 0,21,22
 253 -8 253 -8 158 83 c 128,-1,23
 63 174 63 174 63 341 c 128,-1,24
 63 508 63 508 158 597.5 c 128,-1,25
 253 687 253 687 394 687 c 0,0,1
253 746 m 0,26,27
 223 746 223 746 223 770 c 0,28,29
 223 782 223 782 245 797 c 2,30,-1
 334 860 l 2,31,32
 348 870 348 870 366 870 c 128,-1,33
 384 870 384 870 400 859 c 2,34,-1
 489 797 l 2,35,36
 511 782 511 782 511 770 c 0,37,38
 511 746 511 746 481 746 c 0,39,40
 467 746 467 746 453 755 c 2,41,-1
 367 808 l 1,42,-1
 281 755 l 2,43,44
 267 746 267 746 253 746 c 0,26,27
EndSplineSet
EndChar

StartChar: ccircumflex
Encoding: 265 265 189
Width: 518
GlyphClass: 2
Flags: W
LayerCount: 2
Fore
SplineSet
201 488 m 128,-1,1
 243 502 243 502 303 502 c 128,-1,2
 363 502 363 502 408.5 475 c 128,-1,3
 454 448 454 448 454 417 c 0,4,5
 454 379 454 379 411 374 c 1,6,7
 401 396 401 396 366 414.5 c 128,-1,8
 331 433 331 433 283 433 c 0,9,10
 216 433 216 433 172 385.5 c 128,-1,11
 128 338 128 338 128 247 c 128,-1,12
 128 156 128 156 173 108 c 128,-1,13
 218 60 218 60 281 60 c 0,14,15
 381 60 381 60 416 125 c 1,16,17
 435 125 435 125 448 113.5 c 128,-1,18
 461 102 461 102 461 84 c 0,19,20
 461 49 461 49 413 20.5 c 128,-1,21
 365 -8 365 -8 303.5 -8 c 128,-1,22
 242 -8 242 -8 199.5 6.5 c 128,-1,23
 157 21 157 21 121 50.5 c 128,-1,24
 85 80 85 80 64 130 c 128,-1,25
 43 180 43 180 43 246.5 c 128,-1,26
 43 313 43 313 64.5 364.5 c 128,-1,27
 86 416 86 416 122.5 445 c 128,-1,0
 159 474 159 474 201 488 c 128,-1,1
150 560 m 0,28,29
 120 560 120 560 120 584 c 0,30,31
 120 596 120 596 142 611 c 2,32,-1
 231 674 l 2,33,34
 245 684 245 684 263 684 c 128,-1,35
 281 684 281 684 297 673 c 2,36,-1
 386 611 l 2,37,38
 408 596 408 596 408 584 c 0,39,40
 408 560 408 560 378 560 c 0,41,42
 364 560 364 560 350 569 c 2,43,-1
 264 622 l 1,44,-1
 178 569 l 2,45,46
 164 560 164 560 150 560 c 0,28,29
EndSplineSet
EndChar

StartChar: Cdotaccent
Encoding: 266 266 190
Width: 699
GlyphClass: 2
Flags: W
LayerCount: 2
Fore
SplineSet
394 687 m 0,0,1
 500 687 500 687 568.5 645 c 128,-1,2
 637 603 637 603 637 552 c 0,3,4
 637 530 637 530 620.5 516.5 c 128,-1,5
 604 503 604 503 577 503 c 1,6,7
 546 609 546 609 394 609 c 0,8,9
 294 609 294 609 224.5 541.5 c 128,-1,10
 155 474 155 474 155 341.5 c 128,-1,11
 155 209 155 209 225 138.5 c 128,-1,12
 295 68 295 68 394 68 c 0,13,14
 548 68 548 68 590 181 c 1,15,16
 614 181 614 181 627.5 167.5 c 128,-1,17
 641 154 641 154 641 132 c 0,18,19
 641 81 641 81 571 36.5 c 128,-1,20
 501 -8 501 -8 394 -8 c 0,21,22
 253 -8 253 -8 158 83 c 128,-1,23
 63 174 63 174 63 341 c 128,-1,24
 63 508 63 508 158 597.5 c 128,-1,25
 253 687 253 687 394 687 c 0,0,1
311 797 m 128,-1,27
 311 820 311 820 327 836 c 128,-1,28
 343 852 343 852 366.5 852 c 128,-1,29
 390 852 390 852 406 836 c 128,-1,30
 422 820 422 820 422 797 c 128,-1,31
 422 774 422 774 406 758 c 128,-1,32
 390 742 390 742 366.5 742 c 128,-1,33
 343 742 343 742 327 758 c 128,-1,26
 311 774 311 774 311 797 c 128,-1,27
EndSplineSet
EndChar

StartChar: cdotaccent
Encoding: 267 267 191
Width: 518
GlyphClass: 2
Flags: W
LayerCount: 2
Fore
SplineSet
201 488 m 128,-1,1
 243 502 243 502 303 502 c 128,-1,2
 363 502 363 502 408.5 475 c 128,-1,3
 454 448 454 448 454 417 c 0,4,5
 454 379 454 379 411 374 c 1,6,7
 401 396 401 396 366 414.5 c 128,-1,8
 331 433 331 433 283 433 c 0,9,10
 216 433 216 433 172 385.5 c 128,-1,11
 128 338 128 338 128 247 c 128,-1,12
 128 156 128 156 173 108 c 128,-1,13
 218 60 218 60 281 60 c 0,14,15
 381 60 381 60 416 125 c 1,16,17
 435 125 435 125 448 113.5 c 128,-1,18
 461 102 461 102 461 84 c 0,19,20
 461 49 461 49 413 20.5 c 128,-1,21
 365 -8 365 -8 303.5 -8 c 128,-1,22
 242 -8 242 -8 199.5 6.5 c 128,-1,23
 157 21 157 21 121 50.5 c 128,-1,24
 85 80 85 80 64 130 c 128,-1,25
 43 180 43 180 43 246.5 c 128,-1,26
 43 313 43 313 64.5 364.5 c 128,-1,27
 86 416 86 416 122.5 445 c 128,-1,0
 159 474 159 474 201 488 c 128,-1,1
210 611 m 128,-1,29
 210 634 210 634 226 650 c 128,-1,30
 242 666 242 666 265.5 666 c 128,-1,31
 289 666 289 666 305 650 c 128,-1,32
 321 634 321 634 321 611 c 128,-1,33
 321 588 321 588 305 572 c 128,-1,34
 289 556 289 556 265.5 556 c 128,-1,35
 242 556 242 556 226 572 c 128,-1,28
 210 588 210 588 210 611 c 128,-1,29
EndSplineSet
EndChar

